%TF.GenerationSoftware,KiCad,Pcbnew,9.0.3*%
%TF.CreationDate,2025-09-25T14:59:41+01:00*%
%TF.ProjectId,MC,4d432e6b-6963-4616-945f-706362585858,rev?*%
%TF.SameCoordinates,Original*%
%TF.FileFunction,Copper,L4,Bot*%
%TF.FilePolarity,Positive*%
%FSLAX46Y46*%
G04 Gerber Fmt 4.6, Leading zero omitted, Abs format (unit mm)*
G04 Created by KiCad (PCBNEW 9.0.3) date 2025-09-25 14:59:41*
%MOMM*%
%LPD*%
G01*
G04 APERTURE LIST*
G04 Aperture macros list*
%AMRoundRect*
0 Rectangle with rounded corners*
0 $1 Rounding radius*
0 $2 $3 $4 $5 $6 $7 $8 $9 X,Y pos of 4 corners*
0 Add a 4 corners polygon primitive as box body*
4,1,4,$2,$3,$4,$5,$6,$7,$8,$9,$2,$3,0*
0 Add four circle primitives for the rounded corners*
1,1,$1+$1,$2,$3*
1,1,$1+$1,$4,$5*
1,1,$1+$1,$6,$7*
1,1,$1+$1,$8,$9*
0 Add four rect primitives between the rounded corners*
20,1,$1+$1,$2,$3,$4,$5,0*
20,1,$1+$1,$4,$5,$6,$7,0*
20,1,$1+$1,$6,$7,$8,$9,0*
20,1,$1+$1,$8,$9,$2,$3,0*%
%AMOutline4P*
0 Free polygon, 4 corners , with rotation*
0 The origin of the aperture is its center*
0 number of corners: always 4*
0 $1 to $8 corner X, Y*
0 $9 Rotation angle, in degrees counterclockwise*
0 create outline with 4 corners*
4,1,4,$1,$2,$3,$4,$5,$6,$7,$8,$1,$2,$9*%
G04 Aperture macros list end*
%ADD10C,0.200000*%
%TA.AperFunction,NonConductor*%
%ADD11C,0.200000*%
%TD*%
%TA.AperFunction,ComponentPad*%
%ADD12R,1.500000X2.500000*%
%TD*%
%TA.AperFunction,ComponentPad*%
%ADD13O,1.500000X2.500000*%
%TD*%
%TA.AperFunction,ComponentPad*%
%ADD14C,2.910000*%
%TD*%
%TA.AperFunction,ComponentPad*%
%ADD15C,2.300000*%
%TD*%
%TA.AperFunction,SMDPad,CuDef*%
%ADD16Outline4P,-2.150000X-1.800000X2.150000X-0.800000X2.150000X0.800000X-2.150000X1.800000X90.000000*%
%TD*%
%TA.AperFunction,SMDPad,CuDef*%
%ADD17Outline4P,-2.150000X-1.800000X2.150000X-0.800000X2.150000X0.800000X-2.150000X1.800000X270.000000*%
%TD*%
%TA.AperFunction,ComponentPad*%
%ADD18R,2.000000X1.905000*%
%TD*%
%TA.AperFunction,ComponentPad*%
%ADD19O,2.000000X1.905000*%
%TD*%
%TA.AperFunction,SMDPad,CuDef*%
%ADD20RoundRect,0.237500X0.237500X-0.250000X0.237500X0.250000X-0.237500X0.250000X-0.237500X-0.250000X0*%
%TD*%
%TA.AperFunction,ViaPad*%
%ADD21C,0.600000*%
%TD*%
%TA.AperFunction,ViaPad*%
%ADD22C,1.000000*%
%TD*%
%TA.AperFunction,Conductor*%
%ADD23C,0.500000*%
%TD*%
%TA.AperFunction,Conductor*%
%ADD24C,2.500000*%
%TD*%
%TA.AperFunction,Conductor*%
%ADD25C,0.400000*%
%TD*%
G04 APERTURE END LIST*
D10*
D11*
X100749076Y-144796152D02*
X100749076Y-145462819D01*
X100510981Y-144415200D02*
X100272886Y-145129485D01*
X100272886Y-145129485D02*
X100891933Y-145129485D01*
D12*
%TO.P,U5,1,Vin*%
%TO.N,+24V*%
X109911700Y-97084900D03*
D13*
%TO.P,U5,2,GND*%
%TO.N,GND*%
X112451700Y-97084900D03*
%TO.P,U5,3,Vout*%
%TO.N,+12V*%
X114991700Y-97084900D03*
%TD*%
D14*
%TO.P,J1,9*%
%TO.N,N/C*%
X92659200Y-116687600D03*
%TO.P,J1,10*%
X92659200Y-103387600D03*
%TD*%
D15*
%TO.P,J4,1,Pin_1*%
%TO.N,+24V*%
X213868000Y-87884000D03*
X213868000Y-90424000D03*
X213868000Y-92964000D03*
X213868000Y-95504000D03*
X213868000Y-98044000D03*
X216408000Y-87884000D03*
X216408000Y-90424000D03*
X216408000Y-92964000D03*
X216408000Y-95504000D03*
X216408000Y-98044000D03*
X218948000Y-87884000D03*
X218948000Y-90424000D03*
X218948000Y-92964000D03*
X218948000Y-95504000D03*
X218948000Y-98044000D03*
X221488000Y-87884000D03*
X221488000Y-90424000D03*
X221488000Y-92964000D03*
X221488000Y-95504000D03*
X221488000Y-98044000D03*
X224028000Y-87884000D03*
X224028000Y-90424000D03*
X224028000Y-92964000D03*
X224028000Y-95504000D03*
X224028000Y-98044000D03*
%TD*%
%TO.P,J2,1,Pin_1*%
%TO.N,GND*%
X92964000Y-126111000D03*
X92964000Y-128651000D03*
X92964000Y-131191000D03*
X92964000Y-133731000D03*
X92964000Y-136271000D03*
X95504000Y-126111000D03*
X95504000Y-128651000D03*
X95504000Y-131191000D03*
X95504000Y-133731000D03*
X95504000Y-136271000D03*
X98044000Y-126111000D03*
X98044000Y-128651000D03*
X98044000Y-131191000D03*
X98044000Y-133731000D03*
X98044000Y-136271000D03*
X100584000Y-126111000D03*
X100584000Y-128651000D03*
X100584000Y-131191000D03*
X100584000Y-133731000D03*
X100584000Y-136271000D03*
X103124000Y-126111000D03*
X103124000Y-128651000D03*
X103124000Y-131191000D03*
X103124000Y-133731000D03*
X103124000Y-136271000D03*
%TD*%
%TO.P,J3,1,Pin_1*%
%TO.N,Motor_Out-*%
X213868000Y-121920000D03*
X213868000Y-124460000D03*
X213868000Y-127000000D03*
X213868000Y-129540000D03*
X213868000Y-132080000D03*
X216408000Y-121920000D03*
X216408000Y-124460000D03*
X216408000Y-127000000D03*
X216408000Y-129540000D03*
X216408000Y-132080000D03*
X218948000Y-121920000D03*
X218948000Y-124460000D03*
X218948000Y-127000000D03*
X218948000Y-129540000D03*
X218948000Y-132080000D03*
X221488000Y-121920000D03*
X221488000Y-124460000D03*
X221488000Y-127000000D03*
X221488000Y-129540000D03*
X221488000Y-132080000D03*
X224028000Y-121920000D03*
X224028000Y-124460000D03*
X224028000Y-127000000D03*
X224028000Y-129540000D03*
X224028000Y-132080000D03*
%TD*%
%TO.P,J5,1,Pin_1*%
%TO.N,+24V*%
X93000000Y-83185000D03*
X93000000Y-85725000D03*
X93000000Y-88265000D03*
X93000000Y-90805000D03*
X93000000Y-93345000D03*
X95540000Y-83185000D03*
X95540000Y-85725000D03*
X95540000Y-88265000D03*
X95540000Y-90805000D03*
X95540000Y-93345000D03*
X98080000Y-83185000D03*
X98080000Y-85725000D03*
X98080000Y-88265000D03*
X98080000Y-90805000D03*
X98080000Y-93345000D03*
X100620000Y-83185000D03*
X100620000Y-85725000D03*
X100620000Y-88265000D03*
X100620000Y-90805000D03*
X100620000Y-93345000D03*
X103160000Y-83185000D03*
X103160000Y-85725000D03*
X103160000Y-88265000D03*
X103160000Y-90805000D03*
X103160000Y-93345000D03*
%TD*%
D16*
%TO.P,D7,1,K*%
%TO.N,Motor_Out-*%
X180848000Y-121158000D03*
D17*
%TO.P,D7,2,A*%
%TO.N,GND*%
X180848000Y-114758000D03*
%TD*%
D18*
%TO.P,Q1,1,G*%
%TO.N,Net-(D1-A)*%
X186629400Y-85090000D03*
D19*
%TO.P,Q1,2,D*%
%TO.N,+24V*%
X186629400Y-87630000D03*
%TO.P,Q1,3,S*%
%TO.N,Motor_Out-*%
X186629400Y-90170000D03*
%TD*%
D20*
%TO.P,R27,1*%
%TO.N,Net-(D10-A)*%
X115028400Y-131178100D03*
%TO.P,R27,2*%
%TO.N,/Power & Signals/Motor Driver ENBL*%
X115028400Y-129353100D03*
%TD*%
%TO.P,R34,1*%
%TO.N,Net-(D14-K)*%
X122504200Y-131216300D03*
%TO.P,R34,2*%
%TO.N,/Power & Signals/TempFault2*%
X122504200Y-129391300D03*
%TD*%
%TO.P,R33,1*%
%TO.N,Net-(D13-K)*%
X120599200Y-131165600D03*
%TO.P,R33,2*%
%TO.N,/Power & Signals/TempFault1*%
X120599200Y-129340600D03*
%TD*%
D18*
%TO.P,Q4,1,G*%
%TO.N,Net-(D4-A)*%
X186756400Y-118846600D03*
D19*
%TO.P,Q4,2,D*%
%TO.N,Motor_Out-*%
X186756400Y-121386600D03*
%TO.P,Q4,3,S*%
%TO.N,GND*%
X186756400Y-123926600D03*
%TD*%
D17*
%TO.P,D6,1,K*%
%TO.N,+24V*%
X181610000Y-94946000D03*
D16*
%TO.P,D6,2,A*%
%TO.N,Motor_Out-*%
X181610000Y-101346000D03*
%TD*%
D18*
%TO.P,Q3,1,G*%
%TO.N,Net-(D5-A)*%
X186604000Y-96210000D03*
D19*
%TO.P,Q3,2,D*%
%TO.N,+24V*%
X186604000Y-98750000D03*
%TO.P,Q3,3,S*%
%TO.N,Motor_Out-*%
X186604000Y-101290000D03*
%TD*%
D20*
%TO.P,R26,1*%
%TO.N,Net-(D9-A)*%
X113080800Y-131161800D03*
%TO.P,R26,2*%
%TO.N,+5V*%
X113080800Y-129336800D03*
%TD*%
D18*
%TO.P,Q2,1,G*%
%TO.N,Net-(D2-A)*%
X186698000Y-129972000D03*
D19*
%TO.P,Q2,2,D*%
%TO.N,Motor_Out-*%
X186698000Y-132512000D03*
%TO.P,Q2,3,S*%
%TO.N,GND*%
X186698000Y-135052000D03*
%TD*%
D20*
%TO.P,R29,1*%
%TO.N,Net-(D12-A)*%
X118830600Y-131199700D03*
%TO.P,R29,2*%
%TO.N,/Power & Signals/Motor PWM2*%
X118830600Y-129374700D03*
%TD*%
%TO.P,R25,1*%
%TO.N,Net-(D8-A)*%
X111159800Y-131178100D03*
%TO.P,R25,2*%
%TO.N,+12V*%
X111159800Y-129353100D03*
%TD*%
%TO.P,R28,1*%
%TO.N,Net-(D11-A)*%
X116883400Y-131165300D03*
%TO.P,R28,2*%
%TO.N,/Power & Signals/Motor PWM1*%
X116883400Y-129340300D03*
%TD*%
D21*
%TO.N,+5V*%
X116789200Y-117754400D03*
X200354100Y-91440000D03*
X126644400Y-111455200D03*
X127254000Y-128016000D03*
X118872000Y-104140000D03*
X200660000Y-127000000D03*
X112928400Y-128117600D03*
X127609600Y-111404400D03*
X120015000Y-100965000D03*
X119888000Y-128220300D03*
X112623600Y-127089600D03*
X117475000Y-104140000D03*
X118745000Y-100965000D03*
X121285000Y-104140000D03*
%TO.N,GND*%
X102870000Y-137795000D03*
X132080000Y-142240000D03*
X161798000Y-132080000D03*
X90170000Y-132715000D03*
X90805000Y-133985000D03*
X159258000Y-116840000D03*
X147320000Y-119380000D03*
X116840000Y-114300000D03*
X127000000Y-110236000D03*
X104140000Y-118745000D03*
D22*
X107950000Y-137795000D03*
D21*
X177800000Y-133350000D03*
X157480000Y-142240000D03*
X149098000Y-119380000D03*
X151638000Y-116840000D03*
X88900000Y-110490000D03*
X172720000Y-144780000D03*
X90805000Y-136525000D03*
X131445000Y-111760000D03*
X91440000Y-114300000D03*
X167640000Y-144780000D03*
X93980000Y-144780000D03*
X93980000Y-140970000D03*
X143510000Y-128778000D03*
X105410000Y-132715000D03*
X96520000Y-115570000D03*
X90170000Y-135255000D03*
X137160000Y-144780000D03*
X104140000Y-144780000D03*
X104140000Y-140970000D03*
X181610000Y-111760000D03*
X93980000Y-138430000D03*
X152400000Y-142240000D03*
X97790000Y-115570000D03*
X130175000Y-120650000D03*
X131445000Y-113284000D03*
D22*
X105410000Y-140335000D03*
D21*
X151638000Y-114300000D03*
X92710000Y-140335000D03*
X97790000Y-137795000D03*
X123190000Y-111760000D03*
X90805000Y-126365000D03*
X149860000Y-134620000D03*
X159258000Y-111760000D03*
X164338000Y-114300000D03*
X91440000Y-138430000D03*
D22*
X90170000Y-137795000D03*
D21*
X182880000Y-144780000D03*
X147828000Y-132080000D03*
X172720000Y-142240000D03*
X96520000Y-138430000D03*
X99060000Y-140970000D03*
X149098000Y-128270000D03*
X137160000Y-142240000D03*
X144780000Y-134620000D03*
X142240000Y-144780000D03*
X106680000Y-130175000D03*
X177800000Y-142240000D03*
X147320000Y-128270000D03*
X139700000Y-134620000D03*
X100330000Y-140335000D03*
X90170000Y-130175000D03*
X107950000Y-132715000D03*
X90170000Y-127635000D03*
X200406000Y-93218000D03*
X88900000Y-124460000D03*
X149860000Y-125730000D03*
X138430000Y-127000000D03*
X200558400Y-128117600D03*
X160528000Y-128270000D03*
X154178000Y-132080000D03*
X177800000Y-132080000D03*
X88900000Y-142240000D03*
X96520000Y-140970000D03*
X170180000Y-134620000D03*
X125095000Y-114300000D03*
X162560000Y-144780000D03*
X177800000Y-144780000D03*
X95250000Y-140335000D03*
X132080000Y-144780000D03*
X163068000Y-125730000D03*
X147320000Y-144780000D03*
X149860000Y-119380000D03*
X159258000Y-114300000D03*
X120015000Y-111760000D03*
X163068000Y-128270000D03*
X127000000Y-144780000D03*
X167640000Y-142240000D03*
X121920000Y-144780000D03*
X130175000Y-123825000D03*
X185420000Y-111760000D03*
X134620000Y-134620000D03*
X121920000Y-142240000D03*
X165100000Y-134620000D03*
X157480000Y-144780000D03*
X88900000Y-129540000D03*
X113030000Y-111760000D03*
X125095000Y-111760000D03*
X97790000Y-140335000D03*
X147320000Y-142240000D03*
X91440000Y-110490000D03*
X101600000Y-140970000D03*
X106045000Y-133985000D03*
X105410000Y-127635000D03*
X161798000Y-116840000D03*
X104140000Y-138430000D03*
X88900000Y-144780000D03*
X149098000Y-125730000D03*
X142240000Y-142240000D03*
D22*
X105410000Y-137795000D03*
D21*
X105410000Y-135255000D03*
X154940000Y-134620000D03*
X106045000Y-131445000D03*
X88900000Y-114300000D03*
X105410000Y-115570000D03*
D22*
X90805000Y-123825000D03*
D21*
X88900000Y-139700000D03*
X101600000Y-138430000D03*
X127000000Y-142240000D03*
X109067600Y-144932400D03*
X162560000Y-142240000D03*
X149860000Y-128270000D03*
X105410000Y-113030000D03*
X113030000Y-116840000D03*
X149860000Y-116840000D03*
X106680000Y-127635000D03*
X176530000Y-111760000D03*
X147320000Y-125730000D03*
X116840000Y-111760000D03*
X88900000Y-134620000D03*
X152400000Y-144780000D03*
X127000000Y-122432200D03*
X107950000Y-135255000D03*
X102870000Y-140335000D03*
X92710000Y-137795000D03*
X90805000Y-128905000D03*
X108585000Y-133985000D03*
X99060000Y-138430000D03*
X90805000Y-131445000D03*
X161798000Y-114300000D03*
X116840000Y-116205000D03*
D22*
X105410000Y-125095000D03*
D21*
X151638000Y-111760000D03*
X109220000Y-114300000D03*
X130175000Y-107315000D03*
X109220000Y-118745000D03*
X88900000Y-119380000D03*
X100330000Y-137795000D03*
X106045000Y-126365000D03*
X132080000Y-121920000D03*
X144780000Y-125730000D03*
X90170000Y-125095000D03*
X130175000Y-110236000D03*
X106045000Y-128905000D03*
X105410000Y-130175000D03*
X164338000Y-116840000D03*
X182880000Y-142240000D03*
X113030000Y-114300000D03*
X104140000Y-116840000D03*
X149098000Y-116840000D03*
X95250000Y-137795000D03*
X164338000Y-111760000D03*
X116840000Y-144780000D03*
X106045000Y-136525000D03*
X169418000Y-132080000D03*
X116840000Y-142240000D03*
X88900000Y-121920000D03*
X109220000Y-116840000D03*
D22*
X90170000Y-140335000D03*
D21*
X160020000Y-134620000D03*
X160528000Y-125730000D03*
X105410000Y-110490000D03*
%TO.N,+12V*%
X133858000Y-104394000D03*
X130556000Y-130556000D03*
X99695000Y-107315000D03*
X132588000Y-104394000D03*
X130556000Y-128524000D03*
X133858000Y-100838000D03*
X130048000Y-100838000D03*
X130048000Y-103124000D03*
X95885000Y-107315000D03*
X133858000Y-103124000D03*
X131318000Y-104394000D03*
X130556000Y-131572000D03*
X133858000Y-102108000D03*
X130556000Y-132588000D03*
X112141318Y-124460000D03*
X97790000Y-107315000D03*
X130048000Y-102108000D03*
X130048000Y-104394000D03*
X130556000Y-129540000D03*
%TO.N,+24V*%
X92710000Y-80645000D03*
X208280000Y-76200000D03*
X93980000Y-99060000D03*
X194310000Y-85090000D03*
X191770000Y-85090000D03*
X111760000Y-76200000D03*
X116840000Y-93980000D03*
X106045000Y-84455000D03*
X95250000Y-80645000D03*
X208915000Y-87630000D03*
X107950000Y-85725000D03*
X227838000Y-90170000D03*
X220345000Y-84455000D03*
X199898000Y-107950000D03*
X211455000Y-87630000D03*
X105410000Y-93345000D03*
X207518000Y-107950000D03*
X210820000Y-96520000D03*
X105410000Y-83185000D03*
X189230000Y-101600000D03*
X172720000Y-76200000D03*
X107950000Y-88265000D03*
X224155000Y-82550000D03*
X101600000Y-96520000D03*
X121920000Y-88900000D03*
X97790000Y-95885000D03*
X187960000Y-76200000D03*
X193040000Y-76200000D03*
X202438000Y-107950000D03*
X101600000Y-77470000D03*
X213995000Y-102870000D03*
X215265000Y-81915000D03*
X216535000Y-100330000D03*
X217805000Y-81915000D03*
X147320000Y-99060000D03*
X152400000Y-88900000D03*
X220345000Y-81915000D03*
X95250000Y-95885000D03*
X137160000Y-93980000D03*
X210820000Y-86360000D03*
D22*
X211455000Y-100330000D03*
X90170000Y-80645000D03*
D21*
X147320000Y-88900000D03*
X210820000Y-88900000D03*
X224155000Y-85090000D03*
X191770000Y-97790000D03*
D22*
X226695000Y-102870000D03*
D21*
X215265000Y-84455000D03*
X218440000Y-76200000D03*
X208280000Y-81280000D03*
X105410000Y-85725000D03*
X127000000Y-76200000D03*
X211455000Y-90170000D03*
X211455000Y-95250000D03*
X159258000Y-107950000D03*
X225425000Y-100965000D03*
X208915000Y-90170000D03*
X107950000Y-93345000D03*
X200025000Y-97790000D03*
X100330000Y-78105000D03*
X224155000Y-100330000D03*
X142240000Y-83820000D03*
X227838000Y-97790000D03*
X194310000Y-87630000D03*
X105410000Y-88265000D03*
X224155000Y-102870000D03*
X216535000Y-102870000D03*
X208915000Y-95250000D03*
D22*
X90170000Y-98425000D03*
D21*
X191770000Y-87630000D03*
X227838000Y-107950000D03*
X215265000Y-100965000D03*
X210820000Y-91440000D03*
X137160000Y-99060000D03*
X219075000Y-82550000D03*
X96520000Y-80010000D03*
X199898000Y-105410000D03*
X189230000Y-104140000D03*
X147320000Y-76200000D03*
X105410000Y-90805000D03*
D22*
X107950000Y-80645000D03*
D21*
X227838000Y-92710000D03*
X100330000Y-98425000D03*
X217678000Y-107950000D03*
X164338000Y-105410000D03*
X106045000Y-81915000D03*
X221615000Y-100330000D03*
X220345000Y-103505000D03*
X220345000Y-100965000D03*
D22*
X226695000Y-85090000D03*
D21*
X93980000Y-96520000D03*
X96520000Y-99060000D03*
X91440000Y-99060000D03*
X212725000Y-81915000D03*
X162560000Y-83820000D03*
X219075000Y-102870000D03*
X157480000Y-76200000D03*
X104140000Y-80010000D03*
X101600000Y-80010000D03*
D22*
X226695000Y-100330000D03*
D21*
X215265000Y-103505000D03*
D22*
X226695000Y-82550000D03*
D21*
X106045000Y-94615000D03*
X116840000Y-83820000D03*
X167640000Y-88900000D03*
X161798000Y-92710000D03*
D22*
X208915000Y-100330000D03*
D21*
X102870000Y-78105000D03*
X97790000Y-80645000D03*
X211455000Y-97790000D03*
X116840000Y-88900000D03*
X92710000Y-95885000D03*
X222885000Y-103505000D03*
X189230000Y-90170000D03*
X97790000Y-78105000D03*
X91440000Y-96520000D03*
X121920000Y-93980000D03*
X137160000Y-83820000D03*
X104140000Y-99060000D03*
D22*
X107950000Y-95885000D03*
D21*
X198120000Y-81280000D03*
X161798000Y-95250000D03*
D22*
X211455000Y-85090000D03*
D21*
X104140000Y-77470000D03*
X159258000Y-105410000D03*
X216535000Y-85090000D03*
X132080000Y-83820000D03*
X108585000Y-89535000D03*
X162560000Y-76200000D03*
X96520000Y-77470000D03*
X111760000Y-83820000D03*
X102870000Y-98425000D03*
X221615000Y-82550000D03*
X182880000Y-76200000D03*
X152400000Y-76200000D03*
X208280000Y-99060000D03*
X89027000Y-85725000D03*
X96520000Y-96520000D03*
X107950000Y-90805000D03*
X167640000Y-83820000D03*
X161798000Y-102870000D03*
X222885000Y-100965000D03*
X172720000Y-88900000D03*
X225425000Y-81915000D03*
X172720000Y-83820000D03*
X157480000Y-83820000D03*
X162560000Y-88900000D03*
D22*
X211455000Y-82550000D03*
D21*
X177800000Y-76200000D03*
X208915000Y-97790000D03*
X222758000Y-107950000D03*
X108585000Y-86995000D03*
X211455000Y-92710000D03*
X200025000Y-102870000D03*
X204978000Y-107950000D03*
X189230000Y-99060000D03*
X191770000Y-105410000D03*
X222885000Y-81915000D03*
X106045000Y-89535000D03*
X212725000Y-103505000D03*
X196850000Y-87630000D03*
X225425000Y-84455000D03*
X139700000Y-101600000D03*
X216535000Y-82550000D03*
X100330000Y-95885000D03*
X95250000Y-78105000D03*
X191770000Y-107950000D03*
D22*
X105410000Y-80645000D03*
D21*
X189230000Y-85090000D03*
X208280000Y-91440000D03*
X227838000Y-105410000D03*
X137160000Y-76200000D03*
X102870000Y-95885000D03*
X116840000Y-76200000D03*
X164338000Y-107950000D03*
X212725000Y-84455000D03*
X127000000Y-83820000D03*
X89027000Y-83185000D03*
X217805000Y-84455000D03*
X108585000Y-81915000D03*
X108585000Y-84455000D03*
X208280000Y-96520000D03*
X127000000Y-88900000D03*
X189230000Y-93980000D03*
X111760000Y-88900000D03*
X121920000Y-83820000D03*
X93980000Y-80010000D03*
X213995000Y-85090000D03*
X142240000Y-93980000D03*
D22*
X208915000Y-85090000D03*
D21*
X189230000Y-106680000D03*
X210058000Y-107950000D03*
D22*
X105410000Y-98425000D03*
X90170000Y-95885000D03*
D21*
X99060000Y-99060000D03*
X227838000Y-87630000D03*
X208280000Y-88900000D03*
X221615000Y-85090000D03*
X142240000Y-99060000D03*
X147320000Y-93980000D03*
X196850000Y-85090000D03*
X227838000Y-95250000D03*
X220218000Y-107950000D03*
X89027000Y-88265000D03*
X210820000Y-93980000D03*
X108585000Y-92075000D03*
X142240000Y-76200000D03*
X208280000Y-93980000D03*
X213995000Y-100330000D03*
X104140000Y-96520000D03*
X144780000Y-101600000D03*
X102870000Y-80645000D03*
X189230000Y-87630000D03*
X132080000Y-93980000D03*
X208280000Y-86360000D03*
X99060000Y-96520000D03*
X222885000Y-84455000D03*
X203200000Y-76200000D03*
X210820000Y-99060000D03*
X189230000Y-96520000D03*
X101600000Y-99060000D03*
X225298000Y-107950000D03*
X106045000Y-92075000D03*
X213995000Y-82550000D03*
X212725000Y-100965000D03*
X106680000Y-76200000D03*
X121920000Y-76200000D03*
X89027000Y-93345000D03*
X215138000Y-107950000D03*
X217805000Y-100965000D03*
X219075000Y-85090000D03*
X167640000Y-76200000D03*
X108585000Y-94615000D03*
X217805000Y-103505000D03*
X95250000Y-98425000D03*
X89027000Y-90805000D03*
X106045000Y-86995000D03*
D22*
X211455000Y-102870000D03*
D21*
X97790000Y-98425000D03*
X106680000Y-99060000D03*
X203200000Y-81280000D03*
X99060000Y-77470000D03*
X189230000Y-91440000D03*
X221615000Y-102870000D03*
X152400000Y-83820000D03*
X213360000Y-76200000D03*
X99060000Y-80010000D03*
X100330000Y-80645000D03*
X212598000Y-107950000D03*
X219075000Y-100330000D03*
X208915000Y-92710000D03*
X191770000Y-100330000D03*
X111760000Y-93980000D03*
X191770000Y-102870000D03*
D22*
X105410000Y-95885000D03*
D21*
X225425000Y-103505000D03*
X92710000Y-98425000D03*
X161798000Y-97790000D03*
X200025000Y-100330000D03*
D22*
X105410000Y-78105000D03*
D21*
X132080000Y-76200000D03*
X161798000Y-100330000D03*
X198120000Y-76200000D03*
X157480000Y-88900000D03*
X107950000Y-83185000D03*
X161798000Y-105410000D03*
%TO.N,Motor_Out-*%
X195580000Y-139700000D03*
X213995000Y-116840000D03*
X220345000Y-135255000D03*
D22*
X211455000Y-134620000D03*
D21*
X208915000Y-132080000D03*
X136652000Y-122682000D03*
X144272000Y-120650000D03*
X208280000Y-130810000D03*
X198120000Y-132080000D03*
X216535000Y-119380000D03*
X147828000Y-122682000D03*
X198120000Y-137160000D03*
X225425000Y-116205000D03*
X208280000Y-137160000D03*
X194818000Y-116840000D03*
X210058000Y-111760000D03*
X210820000Y-120650000D03*
X189230000Y-119380000D03*
X216535000Y-116840000D03*
X199390000Y-119380000D03*
X210820000Y-123190000D03*
X213995000Y-134620000D03*
X208915000Y-129540000D03*
X217805000Y-118745000D03*
X225298000Y-111760000D03*
X212725000Y-135255000D03*
X227838000Y-121920000D03*
X217805000Y-135255000D03*
X221615000Y-119380000D03*
D22*
X146050000Y-121920000D03*
D21*
X210820000Y-125730000D03*
X199390000Y-111760000D03*
X199390000Y-121920000D03*
D22*
X208915000Y-134620000D03*
D21*
X215265000Y-135255000D03*
X222885000Y-118745000D03*
X224155000Y-137160000D03*
X203200000Y-137160000D03*
X212598000Y-111760000D03*
X143256000Y-120650000D03*
X222758000Y-111760000D03*
X203200000Y-144780000D03*
X219075000Y-116840000D03*
X147828000Y-120650000D03*
X222885000Y-137795000D03*
X225425000Y-137795000D03*
X222885000Y-135255000D03*
X213995000Y-119380000D03*
X138176000Y-123698000D03*
X146812000Y-120650000D03*
X187960000Y-140335000D03*
X191770000Y-119380000D03*
X225425000Y-118745000D03*
X219075000Y-137160000D03*
X227838000Y-129540000D03*
X210820000Y-133350000D03*
X216535000Y-134620000D03*
X220345000Y-137795000D03*
X212725000Y-118745000D03*
X227838000Y-124460000D03*
X189230000Y-130810000D03*
X224155000Y-134620000D03*
X211455000Y-129540000D03*
X189230000Y-128270000D03*
X203200000Y-142240000D03*
D22*
X211455000Y-116840000D03*
D21*
X139700000Y-123698000D03*
X221615000Y-134620000D03*
X189230000Y-116840000D03*
X208280000Y-142240000D03*
D22*
X208915000Y-119380000D03*
D21*
X189230000Y-123190000D03*
X210820000Y-128270000D03*
X210820000Y-130810000D03*
X189230000Y-134620000D03*
X198120000Y-144780000D03*
X218440000Y-144780000D03*
X219075000Y-119380000D03*
X217805000Y-137795000D03*
X211455000Y-121920000D03*
X208915000Y-127000000D03*
X227838000Y-132080000D03*
D22*
X226695000Y-137160000D03*
D21*
X191770000Y-116840000D03*
X213360000Y-144780000D03*
X204978000Y-111760000D03*
X193040000Y-144780000D03*
X147828000Y-123698000D03*
X141224000Y-122682000D03*
D22*
X226695000Y-116840000D03*
D21*
X211455000Y-124460000D03*
X136652000Y-123698000D03*
X199390000Y-114300000D03*
X194818000Y-114300000D03*
X215900000Y-139700000D03*
X220980000Y-139700000D03*
X194818000Y-111760000D03*
X189230000Y-125730000D03*
X143256000Y-121666000D03*
X211455000Y-127000000D03*
X217678000Y-111760000D03*
X212725000Y-137795000D03*
X194818000Y-119380000D03*
X208280000Y-133350000D03*
X225425000Y-135255000D03*
X208915000Y-124460000D03*
X213995000Y-137160000D03*
X208280000Y-125730000D03*
X193040000Y-142240000D03*
X219075000Y-134620000D03*
X218440000Y-142240000D03*
X146812000Y-123698000D03*
X222885000Y-116205000D03*
X228002594Y-111783457D03*
X189230000Y-111760000D03*
X194818000Y-121920000D03*
X227838000Y-114300000D03*
X202602594Y-111783457D03*
X147828000Y-121666000D03*
X213360000Y-142240000D03*
X216535000Y-137160000D03*
X187960000Y-142240000D03*
X212725000Y-116205000D03*
X141224000Y-123698000D03*
X205740000Y-139700000D03*
D22*
X226695000Y-134620000D03*
D21*
X136652000Y-121666000D03*
X145288000Y-123698000D03*
X224155000Y-119380000D03*
X208280000Y-144780000D03*
X220345000Y-118745000D03*
X200660000Y-134620000D03*
X215302594Y-111783457D03*
X200660000Y-139700000D03*
X208280000Y-128270000D03*
X221615000Y-116840000D03*
X136652000Y-120806400D03*
X220218000Y-111760000D03*
X210820000Y-139700000D03*
X189230000Y-114300000D03*
X208280000Y-123190000D03*
X208280000Y-120650000D03*
D22*
X226695000Y-119380000D03*
D21*
X211455000Y-132080000D03*
X199390000Y-116840000D03*
X215265000Y-137795000D03*
X187960000Y-144780000D03*
X224155000Y-116840000D03*
X227838000Y-127000000D03*
D22*
X138430000Y-121920000D03*
X211455000Y-137160000D03*
D21*
X221615000Y-137160000D03*
X220345000Y-116205000D03*
X208915000Y-121920000D03*
X205740000Y-134620000D03*
X215265000Y-116205000D03*
X215265000Y-118745000D03*
X217805000Y-116205000D03*
X145288000Y-120650000D03*
X191770000Y-111760000D03*
X207518000Y-111760000D03*
D22*
X211455000Y-119380000D03*
D21*
X191770000Y-114300000D03*
X144272000Y-122682000D03*
X198120000Y-142240000D03*
%TO.N,Net-(C5-Pad2)*%
X128905000Y-126877200D03*
X128905000Y-118110000D03*
%TO.N,/Power & Signals/SCL*%
X106680000Y-104444800D03*
X194056000Y-92710000D03*
X194056000Y-126238000D03*
%TO.N,/Power & Signals/Motor PWM1*%
X102870000Y-121666000D03*
%TO.N,/Power & Signals/Motor Driver ENBL*%
X91567000Y-121793000D03*
%TO.N,/Power & Signals/Motor PWM2*%
X97155000Y-121920000D03*
%TO.N,/Power & Signals/SDA*%
X192405000Y-124206000D03*
X194818000Y-124968000D03*
X194056000Y-91440000D03*
X107621700Y-101928300D03*
%TO.N,/Power & Signals/TempFault1*%
X127914400Y-135382000D03*
X194056000Y-93980000D03*
%TO.N,/Power & Signals/TempFault2*%
X127863600Y-136906000D03*
X195326000Y-126492000D03*
%TO.N,Net-(D13-K)*%
X124155200Y-139344400D03*
%TO.N,Net-(D14-K)*%
X124104400Y-138125200D03*
%TO.N,Net-(U2-DT)*%
X125730000Y-128270000D03*
X126730800Y-124460000D03*
%TO.N,Net-(D8-A)*%
X111150400Y-133604000D03*
%TO.N,Net-(D9-A)*%
X113080800Y-133604000D03*
%TO.N,Net-(D10-A)*%
X115062000Y-133604000D03*
%TO.N,Net-(D11-A)*%
X116883400Y-133604000D03*
%TO.N,Net-(D12-A)*%
X118830600Y-133604000D03*
%TD*%
D23*
%TO.N,+5V*%
X112928400Y-128117600D02*
X112928400Y-129184400D01*
X112928400Y-129184400D02*
X113080800Y-129336800D01*
%TO.N,+12V*%
X111159800Y-125441518D02*
X111159800Y-129353100D01*
X112141318Y-124460000D02*
X111159800Y-125441518D01*
D24*
%TO.N,Motor_Out-*%
X181076600Y-121386600D02*
X180848000Y-121158000D01*
X186756400Y-121386600D02*
X181076600Y-121386600D01*
X186604000Y-101290000D02*
X186548000Y-101346000D01*
X186548000Y-101346000D02*
X181610000Y-101346000D01*
D23*
%TO.N,Net-(C5-Pad2)*%
X128905000Y-126877200D02*
X128905000Y-118110000D01*
D25*
%TO.N,/Power & Signals/Motor PWM1*%
X102870000Y-121666000D02*
X114046000Y-121666000D01*
X114046000Y-121666000D02*
X116883400Y-124503400D01*
X116883400Y-124503400D02*
X116883400Y-129340300D01*
%TO.N,/Power & Signals/Motor Driver ENBL*%
X93218000Y-123444000D02*
X91567000Y-121793000D01*
X113665000Y-123444000D02*
X93218000Y-123444000D01*
X115028400Y-129353100D02*
X115028400Y-124807400D01*
X115028400Y-124807400D02*
X113665000Y-123444000D01*
%TO.N,/Power & Signals/Motor PWM2*%
X100584000Y-121920000D02*
X101600000Y-120904000D01*
X114133942Y-120904000D02*
X118830600Y-125600658D01*
X100584000Y-121920000D02*
X97155000Y-121920000D01*
X118830600Y-125600658D02*
X118830600Y-129374700D01*
X101600000Y-120904000D02*
X114133942Y-120904000D01*
%TO.N,/Power & Signals/TempFault1*%
X124221942Y-128502800D02*
X127914400Y-132195258D01*
X120599200Y-129340600D02*
X121437000Y-128502800D01*
X127914400Y-132195258D02*
X127914400Y-135382000D01*
X121437000Y-128502800D02*
X124221942Y-128502800D01*
%TO.N,/Power & Signals/TempFault2*%
X125831600Y-130962400D02*
X125831600Y-135940800D01*
X122504200Y-129391300D02*
X124260500Y-129391300D01*
X124260500Y-129391300D02*
X125831600Y-130962400D01*
X125831600Y-135940800D02*
X126796800Y-136906000D01*
X126796800Y-136906000D02*
X127863600Y-136906000D01*
D23*
%TO.N,Net-(D13-K)*%
X121615200Y-139344400D02*
X120599200Y-138328400D01*
X124155200Y-139344400D02*
X121615200Y-139344400D01*
X120599200Y-138328400D02*
X120599200Y-131165600D01*
%TO.N,Net-(D14-K)*%
X124104400Y-138125200D02*
X124104400Y-135229600D01*
X122504200Y-133629400D02*
X122504200Y-131216300D01*
X124104400Y-135229600D02*
X122504200Y-133629400D01*
%TO.N,Net-(U2-DT)*%
X125730000Y-128270000D02*
X125730000Y-125460800D01*
X125730000Y-125460800D02*
X126730800Y-124460000D01*
%TO.N,Net-(D8-A)*%
X111159800Y-133594600D02*
X111159800Y-131178100D01*
X111150400Y-133604000D02*
X111159800Y-133594600D01*
%TO.N,Net-(D9-A)*%
X113080800Y-133604000D02*
X113080800Y-131161800D01*
%TO.N,Net-(D10-A)*%
X115028400Y-133570400D02*
X115028400Y-131178100D01*
X115062000Y-133604000D02*
X115028400Y-133570400D01*
%TO.N,Net-(D11-A)*%
X116883400Y-133604000D02*
X116883400Y-131165300D01*
%TO.N,Net-(D12-A)*%
X118830600Y-131199700D02*
X118830600Y-133604000D01*
%TD*%
%TA.AperFunction,Conductor*%
%TO.N,GND*%
G36*
X185767158Y-109996332D02*
G01*
X185834150Y-110016164D01*
X185879789Y-110069069D01*
X185889580Y-110138249D01*
X185888328Y-110144479D01*
X185888380Y-110144489D01*
X185887584Y-110148845D01*
X185887584Y-110148848D01*
X185869987Y-110309302D01*
X185865404Y-110351088D01*
X185814811Y-116760671D01*
X185814810Y-116776250D01*
X185836923Y-116978479D01*
X185836924Y-116978486D01*
X185848121Y-117030952D01*
X185848124Y-117030966D01*
X185858462Y-117069914D01*
X185873492Y-117126538D01*
X185900521Y-117188730D01*
X185914187Y-117220176D01*
X185922854Y-117289506D01*
X185892663Y-117352516D01*
X185833198Y-117389201D01*
X185800463Y-117393600D01*
X185708530Y-117393600D01*
X185708523Y-117393601D01*
X185648916Y-117400008D01*
X185514071Y-117450302D01*
X185514064Y-117450306D01*
X185398855Y-117536552D01*
X185398852Y-117536555D01*
X185312606Y-117651764D01*
X185312602Y-117651771D01*
X185262308Y-117786617D01*
X185255901Y-117846216D01*
X185255900Y-117846235D01*
X185255901Y-119512100D01*
X185236216Y-119579139D01*
X185183413Y-119624894D01*
X185131901Y-119636100D01*
X182406398Y-119636100D01*
X182339359Y-119616415D01*
X182293604Y-119563611D01*
X182285621Y-119540188D01*
X182265372Y-119453119D01*
X182125932Y-118853528D01*
X182098533Y-118778437D01*
X182015608Y-118660806D01*
X181993312Y-118643100D01*
X181902906Y-118571306D01*
X181902898Y-118571301D01*
X181769549Y-118517179D01*
X181769541Y-118517177D01*
X181724697Y-118511708D01*
X181690198Y-118507500D01*
X180005803Y-118507500D01*
X179958194Y-118513307D01*
X179926452Y-118517179D01*
X179793103Y-118571300D01*
X179793093Y-118571306D01*
X179680393Y-118660805D01*
X179680392Y-118660807D01*
X179597467Y-118778437D01*
X179570068Y-118853529D01*
X179570067Y-118853531D01*
X178547984Y-123248481D01*
X178542816Y-123286338D01*
X178557178Y-123429545D01*
X178611301Y-123562898D01*
X178611306Y-123562906D01*
X178700805Y-123675607D01*
X178700806Y-123675608D01*
X178818437Y-123758533D01*
X178954666Y-123804958D01*
X178989019Y-123808156D01*
X178992701Y-123808499D01*
X178992703Y-123808499D01*
X178992713Y-123808500D01*
X178992723Y-123808500D01*
X182703287Y-123808500D01*
X182703294Y-123808500D01*
X182741334Y-123804958D01*
X182877563Y-123758533D01*
X182995194Y-123675607D01*
X183084697Y-123562901D01*
X183138821Y-123429544D01*
X183153183Y-123286340D01*
X183152027Y-123277871D01*
X183162464Y-123208785D01*
X183208595Y-123156309D01*
X183274888Y-123137100D01*
X186871127Y-123137100D01*
X186871134Y-123137100D01*
X187098638Y-123107148D01*
X187172605Y-123087328D01*
X187203278Y-123088058D01*
X187233930Y-123086598D01*
X187239746Y-123088926D01*
X187242453Y-123088991D01*
X187266689Y-123099712D01*
X187324393Y-123133027D01*
X187337869Y-123142032D01*
X187423530Y-123207763D01*
X187435724Y-123218457D01*
X187512045Y-123294778D01*
X187522739Y-123306972D01*
X187588460Y-123392620D01*
X187597472Y-123406108D01*
X187651442Y-123499588D01*
X187658616Y-123514135D01*
X187699930Y-123613878D01*
X187705144Y-123629236D01*
X187733083Y-123733503D01*
X187736247Y-123749411D01*
X187750339Y-123856443D01*
X187751400Y-123872629D01*
X187751400Y-123980568D01*
X187750339Y-123996755D01*
X187736246Y-124103790D01*
X187733082Y-124119695D01*
X187716180Y-124182778D01*
X187716179Y-124182781D01*
X187705143Y-124223966D01*
X187699930Y-124239323D01*
X187658619Y-124339058D01*
X187651444Y-124353607D01*
X187597465Y-124447099D01*
X187588455Y-124460584D01*
X187522746Y-124546218D01*
X187512051Y-124558413D01*
X187435716Y-124634748D01*
X187423522Y-124645443D01*
X187337885Y-124711155D01*
X187324428Y-124720149D01*
X187321771Y-124721684D01*
X187321717Y-124721713D01*
X187321718Y-124721714D01*
X187260590Y-124757006D01*
X187230902Y-124774147D01*
X187216358Y-124781319D01*
X187116623Y-124822630D01*
X187101264Y-124827844D01*
X186996994Y-124855783D01*
X186981087Y-124858947D01*
X186871856Y-124873328D01*
X186866444Y-124873836D01*
X186661539Y-124896242D01*
X186661535Y-124896242D01*
X186610905Y-124907048D01*
X186522919Y-124930031D01*
X186335695Y-125009647D01*
X186335690Y-125009649D01*
X186168340Y-125125313D01*
X186168327Y-125125323D01*
X186115172Y-125170652D01*
X186115164Y-125170659D01*
X185997825Y-125288852D01*
X185997818Y-125288860D01*
X185883363Y-125457053D01*
X185883361Y-125457058D01*
X185805101Y-125644859D01*
X185784891Y-125711732D01*
X185764107Y-125792447D01*
X185741927Y-125994687D01*
X185740190Y-126214780D01*
X185726997Y-127886066D01*
X185726996Y-127901643D01*
X185748071Y-128094378D01*
X185748072Y-128094383D01*
X185748123Y-128094846D01*
X185749112Y-128103887D01*
X185749113Y-128103894D01*
X185760310Y-128156358D01*
X185760311Y-128156366D01*
X185785029Y-128249489D01*
X185785679Y-128251938D01*
X185810815Y-128309774D01*
X185826374Y-128345576D01*
X185835041Y-128414906D01*
X185804850Y-128477916D01*
X185745385Y-128514601D01*
X185712651Y-128519000D01*
X185650130Y-128519000D01*
X185650123Y-128519001D01*
X185590516Y-128525408D01*
X185455671Y-128575702D01*
X185455664Y-128575706D01*
X185340455Y-128661952D01*
X185340452Y-128661955D01*
X185254206Y-128777164D01*
X185254202Y-128777171D01*
X185203908Y-128912017D01*
X185197501Y-128971616D01*
X185197500Y-128971635D01*
X185197500Y-130972370D01*
X185197501Y-130972376D01*
X185203908Y-131031983D01*
X185254202Y-131166828D01*
X185254206Y-131166835D01*
X185340452Y-131282044D01*
X185340455Y-131282047D01*
X185455664Y-131368293D01*
X185455669Y-131368296D01*
X185483539Y-131378690D01*
X185539473Y-131420561D01*
X185563891Y-131486024D01*
X185549040Y-131554298D01*
X185540525Y-131567759D01*
X185407783Y-131750461D01*
X185303950Y-131954244D01*
X185233278Y-132171750D01*
X185233278Y-132171753D01*
X185197500Y-132397646D01*
X185197500Y-132626353D01*
X185233278Y-132852246D01*
X185233278Y-132852249D01*
X185303950Y-133069755D01*
X185375300Y-133209786D01*
X185407783Y-133273538D01*
X185542214Y-133458566D01*
X185703934Y-133620286D01*
X185888962Y-133754717D01*
X186092742Y-133858548D01*
X186119795Y-133867337D01*
X186150424Y-133882204D01*
X186277629Y-133967308D01*
X186466036Y-134044083D01*
X186466042Y-134044085D01*
X186481052Y-134048492D01*
X186533075Y-134063768D01*
X186613959Y-134083917D01*
X186776065Y-134100401D01*
X186779707Y-134100826D01*
X186922682Y-134119650D01*
X186938589Y-134122814D01*
X186969955Y-134131218D01*
X187042869Y-134150755D01*
X187058220Y-134155966D01*
X187157963Y-134197281D01*
X187172504Y-134204451D01*
X187265993Y-134258427D01*
X187279469Y-134267432D01*
X187365130Y-134333163D01*
X187377324Y-134343857D01*
X187453645Y-134420178D01*
X187464339Y-134432372D01*
X187530060Y-134518020D01*
X187539072Y-134531508D01*
X187593042Y-134624988D01*
X187600216Y-134639535D01*
X187641530Y-134739278D01*
X187646744Y-134754636D01*
X187674683Y-134858903D01*
X187677847Y-134874811D01*
X187691939Y-134981843D01*
X187693000Y-134998029D01*
X187693000Y-135105969D01*
X187691939Y-135122155D01*
X187677847Y-135229187D01*
X187674683Y-135245094D01*
X187646744Y-135349364D01*
X187641530Y-135364723D01*
X187600219Y-135464458D01*
X187593044Y-135479007D01*
X187539065Y-135572499D01*
X187530055Y-135585984D01*
X187464346Y-135671618D01*
X187453651Y-135683813D01*
X187377313Y-135760151D01*
X187365118Y-135770846D01*
X187279484Y-135836555D01*
X187265999Y-135845565D01*
X187172507Y-135899544D01*
X187157958Y-135906719D01*
X187058223Y-135948030D01*
X187042864Y-135953244D01*
X186938594Y-135981183D01*
X186922688Y-135984347D01*
X186869173Y-135991393D01*
X186815655Y-135998439D01*
X186799471Y-135999500D01*
X186783546Y-135999500D01*
X186775956Y-135999528D01*
X186573723Y-136021642D01*
X186573721Y-136021642D01*
X186523091Y-136032448D01*
X186435105Y-136055431D01*
X186247881Y-136135047D01*
X186247876Y-136135049D01*
X186080526Y-136250713D01*
X186080513Y-136250723D01*
X186027358Y-136296052D01*
X186027350Y-136296059D01*
X185910011Y-136414252D01*
X185910004Y-136414260D01*
X185795549Y-136582453D01*
X185795547Y-136582458D01*
X185717287Y-136770259D01*
X185697077Y-136837132D01*
X185676293Y-136917847D01*
X185676293Y-136917848D01*
X185654113Y-137120085D01*
X185642847Y-138547313D01*
X185613333Y-142286488D01*
X185612750Y-142360323D01*
X185586615Y-145671366D01*
X185586615Y-145680313D01*
X185566923Y-145747351D01*
X185514114Y-145793100D01*
X185462615Y-145804300D01*
X101952600Y-145804300D01*
X101885561Y-145784615D01*
X101839806Y-145731811D01*
X101828600Y-145680300D01*
X101828600Y-143740600D01*
X95478600Y-143740600D01*
X95478600Y-145680300D01*
X95458915Y-145747339D01*
X95406111Y-145793094D01*
X95354600Y-145804300D01*
X87862700Y-145804300D01*
X87795661Y-145784615D01*
X87749906Y-145731811D01*
X87738700Y-145680300D01*
X87738700Y-142294424D01*
X90038500Y-142294424D01*
X90038500Y-142537001D01*
X90070161Y-142777498D01*
X90132947Y-143011817D01*
X90149750Y-143052382D01*
X90225776Y-143235925D01*
X90347064Y-143446002D01*
X90347066Y-143446005D01*
X90347067Y-143446006D01*
X90494733Y-143638449D01*
X90494739Y-143638456D01*
X90666256Y-143809973D01*
X90666262Y-143809978D01*
X90858711Y-143957649D01*
X91068788Y-144078937D01*
X91292900Y-144171767D01*
X91527211Y-144234551D01*
X91707586Y-144258297D01*
X91767711Y-144266213D01*
X91767712Y-144266213D01*
X92010289Y-144266213D01*
X92058388Y-144259880D01*
X92250789Y-144234551D01*
X92485100Y-144171767D01*
X92709212Y-144078937D01*
X92919289Y-143957649D01*
X93111738Y-143809978D01*
X93283265Y-143638451D01*
X93430936Y-143446002D01*
X93552224Y-143235925D01*
X93645054Y-143011813D01*
X93707838Y-142777502D01*
X93739500Y-142537001D01*
X93739500Y-142294425D01*
X93707838Y-142053924D01*
X93645054Y-141819613D01*
X93552224Y-141595501D01*
X93430936Y-141385424D01*
X93283265Y-141192975D01*
X93283260Y-141192969D01*
X93111743Y-141021452D01*
X93111736Y-141021446D01*
X92919293Y-140873780D01*
X92919292Y-140873779D01*
X92919289Y-140873777D01*
X92709212Y-140752489D01*
X92709205Y-140752486D01*
X92485104Y-140659660D01*
X92250785Y-140596874D01*
X92010289Y-140565213D01*
X92010288Y-140565213D01*
X91767712Y-140565213D01*
X91767711Y-140565213D01*
X91527214Y-140596874D01*
X91292895Y-140659660D01*
X91068794Y-140752486D01*
X91068785Y-140752490D01*
X90858706Y-140873780D01*
X90666263Y-141021446D01*
X90666256Y-141021452D01*
X90494739Y-141192969D01*
X90494733Y-141192976D01*
X90347067Y-141385419D01*
X90225777Y-141595498D01*
X90225773Y-141595507D01*
X90132947Y-141819608D01*
X90070161Y-142053927D01*
X90038500Y-142294424D01*
X87738700Y-142294424D01*
X87738700Y-121714153D01*
X90766500Y-121714153D01*
X90766500Y-121871846D01*
X90797261Y-122026489D01*
X90797264Y-122026501D01*
X90857602Y-122172172D01*
X90857609Y-122172185D01*
X90945210Y-122303288D01*
X90945213Y-122303292D01*
X91056707Y-122414786D01*
X91056711Y-122414789D01*
X91187814Y-122502390D01*
X91187827Y-122502397D01*
X91332185Y-122562191D01*
X91372414Y-122589071D01*
X92771453Y-123988111D01*
X92771454Y-123988112D01*
X92886192Y-124064777D01*
X92999831Y-124111847D01*
X93013672Y-124117580D01*
X93013676Y-124117580D01*
X93013677Y-124117581D01*
X93149003Y-124144500D01*
X93149006Y-124144500D01*
X93149007Y-124144500D01*
X111096088Y-124144500D01*
X111163127Y-124164185D01*
X111208882Y-124216989D01*
X111218826Y-124286147D01*
X111189801Y-124349703D01*
X111183769Y-124356181D01*
X110576850Y-124963099D01*
X110576844Y-124963107D01*
X110538425Y-125020605D01*
X110538426Y-125020606D01*
X110494713Y-125086026D01*
X110438143Y-125222600D01*
X110438140Y-125222610D01*
X110409300Y-125367597D01*
X110409300Y-128521048D01*
X110389615Y-128588087D01*
X110372981Y-128608729D01*
X110339461Y-128642248D01*
X110248893Y-128789081D01*
X110248891Y-128789086D01*
X110239807Y-128816500D01*
X110194626Y-128952847D01*
X110194626Y-128952848D01*
X110194625Y-128952848D01*
X110184300Y-129053915D01*
X110184300Y-129652269D01*
X110184301Y-129652287D01*
X110194625Y-129753352D01*
X110211558Y-129804450D01*
X110244650Y-129904316D01*
X110248892Y-129917115D01*
X110248893Y-129917118D01*
X110272454Y-129955316D01*
X110339459Y-130063949D01*
X110339461Y-130063951D01*
X110453429Y-130177919D01*
X110486914Y-130239242D01*
X110481930Y-130308934D01*
X110453429Y-130353281D01*
X110339461Y-130467248D01*
X110248893Y-130614081D01*
X110248892Y-130614084D01*
X110194626Y-130777847D01*
X110194626Y-130777848D01*
X110194625Y-130777848D01*
X110184300Y-130878915D01*
X110184300Y-131477269D01*
X110184301Y-131477287D01*
X110194625Y-131578352D01*
X110218647Y-131650844D01*
X110244650Y-131729316D01*
X110248892Y-131742115D01*
X110248893Y-131742118D01*
X110272452Y-131780313D01*
X110339459Y-131888949D01*
X110339461Y-131888951D01*
X110372981Y-131922471D01*
X110406466Y-131983794D01*
X110409300Y-132010152D01*
X110409300Y-133276702D01*
X110399862Y-133324149D01*
X110380663Y-133370503D01*
X110380662Y-133370507D01*
X110380661Y-133370510D01*
X110380660Y-133370511D01*
X110349900Y-133525153D01*
X110349900Y-133682846D01*
X110380661Y-133837489D01*
X110380664Y-133837501D01*
X110441002Y-133983172D01*
X110441009Y-133983185D01*
X110528610Y-134114288D01*
X110528613Y-134114292D01*
X110640107Y-134225786D01*
X110640111Y-134225789D01*
X110771214Y-134313390D01*
X110771227Y-134313397D01*
X110916898Y-134373735D01*
X110916903Y-134373737D01*
X111071553Y-134404499D01*
X111071556Y-134404500D01*
X111071558Y-134404500D01*
X111229244Y-134404500D01*
X111229245Y-134404499D01*
X111383897Y-134373737D01*
X111529579Y-134313394D01*
X111660689Y-134225789D01*
X111772189Y-134114289D01*
X111859794Y-133983179D01*
X111920137Y-133837497D01*
X111950900Y-133682842D01*
X111950900Y-133525158D01*
X111950900Y-133525155D01*
X111950899Y-133525153D01*
X111920139Y-133370511D01*
X111920138Y-133370508D01*
X111920137Y-133370503D01*
X111919736Y-133369536D01*
X111919678Y-133368991D01*
X111918370Y-133364680D01*
X111919188Y-133364431D01*
X111917229Y-133346206D01*
X111910300Y-133322090D01*
X111910300Y-132010152D01*
X111929985Y-131943113D01*
X111946619Y-131922471D01*
X111962919Y-131906171D01*
X111980140Y-131888950D01*
X112019789Y-131824667D01*
X112071734Y-131777945D01*
X112140696Y-131766722D01*
X112204779Y-131794565D01*
X112230864Y-131824668D01*
X112260459Y-131872649D01*
X112293981Y-131906171D01*
X112327466Y-131967494D01*
X112330300Y-131993852D01*
X112330300Y-133299396D01*
X112330128Y-133300255D01*
X112330292Y-133300836D01*
X112329497Y-133303428D01*
X112320862Y-133346844D01*
X112311064Y-133370501D01*
X112311062Y-133370506D01*
X112311060Y-133370511D01*
X112280300Y-133525153D01*
X112280300Y-133682846D01*
X112311061Y-133837489D01*
X112311064Y-133837501D01*
X112371402Y-133983172D01*
X112371409Y-133983185D01*
X112459010Y-134114288D01*
X112459013Y-134114292D01*
X112570507Y-134225786D01*
X112570511Y-134225789D01*
X112701614Y-134313390D01*
X112701627Y-134313397D01*
X112847298Y-134373735D01*
X112847303Y-134373737D01*
X113001953Y-134404499D01*
X113001956Y-134404500D01*
X113001958Y-134404500D01*
X113159644Y-134404500D01*
X113159645Y-134404499D01*
X113314297Y-134373737D01*
X113459979Y-134313394D01*
X113591089Y-134225789D01*
X113702589Y-134114289D01*
X113790194Y-133983179D01*
X113850537Y-133837497D01*
X113881300Y-133682842D01*
X113881300Y-133525158D01*
X113881300Y-133525155D01*
X113881299Y-133525153D01*
X113850539Y-133370511D01*
X113850538Y-133370508D01*
X113850537Y-133370503D01*
X113840737Y-133346845D01*
X113840136Y-133341252D01*
X113831300Y-133299396D01*
X113831300Y-131993852D01*
X113850985Y-131926813D01*
X113867619Y-131906171D01*
X113882804Y-131890986D01*
X113901140Y-131872650D01*
X113944035Y-131803105D01*
X113995982Y-131756382D01*
X114064944Y-131745159D01*
X114129026Y-131773002D01*
X114155110Y-131803105D01*
X114176736Y-131838165D01*
X114208059Y-131888949D01*
X114241581Y-131922471D01*
X114275066Y-131983794D01*
X114277900Y-132010152D01*
X114277900Y-133430498D01*
X114276184Y-133447914D01*
X114276412Y-133449649D01*
X114275908Y-133450716D01*
X114275517Y-133454690D01*
X114261500Y-133525155D01*
X114261500Y-133682846D01*
X114292261Y-133837489D01*
X114292264Y-133837501D01*
X114352602Y-133983172D01*
X114352609Y-133983185D01*
X114440210Y-134114288D01*
X114440213Y-134114292D01*
X114551707Y-134225786D01*
X114551711Y-134225789D01*
X114682814Y-134313390D01*
X114682827Y-134313397D01*
X114828498Y-134373735D01*
X114828503Y-134373737D01*
X114983153Y-134404499D01*
X114983156Y-134404500D01*
X114983158Y-134404500D01*
X115140844Y-134404500D01*
X115140845Y-134404499D01*
X115295497Y-134373737D01*
X115441179Y-134313394D01*
X115572289Y-134225789D01*
X115683789Y-134114289D01*
X115771394Y-133983179D01*
X115831737Y-133837497D01*
X115848203Y-133754717D01*
X115851083Y-133740241D01*
X115883468Y-133678330D01*
X115944183Y-133643756D01*
X116013953Y-133647495D01*
X116070625Y-133688362D01*
X116094317Y-133740241D01*
X116113661Y-133837489D01*
X116113664Y-133837501D01*
X116174002Y-133983172D01*
X116174009Y-133983185D01*
X116261610Y-134114288D01*
X116261613Y-134114292D01*
X116373107Y-134225786D01*
X116373111Y-134225789D01*
X116504214Y-134313390D01*
X116504227Y-134313397D01*
X116649898Y-134373735D01*
X116649903Y-134373737D01*
X116804553Y-134404499D01*
X116804556Y-134404500D01*
X116804558Y-134404500D01*
X116962244Y-134404500D01*
X116962245Y-134404499D01*
X117116897Y-134373737D01*
X117262579Y-134313394D01*
X117393689Y-134225789D01*
X117505189Y-134114289D01*
X117592794Y-133983179D01*
X117653137Y-133837497D01*
X117683900Y-133682842D01*
X117683900Y-133525158D01*
X117683900Y-133525155D01*
X117683899Y-133525153D01*
X117653139Y-133370511D01*
X117653138Y-133370508D01*
X117653137Y-133370503D01*
X117643337Y-133346845D01*
X117642473Y-133338806D01*
X117633900Y-133299396D01*
X117633900Y-131997352D01*
X117653585Y-131930313D01*
X117670219Y-131909671D01*
X117683920Y-131895970D01*
X117703740Y-131876150D01*
X117740853Y-131815980D01*
X117792798Y-131769257D01*
X117861760Y-131758034D01*
X117925843Y-131785877D01*
X117951928Y-131815981D01*
X118010257Y-131910546D01*
X118010260Y-131910550D01*
X118043781Y-131944071D01*
X118077266Y-132005394D01*
X118080100Y-132031752D01*
X118080100Y-133299396D01*
X118077894Y-133310483D01*
X118078838Y-133317043D01*
X118074855Y-133325763D01*
X118070662Y-133346844D01*
X118060864Y-133370501D01*
X118060862Y-133370506D01*
X118060860Y-133370511D01*
X118030100Y-133525153D01*
X118030100Y-133682846D01*
X118060861Y-133837489D01*
X118060864Y-133837501D01*
X118121202Y-133983172D01*
X118121209Y-133983185D01*
X118208810Y-134114288D01*
X118208813Y-134114292D01*
X118320307Y-134225786D01*
X118320311Y-134225789D01*
X118451414Y-134313390D01*
X118451427Y-134313397D01*
X118597098Y-134373735D01*
X118597103Y-134373737D01*
X118751753Y-134404499D01*
X118751756Y-134404500D01*
X118751758Y-134404500D01*
X118909444Y-134404500D01*
X118909445Y-134404499D01*
X119064097Y-134373737D01*
X119209779Y-134313394D01*
X119340889Y-134225789D01*
X119452389Y-134114289D01*
X119539994Y-133983179D01*
X119600337Y-133837497D01*
X119603083Y-133823694D01*
X119635467Y-133761783D01*
X119696183Y-133727209D01*
X119765952Y-133730948D01*
X119822625Y-133771814D01*
X119848206Y-133836832D01*
X119848700Y-133847885D01*
X119848700Y-138402318D01*
X119848700Y-138402320D01*
X119848699Y-138402320D01*
X119877540Y-138547307D01*
X119877543Y-138547317D01*
X119934112Y-138683888D01*
X119934116Y-138683895D01*
X119957503Y-138718896D01*
X119957504Y-138718899D01*
X119957505Y-138718899D01*
X120016251Y-138806820D01*
X120016252Y-138806821D01*
X121136784Y-139927352D01*
X121136786Y-139927354D01*
X121165189Y-139946331D01*
X121179392Y-139955821D01*
X121259705Y-140009484D01*
X121396287Y-140066058D01*
X121396291Y-140066058D01*
X121396292Y-140066059D01*
X121541279Y-140094900D01*
X121541282Y-140094900D01*
X121541283Y-140094900D01*
X121689117Y-140094900D01*
X123850596Y-140094900D01*
X123898044Y-140104337D01*
X123921703Y-140114137D01*
X123921708Y-140114138D01*
X123921711Y-140114139D01*
X124076353Y-140144899D01*
X124076356Y-140144900D01*
X124076358Y-140144900D01*
X124234044Y-140144900D01*
X124234045Y-140144899D01*
X124388697Y-140114137D01*
X124534379Y-140053794D01*
X124665489Y-139966189D01*
X124776989Y-139854689D01*
X124864594Y-139723579D01*
X124924937Y-139577897D01*
X124955700Y-139423242D01*
X124955700Y-139265558D01*
X124955700Y-139265555D01*
X124955699Y-139265553D01*
X124924938Y-139110910D01*
X124924937Y-139110903D01*
X124924935Y-139110898D01*
X124864597Y-138965227D01*
X124864590Y-138965214D01*
X124776989Y-138834111D01*
X124776986Y-138834107D01*
X124738938Y-138796059D01*
X124705453Y-138734736D01*
X124710437Y-138665044D01*
X124723517Y-138639487D01*
X124726187Y-138635490D01*
X124726189Y-138635489D01*
X124813794Y-138504379D01*
X124874137Y-138358697D01*
X124904900Y-138204042D01*
X124904900Y-138046358D01*
X124904900Y-138046355D01*
X124904899Y-138046353D01*
X124874139Y-137891711D01*
X124874138Y-137891708D01*
X124874137Y-137891703D01*
X124864337Y-137868044D01*
X124854900Y-137820596D01*
X124854900Y-135155679D01*
X124838627Y-135073874D01*
X124838627Y-135073873D01*
X124826059Y-135010688D01*
X124791861Y-134928127D01*
X124769484Y-134874105D01*
X124769482Y-134874102D01*
X124769480Y-134874098D01*
X124693383Y-134760211D01*
X124693382Y-134760209D01*
X124687353Y-134751186D01*
X124687349Y-134751181D01*
X123291019Y-133354851D01*
X123257534Y-133293528D01*
X123254700Y-133267170D01*
X123254700Y-132048352D01*
X123274385Y-131981313D01*
X123291019Y-131960671D01*
X123307619Y-131944071D01*
X123324540Y-131927150D01*
X123415108Y-131780316D01*
X123469374Y-131616553D01*
X123479700Y-131515477D01*
X123479699Y-130917124D01*
X123469374Y-130816047D01*
X123415108Y-130652284D01*
X123324540Y-130505450D01*
X123210571Y-130391481D01*
X123206232Y-130383535D01*
X123198985Y-130378110D01*
X123189750Y-130353350D01*
X123177086Y-130330158D01*
X123177731Y-130321128D01*
X123174568Y-130312646D01*
X123180184Y-130286825D01*
X123182070Y-130260466D01*
X123187888Y-130251412D01*
X123189420Y-130244373D01*
X123210571Y-130216119D01*
X123298571Y-130128119D01*
X123359894Y-130094634D01*
X123386252Y-130091800D01*
X123918981Y-130091800D01*
X123986020Y-130111485D01*
X124006662Y-130128119D01*
X125094781Y-131216238D01*
X125128266Y-131277561D01*
X125131100Y-131303919D01*
X125131100Y-135871806D01*
X125131100Y-136009794D01*
X125131100Y-136009796D01*
X125131099Y-136009796D01*
X125158018Y-136145122D01*
X125158021Y-136145132D01*
X125210822Y-136272607D01*
X125287487Y-136387345D01*
X126350254Y-137450112D01*
X126464992Y-137526777D01*
X126592467Y-137579578D01*
X126592472Y-137579580D01*
X126592476Y-137579580D01*
X126592477Y-137579581D01*
X126727803Y-137606500D01*
X126727806Y-137606500D01*
X126727807Y-137606500D01*
X127438284Y-137606500D01*
X127485736Y-137615939D01*
X127630098Y-137675735D01*
X127630103Y-137675737D01*
X127784753Y-137706499D01*
X127784756Y-137706500D01*
X127784758Y-137706500D01*
X127942444Y-137706500D01*
X127942445Y-137706499D01*
X128097097Y-137675737D01*
X128242779Y-137615394D01*
X128373889Y-137527789D01*
X128485389Y-137416289D01*
X128572994Y-137285179D01*
X128633337Y-137139497D01*
X128664100Y-136984842D01*
X128664100Y-136827158D01*
X128664100Y-136827155D01*
X128664099Y-136827153D01*
X128652782Y-136770259D01*
X128633337Y-136672503D01*
X128633335Y-136672498D01*
X128572997Y-136526827D01*
X128572990Y-136526814D01*
X128485389Y-136395711D01*
X128485386Y-136395707D01*
X128373892Y-136284213D01*
X128373886Y-136284208D01*
X128343751Y-136264072D01*
X128298946Y-136210459D01*
X128290240Y-136141134D01*
X128320396Y-136078107D01*
X128343749Y-136057871D01*
X128424689Y-136003789D01*
X128536189Y-135892289D01*
X128623794Y-135761179D01*
X128684137Y-135615497D01*
X128714900Y-135460842D01*
X128714900Y-135303158D01*
X128714900Y-135303155D01*
X128714899Y-135303153D01*
X128703350Y-135245094D01*
X128684137Y-135148503D01*
X128653225Y-135073874D01*
X128624339Y-135004136D01*
X128614900Y-134956684D01*
X128614900Y-132126262D01*
X128587981Y-131990935D01*
X128587980Y-131990934D01*
X128587980Y-131990930D01*
X128585024Y-131983794D01*
X128574369Y-131958070D01*
X128574349Y-131958023D01*
X128535178Y-131863454D01*
X128535177Y-131863453D01*
X128535175Y-131863447D01*
X128458514Y-131748715D01*
X128458512Y-131748712D01*
X128458511Y-131748711D01*
X125943427Y-129233628D01*
X125909942Y-129172305D01*
X125914926Y-129102613D01*
X125956798Y-129046680D01*
X125983647Y-129031390D01*
X126109179Y-128979394D01*
X126240289Y-128891789D01*
X126351789Y-128780289D01*
X126439394Y-128649179D01*
X126460844Y-128597391D01*
X126504684Y-128542991D01*
X126570978Y-128520925D01*
X126638677Y-128538204D01*
X126663086Y-128557165D01*
X126743707Y-128637786D01*
X126743711Y-128637789D01*
X126874814Y-128725390D01*
X126874827Y-128725397D01*
X127011394Y-128781964D01*
X127020503Y-128785737D01*
X127175153Y-128816499D01*
X127175156Y-128816500D01*
X127175158Y-128816500D01*
X127332844Y-128816500D01*
X127332845Y-128816499D01*
X127487497Y-128785737D01*
X127633179Y-128725394D01*
X127764289Y-128637789D01*
X127875789Y-128526289D01*
X127930002Y-128445153D01*
X129755500Y-128445153D01*
X129755500Y-128602846D01*
X129786261Y-128757489D01*
X129786264Y-128757501D01*
X129846602Y-128903171D01*
X129846609Y-128903184D01*
X129886650Y-128963109D01*
X129907528Y-129029787D01*
X129889043Y-129097167D01*
X129886650Y-129100891D01*
X129846609Y-129160815D01*
X129846602Y-129160828D01*
X129786264Y-129306498D01*
X129786261Y-129306510D01*
X129755500Y-129461153D01*
X129755500Y-129618846D01*
X129786261Y-129773489D01*
X129786264Y-129773501D01*
X129846602Y-129919171D01*
X129846609Y-129919184D01*
X129861669Y-129941722D01*
X129884568Y-129975994D01*
X129886650Y-129979109D01*
X129907528Y-130045787D01*
X129889043Y-130113167D01*
X129886650Y-130116891D01*
X129846609Y-130176815D01*
X129846602Y-130176828D01*
X129786264Y-130322498D01*
X129786261Y-130322510D01*
X129755500Y-130477153D01*
X129755500Y-130634846D01*
X129786261Y-130789489D01*
X129786264Y-130789501D01*
X129846602Y-130935171D01*
X129846609Y-130935184D01*
X129886650Y-130995109D01*
X129907528Y-131061787D01*
X129889043Y-131129167D01*
X129886650Y-131132891D01*
X129846609Y-131192815D01*
X129846602Y-131192828D01*
X129786264Y-131338498D01*
X129786261Y-131338510D01*
X129755500Y-131493153D01*
X129755500Y-131650846D01*
X129786261Y-131805489D01*
X129786264Y-131805501D01*
X129846602Y-131951171D01*
X129846609Y-131951184D01*
X129857507Y-131967494D01*
X129886010Y-132010152D01*
X129886650Y-132011109D01*
X129907528Y-132077787D01*
X129889043Y-132145167D01*
X129886650Y-132148891D01*
X129846609Y-132208815D01*
X129846602Y-132208828D01*
X129786264Y-132354498D01*
X129786261Y-132354510D01*
X129755500Y-132509153D01*
X129755500Y-132666846D01*
X129786261Y-132821489D01*
X129786264Y-132821501D01*
X129846602Y-132967172D01*
X129846609Y-132967185D01*
X129934210Y-133098288D01*
X129934213Y-133098292D01*
X130045707Y-133209786D01*
X130045711Y-133209789D01*
X130176814Y-133297390D01*
X130176827Y-133297397D01*
X130322498Y-133357735D01*
X130322503Y-133357737D01*
X130477153Y-133388499D01*
X130477156Y-133388500D01*
X130477158Y-133388500D01*
X130634844Y-133388500D01*
X130634845Y-133388499D01*
X130789497Y-133357737D01*
X130935179Y-133297394D01*
X131066289Y-133209789D01*
X131177789Y-133098289D01*
X131265394Y-132967179D01*
X131325737Y-132821497D01*
X131356500Y-132666842D01*
X131356500Y-132509158D01*
X131356500Y-132509155D01*
X131356499Y-132509153D01*
X131344553Y-132449096D01*
X131325737Y-132354503D01*
X131265397Y-132208828D01*
X131265397Y-132208827D01*
X131265393Y-132208820D01*
X131240627Y-132171755D01*
X131225349Y-132148890D01*
X131204472Y-132082214D01*
X131222956Y-132014834D01*
X131225338Y-132011125D01*
X131265394Y-131951179D01*
X131325737Y-131805497D01*
X131356500Y-131650842D01*
X131356500Y-131493158D01*
X131356500Y-131493155D01*
X131356499Y-131493153D01*
X131342059Y-131420561D01*
X131325737Y-131338503D01*
X131311412Y-131303919D01*
X131265397Y-131192827D01*
X131265393Y-131192820D01*
X131265390Y-131192815D01*
X131225349Y-131132890D01*
X131204472Y-131066214D01*
X131222956Y-130998834D01*
X131225338Y-130995125D01*
X131265394Y-130935179D01*
X131325737Y-130789497D01*
X131356500Y-130634842D01*
X131356500Y-130477158D01*
X131356500Y-130477155D01*
X131356499Y-130477153D01*
X131351287Y-130450949D01*
X131325737Y-130322503D01*
X131325514Y-130321964D01*
X131265397Y-130176827D01*
X131265393Y-130176820D01*
X131262934Y-130173140D01*
X131225349Y-130116890D01*
X131204472Y-130050214D01*
X131222956Y-129982834D01*
X131225338Y-129979125D01*
X131265394Y-129919179D01*
X131325737Y-129773497D01*
X131356500Y-129618842D01*
X131356500Y-129461158D01*
X131356500Y-129461155D01*
X131356499Y-129461153D01*
X131325738Y-129306510D01*
X131325737Y-129306503D01*
X131325735Y-129306498D01*
X131265397Y-129160827D01*
X131265393Y-129160820D01*
X131225350Y-129100892D01*
X131204472Y-129034214D01*
X131222956Y-128966834D01*
X131225338Y-128963125D01*
X131265394Y-128903179D01*
X131325737Y-128757497D01*
X131356500Y-128602842D01*
X131356500Y-128445158D01*
X131356500Y-128445155D01*
X131356499Y-128445153D01*
X131345850Y-128391616D01*
X131325737Y-128290503D01*
X131313369Y-128260643D01*
X131265397Y-128144827D01*
X131265390Y-128144814D01*
X131177789Y-128013711D01*
X131177786Y-128013707D01*
X131066292Y-127902213D01*
X131066288Y-127902210D01*
X130935185Y-127814609D01*
X130935172Y-127814602D01*
X130789501Y-127754264D01*
X130789489Y-127754261D01*
X130634845Y-127723500D01*
X130634842Y-127723500D01*
X130477158Y-127723500D01*
X130477155Y-127723500D01*
X130322510Y-127754261D01*
X130322498Y-127754264D01*
X130176827Y-127814602D01*
X130176814Y-127814609D01*
X130045711Y-127902210D01*
X130045707Y-127902213D01*
X129934213Y-128013707D01*
X129934210Y-128013711D01*
X129846609Y-128144814D01*
X129846602Y-128144827D01*
X129786264Y-128290498D01*
X129786261Y-128290510D01*
X129755500Y-128445153D01*
X127930002Y-128445153D01*
X127963394Y-128395179D01*
X127965131Y-128390987D01*
X128014325Y-128272220D01*
X128023737Y-128249497D01*
X128054500Y-128094842D01*
X128054500Y-127937158D01*
X128054500Y-127937155D01*
X128054499Y-127937153D01*
X128047549Y-127902213D01*
X128023737Y-127782503D01*
X128005475Y-127738414D01*
X127963397Y-127636827D01*
X127963390Y-127636814D01*
X127875789Y-127505711D01*
X127875786Y-127505707D01*
X127764292Y-127394213D01*
X127764288Y-127394210D01*
X127633185Y-127306609D01*
X127633172Y-127306602D01*
X127487501Y-127246264D01*
X127487489Y-127246261D01*
X127332845Y-127215500D01*
X127332842Y-127215500D01*
X127175158Y-127215500D01*
X127175155Y-127215500D01*
X127020510Y-127246261D01*
X127020498Y-127246264D01*
X126874827Y-127306602D01*
X126874814Y-127306609D01*
X126743711Y-127394210D01*
X126743707Y-127394213D01*
X126692181Y-127445740D01*
X126630858Y-127479225D01*
X126561166Y-127474241D01*
X126505233Y-127432369D01*
X126480816Y-127366905D01*
X126480500Y-127358059D01*
X126480500Y-125823029D01*
X126500185Y-125755990D01*
X126516815Y-125735352D01*
X127046097Y-125206069D01*
X127086324Y-125179191D01*
X127109979Y-125169394D01*
X127241089Y-125081789D01*
X127352589Y-124970289D01*
X127440194Y-124839179D01*
X127500537Y-124693497D01*
X127531300Y-124538842D01*
X127531300Y-124381158D01*
X127531300Y-124381155D01*
X127531299Y-124381153D01*
X127503087Y-124239323D01*
X127500537Y-124226503D01*
X127499486Y-124223966D01*
X127440197Y-124080827D01*
X127440190Y-124080814D01*
X127352589Y-123949711D01*
X127352586Y-123949707D01*
X127241092Y-123838213D01*
X127241088Y-123838210D01*
X127109985Y-123750609D01*
X127109972Y-123750602D01*
X126964301Y-123690264D01*
X126964289Y-123690261D01*
X126809645Y-123659500D01*
X126809642Y-123659500D01*
X126651958Y-123659500D01*
X126651955Y-123659500D01*
X126497310Y-123690261D01*
X126497298Y-123690264D01*
X126351627Y-123750602D01*
X126351614Y-123750609D01*
X126220511Y-123838210D01*
X126220507Y-123838213D01*
X126109013Y-123949707D01*
X126109007Y-123949715D01*
X126021407Y-124080818D01*
X126021406Y-124080819D01*
X126011605Y-124104480D01*
X125984727Y-124144703D01*
X125147050Y-124982381D01*
X125147047Y-124982384D01*
X125110912Y-125036464D01*
X125110913Y-125036465D01*
X125064914Y-125105308D01*
X125008343Y-125241882D01*
X125008340Y-125241892D01*
X124979500Y-125386879D01*
X124979500Y-127965396D01*
X124977870Y-127973586D01*
X124978787Y-127978673D01*
X124970054Y-128012864D01*
X124969704Y-128013711D01*
X124968605Y-128016363D01*
X124924754Y-128070759D01*
X124858456Y-128092812D01*
X124790759Y-128075520D01*
X124766371Y-128056571D01*
X124668487Y-127958687D01*
X124553749Y-127882022D01*
X124426274Y-127829221D01*
X124426264Y-127829218D01*
X124290938Y-127802300D01*
X124290936Y-127802300D01*
X124290935Y-127802300D01*
X121368007Y-127802300D01*
X121368005Y-127802300D01*
X121306161Y-127814602D01*
X121247573Y-127826256D01*
X121241595Y-127827445D01*
X121232674Y-127829219D01*
X121232667Y-127829221D01*
X121105192Y-127882022D01*
X120990456Y-127958686D01*
X120872313Y-128076829D01*
X120810990Y-128110313D01*
X120741298Y-128105329D01*
X120685365Y-128063457D01*
X120663015Y-128013339D01*
X120657737Y-127986803D01*
X120657735Y-127986798D01*
X120597397Y-127841127D01*
X120597390Y-127841114D01*
X120509789Y-127710011D01*
X120509786Y-127710007D01*
X120398292Y-127598513D01*
X120398288Y-127598510D01*
X120267185Y-127510909D01*
X120267172Y-127510902D01*
X120121501Y-127450564D01*
X120121489Y-127450561D01*
X119966845Y-127419800D01*
X119966842Y-127419800D01*
X119809158Y-127419800D01*
X119809153Y-127419800D01*
X119679291Y-127445631D01*
X119609699Y-127439404D01*
X119554522Y-127396540D01*
X119531278Y-127330651D01*
X119531100Y-127324014D01*
X119531100Y-125531662D01*
X119504181Y-125396335D01*
X119504180Y-125396334D01*
X119504180Y-125396330D01*
X119492280Y-125367600D01*
X119451378Y-125268853D01*
X119451371Y-125268840D01*
X119374715Y-125154117D01*
X119333265Y-125112667D01*
X119277142Y-125056544D01*
X118170305Y-123949707D01*
X114580488Y-120359888D01*
X114580487Y-120359887D01*
X114465749Y-120283222D01*
X114338274Y-120230421D01*
X114338264Y-120230418D01*
X114202938Y-120203500D01*
X114202936Y-120203500D01*
X114202935Y-120203500D01*
X101668994Y-120203500D01*
X101531006Y-120203500D01*
X101531004Y-120203500D01*
X101395677Y-120230418D01*
X101395667Y-120230421D01*
X101268192Y-120283222D01*
X101153454Y-120359887D01*
X101153453Y-120359888D01*
X100330162Y-121183181D01*
X100268839Y-121216666D01*
X100242481Y-121219500D01*
X97580316Y-121219500D01*
X97532864Y-121210061D01*
X97388501Y-121150264D01*
X97388489Y-121150261D01*
X97233845Y-121119500D01*
X97233842Y-121119500D01*
X97076158Y-121119500D01*
X97076155Y-121119500D01*
X96921510Y-121150261D01*
X96921498Y-121150264D01*
X96775827Y-121210602D01*
X96775814Y-121210609D01*
X96644711Y-121298210D01*
X96644707Y-121298213D01*
X96533213Y-121409707D01*
X96533210Y-121409711D01*
X96445609Y-121540814D01*
X96445602Y-121540827D01*
X96385264Y-121686498D01*
X96385261Y-121686510D01*
X96354500Y-121841153D01*
X96354500Y-121998846D01*
X96385261Y-122153489D01*
X96385264Y-122153501D01*
X96445602Y-122299172D01*
X96445609Y-122299185D01*
X96533210Y-122430288D01*
X96533213Y-122430292D01*
X96634740Y-122531819D01*
X96668225Y-122593142D01*
X96663241Y-122662834D01*
X96621369Y-122718767D01*
X96555905Y-122743184D01*
X96547059Y-122743500D01*
X93559519Y-122743500D01*
X93492480Y-122723815D01*
X93471838Y-122707181D01*
X92363071Y-121598414D01*
X92336191Y-121558185D01*
X92276397Y-121413827D01*
X92276390Y-121413814D01*
X92188789Y-121282711D01*
X92188786Y-121282707D01*
X92077292Y-121171213D01*
X92077288Y-121171210D01*
X91946185Y-121083609D01*
X91946172Y-121083602D01*
X91800501Y-121023264D01*
X91800489Y-121023261D01*
X91645845Y-120992500D01*
X91645842Y-120992500D01*
X91488158Y-120992500D01*
X91488155Y-120992500D01*
X91333510Y-121023261D01*
X91333498Y-121023264D01*
X91187827Y-121083602D01*
X91187814Y-121083609D01*
X91056711Y-121171210D01*
X91056707Y-121171213D01*
X90945213Y-121282707D01*
X90945210Y-121282711D01*
X90857609Y-121413814D01*
X90857602Y-121413827D01*
X90797264Y-121559498D01*
X90797261Y-121559510D01*
X90766500Y-121714153D01*
X87738700Y-121714153D01*
X87738700Y-116559436D01*
X90703700Y-116559436D01*
X90703700Y-116815763D01*
X90703701Y-116815780D01*
X90737158Y-117069914D01*
X90803505Y-117317524D01*
X90901596Y-117554339D01*
X90901603Y-117554354D01*
X91029771Y-117776349D01*
X91185823Y-117979717D01*
X91185831Y-117979726D01*
X91367074Y-118160969D01*
X91367082Y-118160976D01*
X91570450Y-118317028D01*
X91792445Y-118445196D01*
X91792460Y-118445203D01*
X91894518Y-118487476D01*
X92029276Y-118543295D01*
X92276882Y-118609641D01*
X92531030Y-118643100D01*
X92531037Y-118643100D01*
X92787363Y-118643100D01*
X92787370Y-118643100D01*
X93041518Y-118609641D01*
X93289124Y-118543295D01*
X93525951Y-118445198D01*
X93747949Y-118317028D01*
X93951317Y-118160977D01*
X93951321Y-118160972D01*
X93951326Y-118160969D01*
X94132569Y-117979726D01*
X94132572Y-117979721D01*
X94132577Y-117979717D01*
X94288628Y-117776349D01*
X94346822Y-117675553D01*
X115988700Y-117675553D01*
X115988700Y-117833246D01*
X116019461Y-117987889D01*
X116019464Y-117987901D01*
X116079802Y-118133572D01*
X116079809Y-118133585D01*
X116167410Y-118264688D01*
X116167413Y-118264692D01*
X116278907Y-118376186D01*
X116278911Y-118376189D01*
X116410014Y-118463790D01*
X116410027Y-118463797D01*
X116555698Y-118524135D01*
X116555703Y-118524137D01*
X116710353Y-118554899D01*
X116710356Y-118554900D01*
X116710358Y-118554900D01*
X116868044Y-118554900D01*
X116868045Y-118554899D01*
X117022697Y-118524137D01*
X117168379Y-118463794D01*
X117299489Y-118376189D01*
X117410989Y-118264689D01*
X117498594Y-118133579D01*
X117541020Y-118031153D01*
X128104500Y-118031153D01*
X128104500Y-118188846D01*
X128135261Y-118343489D01*
X128135263Y-118343497D01*
X128145061Y-118367151D01*
X128154500Y-118414604D01*
X128154500Y-126572596D01*
X128145062Y-126620044D01*
X128135263Y-126643703D01*
X128135262Y-126643706D01*
X128135260Y-126643711D01*
X128104500Y-126798353D01*
X128104500Y-126956046D01*
X128135261Y-127110689D01*
X128135264Y-127110701D01*
X128195602Y-127256372D01*
X128195609Y-127256385D01*
X128283210Y-127387488D01*
X128283213Y-127387492D01*
X128394707Y-127498986D01*
X128394711Y-127498989D01*
X128525814Y-127586590D01*
X128525827Y-127586597D01*
X128647095Y-127636827D01*
X128671503Y-127646937D01*
X128826153Y-127677699D01*
X128826156Y-127677700D01*
X128826158Y-127677700D01*
X128983844Y-127677700D01*
X128983845Y-127677699D01*
X129138497Y-127646937D01*
X129284179Y-127586594D01*
X129415289Y-127498989D01*
X129526789Y-127387489D01*
X129614394Y-127256379D01*
X129674737Y-127110697D01*
X129705500Y-126956042D01*
X129705500Y-126798358D01*
X129705500Y-126798355D01*
X129705499Y-126798353D01*
X129674739Y-126643711D01*
X129674738Y-126643708D01*
X129674737Y-126643703D01*
X129664937Y-126620044D01*
X129655500Y-126572596D01*
X129655500Y-124714000D01*
X135763000Y-124714000D01*
X148717000Y-124714000D01*
X148717000Y-119811800D01*
X135763000Y-119811800D01*
X135763000Y-124714000D01*
X129655500Y-124714000D01*
X129655500Y-118414604D01*
X129664939Y-118367151D01*
X129674737Y-118343497D01*
X129705500Y-118188842D01*
X129705500Y-118031158D01*
X129705500Y-118031155D01*
X129705499Y-118031153D01*
X129674737Y-117876503D01*
X129662200Y-117846235D01*
X129614397Y-117730827D01*
X129614390Y-117730814D01*
X129526789Y-117599711D01*
X129526786Y-117599707D01*
X129415292Y-117488213D01*
X129415288Y-117488210D01*
X129284185Y-117400609D01*
X129284172Y-117400602D01*
X129138501Y-117340264D01*
X129138489Y-117340261D01*
X128983845Y-117309500D01*
X128983842Y-117309500D01*
X128826158Y-117309500D01*
X128826155Y-117309500D01*
X128671510Y-117340261D01*
X128671498Y-117340264D01*
X128525827Y-117400602D01*
X128525814Y-117400609D01*
X128394711Y-117488210D01*
X128394707Y-117488213D01*
X128283213Y-117599707D01*
X128283210Y-117599711D01*
X128195609Y-117730814D01*
X128195602Y-117730827D01*
X128135264Y-117876498D01*
X128135261Y-117876510D01*
X128104500Y-118031153D01*
X117541020Y-118031153D01*
X117558937Y-117987897D01*
X117589700Y-117833242D01*
X117589700Y-117675558D01*
X117589700Y-117675555D01*
X117589699Y-117675553D01*
X117584967Y-117651764D01*
X117558937Y-117520903D01*
X117558935Y-117520898D01*
X117498597Y-117375227D01*
X117498590Y-117375214D01*
X117410989Y-117244111D01*
X117410986Y-117244107D01*
X117299492Y-117132613D01*
X117299488Y-117132610D01*
X117168385Y-117045009D01*
X117168372Y-117045002D01*
X117022701Y-116984664D01*
X117022689Y-116984661D01*
X116868045Y-116953900D01*
X116868042Y-116953900D01*
X116710358Y-116953900D01*
X116710355Y-116953900D01*
X116555710Y-116984661D01*
X116555698Y-116984664D01*
X116410027Y-117045002D01*
X116410014Y-117045009D01*
X116278911Y-117132610D01*
X116278907Y-117132613D01*
X116167413Y-117244107D01*
X116167410Y-117244111D01*
X116079809Y-117375214D01*
X116079802Y-117375227D01*
X116019464Y-117520898D01*
X116019461Y-117520910D01*
X115988700Y-117675553D01*
X94346822Y-117675553D01*
X94416798Y-117554351D01*
X94514895Y-117317524D01*
X94581241Y-117069918D01*
X94614700Y-116815770D01*
X94614700Y-116559430D01*
X94581241Y-116305282D01*
X94514895Y-116057676D01*
X94416798Y-115820849D01*
X94416796Y-115820845D01*
X94288628Y-115598850D01*
X94132576Y-115395482D01*
X94132569Y-115395474D01*
X93951326Y-115214231D01*
X93951317Y-115214223D01*
X93747949Y-115058171D01*
X93525954Y-114930003D01*
X93525939Y-114929996D01*
X93289124Y-114831905D01*
X93041514Y-114765558D01*
X92787380Y-114732101D01*
X92787375Y-114732100D01*
X92787370Y-114732100D01*
X92531030Y-114732100D01*
X92531024Y-114732100D01*
X92531019Y-114732101D01*
X92276885Y-114765558D01*
X92029275Y-114831905D01*
X91792460Y-114929996D01*
X91792445Y-114930003D01*
X91570450Y-115058171D01*
X91367082Y-115214223D01*
X91185823Y-115395482D01*
X91029771Y-115598850D01*
X90901603Y-115820845D01*
X90901596Y-115820860D01*
X90803505Y-116057675D01*
X90737158Y-116305285D01*
X90703701Y-116559419D01*
X90703700Y-116559436D01*
X87738700Y-116559436D01*
X87738700Y-111376353D01*
X125843900Y-111376353D01*
X125843900Y-111534046D01*
X125874661Y-111688689D01*
X125874664Y-111688701D01*
X125935002Y-111834372D01*
X125935009Y-111834385D01*
X126022610Y-111965488D01*
X126022613Y-111965492D01*
X126134107Y-112076986D01*
X126134111Y-112076989D01*
X126265214Y-112164590D01*
X126265227Y-112164597D01*
X126362529Y-112204900D01*
X126410903Y-112224937D01*
X126565553Y-112255699D01*
X126565556Y-112255700D01*
X126565558Y-112255700D01*
X126723244Y-112255700D01*
X126723245Y-112255699D01*
X126877897Y-112224937D01*
X127023579Y-112164594D01*
X127023584Y-112164590D01*
X127023587Y-112164589D01*
X127096122Y-112116122D01*
X127162799Y-112095243D01*
X127224403Y-112112142D01*
X127225054Y-112110925D01*
X127230425Y-112113796D01*
X127236041Y-112116122D01*
X127376103Y-112174137D01*
X127530753Y-112204899D01*
X127530756Y-112204900D01*
X127530758Y-112204900D01*
X127688444Y-112204900D01*
X127688445Y-112204899D01*
X127843097Y-112174137D01*
X127988779Y-112113794D01*
X128119889Y-112026189D01*
X128231389Y-111914689D01*
X128318994Y-111783579D01*
X128379337Y-111637897D01*
X128410100Y-111483242D01*
X128410100Y-111325558D01*
X128410100Y-111325555D01*
X128410099Y-111325553D01*
X128379338Y-111170910D01*
X128379337Y-111170903D01*
X128379335Y-111170898D01*
X128318997Y-111025227D01*
X128318990Y-111025214D01*
X128231389Y-110894111D01*
X128231386Y-110894107D01*
X128119892Y-110782613D01*
X128119888Y-110782610D01*
X127988785Y-110695009D01*
X127988772Y-110695002D01*
X127843101Y-110634664D01*
X127843089Y-110634661D01*
X127688445Y-110603900D01*
X127688442Y-110603900D01*
X127530758Y-110603900D01*
X127530755Y-110603900D01*
X127376110Y-110634661D01*
X127376098Y-110634664D01*
X127230427Y-110695002D01*
X127230409Y-110695012D01*
X127157875Y-110743478D01*
X127091198Y-110764356D01*
X127029597Y-110747456D01*
X127028946Y-110748675D01*
X127023574Y-110745803D01*
X126877901Y-110685464D01*
X126877889Y-110685461D01*
X126723245Y-110654700D01*
X126723242Y-110654700D01*
X126565558Y-110654700D01*
X126565555Y-110654700D01*
X126410910Y-110685461D01*
X126410898Y-110685464D01*
X126265227Y-110745802D01*
X126265214Y-110745809D01*
X126134111Y-110833410D01*
X126134107Y-110833413D01*
X126022613Y-110944907D01*
X126022610Y-110944911D01*
X125935009Y-111076014D01*
X125935002Y-111076027D01*
X125874664Y-111221698D01*
X125874661Y-111221710D01*
X125843900Y-111376353D01*
X87738700Y-111376353D01*
X87738700Y-109904322D01*
X87758385Y-109837283D01*
X87811189Y-109791528D01*
X87862971Y-109780322D01*
X185767158Y-109996332D01*
G37*
%TD.AperFunction*%
%TD*%
%TA.AperFunction,Conductor*%
%TO.N,+24V*%
G36*
X228680739Y-73824985D02*
G01*
X228726494Y-73877789D01*
X228737700Y-73929300D01*
X228737700Y-109106500D01*
X228718015Y-109173539D01*
X228665211Y-109219294D01*
X228613700Y-109230500D01*
X186994837Y-109230500D01*
X186987247Y-109230528D01*
X186785014Y-109252642D01*
X186785012Y-109252642D01*
X186734382Y-109263448D01*
X186646396Y-109286431D01*
X186459172Y-109366047D01*
X186459167Y-109366049D01*
X186291817Y-109481713D01*
X186291804Y-109481723D01*
X186238642Y-109527058D01*
X186238635Y-109527065D01*
X186214929Y-109550943D01*
X186153727Y-109584649D01*
X186084018Y-109579916D01*
X186075171Y-109576259D01*
X185977647Y-109531460D01*
X185977645Y-109531459D01*
X185977640Y-109531457D01*
X185910648Y-109511625D01*
X185910644Y-109511624D01*
X185891823Y-109508875D01*
X185768274Y-109490833D01*
X185768275Y-109490833D01*
X87862426Y-109274819D01*
X87795431Y-109254986D01*
X87749792Y-109202081D01*
X87738700Y-109150819D01*
X87738700Y-107236153D01*
X95084500Y-107236153D01*
X95084500Y-107393846D01*
X95115261Y-107548489D01*
X95115264Y-107548501D01*
X95175602Y-107694172D01*
X95175609Y-107694185D01*
X95263210Y-107825288D01*
X95263213Y-107825292D01*
X95374707Y-107936786D01*
X95374711Y-107936789D01*
X95505814Y-108024390D01*
X95505827Y-108024397D01*
X95651498Y-108084735D01*
X95651503Y-108084737D01*
X95806153Y-108115499D01*
X95806156Y-108115500D01*
X95806158Y-108115500D01*
X95963844Y-108115500D01*
X95963845Y-108115499D01*
X96118497Y-108084737D01*
X96264179Y-108024394D01*
X96395289Y-107936789D01*
X96506789Y-107825289D01*
X96594394Y-107694179D01*
X96654737Y-107548497D01*
X96685500Y-107393842D01*
X96685500Y-107236158D01*
X96685500Y-107236155D01*
X96685499Y-107236153D01*
X96989500Y-107236153D01*
X96989500Y-107393846D01*
X97020261Y-107548489D01*
X97020264Y-107548501D01*
X97080602Y-107694172D01*
X97080609Y-107694185D01*
X97168210Y-107825288D01*
X97168213Y-107825292D01*
X97279707Y-107936786D01*
X97279711Y-107936789D01*
X97410814Y-108024390D01*
X97410827Y-108024397D01*
X97556498Y-108084735D01*
X97556503Y-108084737D01*
X97711153Y-108115499D01*
X97711156Y-108115500D01*
X97711158Y-108115500D01*
X97868844Y-108115500D01*
X97868845Y-108115499D01*
X98023497Y-108084737D01*
X98169179Y-108024394D01*
X98300289Y-107936789D01*
X98411789Y-107825289D01*
X98499394Y-107694179D01*
X98559737Y-107548497D01*
X98590500Y-107393842D01*
X98590500Y-107236158D01*
X98590500Y-107236155D01*
X98590499Y-107236153D01*
X98894500Y-107236153D01*
X98894500Y-107393846D01*
X98925261Y-107548489D01*
X98925264Y-107548501D01*
X98985602Y-107694172D01*
X98985609Y-107694185D01*
X99073210Y-107825288D01*
X99073213Y-107825292D01*
X99184707Y-107936786D01*
X99184711Y-107936789D01*
X99315814Y-108024390D01*
X99315827Y-108024397D01*
X99461498Y-108084735D01*
X99461503Y-108084737D01*
X99616153Y-108115499D01*
X99616156Y-108115500D01*
X99616158Y-108115500D01*
X99773844Y-108115500D01*
X99773845Y-108115499D01*
X99928497Y-108084737D01*
X100074179Y-108024394D01*
X100205289Y-107936789D01*
X100316789Y-107825289D01*
X100404394Y-107694179D01*
X100464737Y-107548497D01*
X100495500Y-107393842D01*
X100495500Y-107236158D01*
X100495500Y-107236155D01*
X100495499Y-107236153D01*
X129374500Y-107236153D01*
X129374500Y-107393846D01*
X129405261Y-107548489D01*
X129405264Y-107548501D01*
X129465602Y-107694172D01*
X129465609Y-107694185D01*
X129553210Y-107825288D01*
X129553213Y-107825292D01*
X129664707Y-107936786D01*
X129664711Y-107936789D01*
X129795814Y-108024390D01*
X129795827Y-108024397D01*
X129941498Y-108084735D01*
X129941503Y-108084737D01*
X130096153Y-108115499D01*
X130096156Y-108115500D01*
X130096158Y-108115500D01*
X130253844Y-108115500D01*
X130253845Y-108115499D01*
X130408497Y-108084737D01*
X130554179Y-108024394D01*
X130685289Y-107936789D01*
X130796789Y-107825289D01*
X130884394Y-107694179D01*
X130944737Y-107548497D01*
X130975500Y-107393842D01*
X130975500Y-107236158D01*
X130975500Y-107236155D01*
X130975499Y-107236153D01*
X130944738Y-107081510D01*
X130944737Y-107081503D01*
X130944735Y-107081498D01*
X130884397Y-106935827D01*
X130884390Y-106935814D01*
X130796789Y-106804711D01*
X130796786Y-106804707D01*
X130685292Y-106693213D01*
X130685288Y-106693210D01*
X130554185Y-106605609D01*
X130554172Y-106605602D01*
X130408501Y-106545264D01*
X130408489Y-106545261D01*
X130253845Y-106514500D01*
X130253842Y-106514500D01*
X130096158Y-106514500D01*
X130096155Y-106514500D01*
X129941510Y-106545261D01*
X129941498Y-106545264D01*
X129795827Y-106605602D01*
X129795814Y-106605609D01*
X129664711Y-106693210D01*
X129664707Y-106693213D01*
X129553213Y-106804707D01*
X129553210Y-106804711D01*
X129465609Y-106935814D01*
X129465602Y-106935827D01*
X129405264Y-107081498D01*
X129405261Y-107081510D01*
X129374500Y-107236153D01*
X100495499Y-107236153D01*
X100464738Y-107081510D01*
X100464737Y-107081503D01*
X100464735Y-107081498D01*
X100404397Y-106935827D01*
X100404390Y-106935814D01*
X100316789Y-106804711D01*
X100316786Y-106804707D01*
X100205292Y-106693213D01*
X100205288Y-106693210D01*
X100074185Y-106605609D01*
X100074172Y-106605602D01*
X99928501Y-106545264D01*
X99928489Y-106545261D01*
X99773845Y-106514500D01*
X99773842Y-106514500D01*
X99616158Y-106514500D01*
X99616155Y-106514500D01*
X99461510Y-106545261D01*
X99461498Y-106545264D01*
X99315827Y-106605602D01*
X99315814Y-106605609D01*
X99184711Y-106693210D01*
X99184707Y-106693213D01*
X99073213Y-106804707D01*
X99073210Y-106804711D01*
X98985609Y-106935814D01*
X98985602Y-106935827D01*
X98925264Y-107081498D01*
X98925261Y-107081510D01*
X98894500Y-107236153D01*
X98590499Y-107236153D01*
X98559738Y-107081510D01*
X98559737Y-107081503D01*
X98559735Y-107081498D01*
X98499397Y-106935827D01*
X98499390Y-106935814D01*
X98411789Y-106804711D01*
X98411786Y-106804707D01*
X98300292Y-106693213D01*
X98300288Y-106693210D01*
X98169185Y-106605609D01*
X98169172Y-106605602D01*
X98023501Y-106545264D01*
X98023489Y-106545261D01*
X97868845Y-106514500D01*
X97868842Y-106514500D01*
X97711158Y-106514500D01*
X97711155Y-106514500D01*
X97556510Y-106545261D01*
X97556498Y-106545264D01*
X97410827Y-106605602D01*
X97410814Y-106605609D01*
X97279711Y-106693210D01*
X97279707Y-106693213D01*
X97168213Y-106804707D01*
X97168210Y-106804711D01*
X97080609Y-106935814D01*
X97080602Y-106935827D01*
X97020264Y-107081498D01*
X97020261Y-107081510D01*
X96989500Y-107236153D01*
X96685499Y-107236153D01*
X96654738Y-107081510D01*
X96654737Y-107081503D01*
X96654735Y-107081498D01*
X96594397Y-106935827D01*
X96594390Y-106935814D01*
X96506789Y-106804711D01*
X96506786Y-106804707D01*
X96395292Y-106693213D01*
X96395288Y-106693210D01*
X96264185Y-106605609D01*
X96264172Y-106605602D01*
X96118501Y-106545264D01*
X96118489Y-106545261D01*
X95963845Y-106514500D01*
X95963842Y-106514500D01*
X95806158Y-106514500D01*
X95806155Y-106514500D01*
X95651510Y-106545261D01*
X95651498Y-106545264D01*
X95505827Y-106605602D01*
X95505814Y-106605609D01*
X95374711Y-106693210D01*
X95374707Y-106693213D01*
X95263213Y-106804707D01*
X95263210Y-106804711D01*
X95175609Y-106935814D01*
X95175602Y-106935827D01*
X95115264Y-107081498D01*
X95115261Y-107081510D01*
X95084500Y-107236153D01*
X87738700Y-107236153D01*
X87738700Y-103259436D01*
X90703700Y-103259436D01*
X90703700Y-103515763D01*
X90703701Y-103515780D01*
X90737158Y-103769914D01*
X90803505Y-104017524D01*
X90901596Y-104254339D01*
X90901603Y-104254354D01*
X91029771Y-104476349D01*
X91185823Y-104679717D01*
X91185831Y-104679726D01*
X91367074Y-104860969D01*
X91367082Y-104860976D01*
X91570450Y-105017028D01*
X91792445Y-105145196D01*
X91792460Y-105145203D01*
X91837208Y-105163738D01*
X92029276Y-105243295D01*
X92276882Y-105309641D01*
X92531030Y-105343100D01*
X92531037Y-105343100D01*
X92787363Y-105343100D01*
X92787370Y-105343100D01*
X93041518Y-105309641D01*
X93289124Y-105243295D01*
X93525951Y-105145198D01*
X93747949Y-105017028D01*
X93951317Y-104860977D01*
X93951321Y-104860972D01*
X93951326Y-104860969D01*
X94132569Y-104679726D01*
X94132572Y-104679721D01*
X94132577Y-104679717D01*
X94288628Y-104476349D01*
X94348007Y-104373501D01*
X94352365Y-104365953D01*
X105879500Y-104365953D01*
X105879500Y-104523646D01*
X105910261Y-104678289D01*
X105910264Y-104678301D01*
X105970602Y-104823972D01*
X105970609Y-104823985D01*
X106058210Y-104955088D01*
X106058213Y-104955092D01*
X106169707Y-105066586D01*
X106169711Y-105066589D01*
X106300814Y-105154190D01*
X106300827Y-105154197D01*
X106398129Y-105194500D01*
X106446503Y-105214537D01*
X106591073Y-105243294D01*
X106601153Y-105245299D01*
X106601156Y-105245300D01*
X106601158Y-105245300D01*
X106758844Y-105245300D01*
X106758845Y-105245299D01*
X106913497Y-105214537D01*
X107059179Y-105154194D01*
X107190289Y-105066589D01*
X107301789Y-104955089D01*
X107389394Y-104823979D01*
X107449737Y-104678297D01*
X107480500Y-104523642D01*
X107480500Y-104365958D01*
X107480500Y-104365955D01*
X107480499Y-104365953D01*
X107470395Y-104315158D01*
X107449737Y-104211303D01*
X107428698Y-104160510D01*
X107404678Y-104102518D01*
X107389395Y-104065624D01*
X107389394Y-104065621D01*
X107389392Y-104065618D01*
X107389390Y-104065614D01*
X107386409Y-104061153D01*
X116674500Y-104061153D01*
X116674500Y-104218846D01*
X116705261Y-104373489D01*
X116705264Y-104373501D01*
X116765602Y-104519172D01*
X116765609Y-104519185D01*
X116853210Y-104650288D01*
X116853213Y-104650292D01*
X116964707Y-104761786D01*
X116964711Y-104761789D01*
X117095814Y-104849390D01*
X117095827Y-104849397D01*
X117241498Y-104909735D01*
X117241503Y-104909737D01*
X117396153Y-104940499D01*
X117396156Y-104940500D01*
X117396158Y-104940500D01*
X117553844Y-104940500D01*
X117553845Y-104940499D01*
X117708497Y-104909737D01*
X117854179Y-104849394D01*
X117985289Y-104761789D01*
X117985292Y-104761786D01*
X118085819Y-104661260D01*
X118147142Y-104627775D01*
X118216834Y-104632759D01*
X118261181Y-104661260D01*
X118361707Y-104761786D01*
X118361711Y-104761789D01*
X118492814Y-104849390D01*
X118492827Y-104849397D01*
X118638498Y-104909735D01*
X118638503Y-104909737D01*
X118793153Y-104940499D01*
X118793156Y-104940500D01*
X118793158Y-104940500D01*
X118950844Y-104940500D01*
X118950845Y-104940499D01*
X119105497Y-104909737D01*
X119251179Y-104849394D01*
X119382289Y-104761789D01*
X119493789Y-104650289D01*
X119581394Y-104519179D01*
X119641737Y-104373497D01*
X119672500Y-104218842D01*
X119672500Y-104061158D01*
X119672500Y-104061155D01*
X119672499Y-104061153D01*
X120484500Y-104061153D01*
X120484500Y-104218846D01*
X120515261Y-104373489D01*
X120515264Y-104373501D01*
X120575602Y-104519172D01*
X120575609Y-104519185D01*
X120663210Y-104650288D01*
X120663213Y-104650292D01*
X120774707Y-104761786D01*
X120774711Y-104761789D01*
X120905814Y-104849390D01*
X120905827Y-104849397D01*
X121051498Y-104909735D01*
X121051503Y-104909737D01*
X121206153Y-104940499D01*
X121206156Y-104940500D01*
X121206158Y-104940500D01*
X121363844Y-104940500D01*
X121363845Y-104940499D01*
X121518497Y-104909737D01*
X121664179Y-104849394D01*
X121795289Y-104761789D01*
X121906789Y-104650289D01*
X121994394Y-104519179D01*
X122054737Y-104373497D01*
X122085500Y-104218842D01*
X122085500Y-104061158D01*
X122085500Y-104061155D01*
X122085499Y-104061153D01*
X122054737Y-103906503D01*
X122045295Y-103883707D01*
X121994397Y-103760827D01*
X121994390Y-103760814D01*
X121906789Y-103629711D01*
X121906786Y-103629707D01*
X121795292Y-103518213D01*
X121795288Y-103518210D01*
X121664185Y-103430609D01*
X121664172Y-103430602D01*
X121518501Y-103370264D01*
X121518489Y-103370261D01*
X121363845Y-103339500D01*
X121363842Y-103339500D01*
X121206158Y-103339500D01*
X121206155Y-103339500D01*
X121051510Y-103370261D01*
X121051498Y-103370264D01*
X120905827Y-103430602D01*
X120905814Y-103430609D01*
X120774711Y-103518210D01*
X120774707Y-103518213D01*
X120663213Y-103629707D01*
X120663210Y-103629711D01*
X120575609Y-103760814D01*
X120575602Y-103760827D01*
X120515264Y-103906498D01*
X120515261Y-103906510D01*
X120484500Y-104061153D01*
X119672499Y-104061153D01*
X119641737Y-103906503D01*
X119632295Y-103883707D01*
X119581397Y-103760827D01*
X119581390Y-103760814D01*
X119493789Y-103629711D01*
X119493786Y-103629707D01*
X119382292Y-103518213D01*
X119382288Y-103518210D01*
X119251185Y-103430609D01*
X119251172Y-103430602D01*
X119105501Y-103370264D01*
X119105489Y-103370261D01*
X118950845Y-103339500D01*
X118950842Y-103339500D01*
X118793158Y-103339500D01*
X118793155Y-103339500D01*
X118638510Y-103370261D01*
X118638498Y-103370264D01*
X118492827Y-103430602D01*
X118492814Y-103430609D01*
X118361711Y-103518210D01*
X118361707Y-103518213D01*
X118261181Y-103618740D01*
X118199858Y-103652225D01*
X118130166Y-103647241D01*
X118085819Y-103618740D01*
X117985292Y-103518213D01*
X117985288Y-103518210D01*
X117854185Y-103430609D01*
X117854172Y-103430602D01*
X117708501Y-103370264D01*
X117708489Y-103370261D01*
X117553845Y-103339500D01*
X117553842Y-103339500D01*
X117396158Y-103339500D01*
X117396155Y-103339500D01*
X117241510Y-103370261D01*
X117241498Y-103370264D01*
X117095827Y-103430602D01*
X117095814Y-103430609D01*
X116964711Y-103518210D01*
X116964707Y-103518213D01*
X116853213Y-103629707D01*
X116853210Y-103629711D01*
X116765609Y-103760814D01*
X116765602Y-103760827D01*
X116705264Y-103906498D01*
X116705261Y-103906510D01*
X116674500Y-104061153D01*
X107386409Y-104061153D01*
X107301789Y-103934511D01*
X107301786Y-103934507D01*
X107190292Y-103823013D01*
X107190288Y-103823010D01*
X107059185Y-103735409D01*
X107059172Y-103735402D01*
X106913501Y-103675064D01*
X106913489Y-103675061D01*
X106758845Y-103644300D01*
X106758842Y-103644300D01*
X106601158Y-103644300D01*
X106601155Y-103644300D01*
X106446510Y-103675061D01*
X106446498Y-103675064D01*
X106300827Y-103735402D01*
X106300814Y-103735409D01*
X106169711Y-103823010D01*
X106169707Y-103823013D01*
X106058213Y-103934507D01*
X106058210Y-103934511D01*
X105970609Y-104065614D01*
X105970602Y-104065627D01*
X105910264Y-104211298D01*
X105910261Y-104211310D01*
X105879500Y-104365953D01*
X94352365Y-104365953D01*
X94391675Y-104297866D01*
X94396554Y-104289413D01*
X94416798Y-104254351D01*
X94514895Y-104017524D01*
X94581241Y-103769918D01*
X94614700Y-103515770D01*
X94614700Y-103259430D01*
X94581241Y-103005282D01*
X94514895Y-102757676D01*
X94455294Y-102613787D01*
X94416803Y-102520860D01*
X94416796Y-102520845D01*
X94288628Y-102298850D01*
X94132576Y-102095482D01*
X94132569Y-102095474D01*
X93951326Y-101914231D01*
X93951317Y-101914223D01*
X93866908Y-101849453D01*
X106821200Y-101849453D01*
X106821200Y-102007146D01*
X106851961Y-102161789D01*
X106851964Y-102161801D01*
X106912302Y-102307472D01*
X106912309Y-102307485D01*
X106999910Y-102438588D01*
X106999913Y-102438592D01*
X107111407Y-102550086D01*
X107111411Y-102550089D01*
X107242514Y-102637690D01*
X107242527Y-102637697D01*
X107356468Y-102684892D01*
X107388203Y-102698037D01*
X107542853Y-102728799D01*
X107542856Y-102728800D01*
X107542858Y-102728800D01*
X107700544Y-102728800D01*
X107700545Y-102728799D01*
X107855197Y-102698037D01*
X108000879Y-102637694D01*
X108131989Y-102550089D01*
X108243489Y-102438589D01*
X108331094Y-102307479D01*
X108391437Y-102161797D01*
X108422200Y-102007142D01*
X108422200Y-101849458D01*
X108422200Y-101849455D01*
X108422199Y-101849453D01*
X108391437Y-101694803D01*
X108382985Y-101674397D01*
X108331097Y-101549127D01*
X108331090Y-101549114D01*
X108243489Y-101418011D01*
X108243486Y-101418007D01*
X108131992Y-101306513D01*
X108131988Y-101306510D01*
X108000885Y-101218909D01*
X108000872Y-101218902D01*
X107855201Y-101158564D01*
X107855189Y-101158561D01*
X107700545Y-101127800D01*
X107700542Y-101127800D01*
X107542858Y-101127800D01*
X107542855Y-101127800D01*
X107388210Y-101158561D01*
X107388198Y-101158564D01*
X107242527Y-101218902D01*
X107242514Y-101218909D01*
X107111411Y-101306510D01*
X107111407Y-101306513D01*
X106999913Y-101418007D01*
X106999910Y-101418011D01*
X106912309Y-101549114D01*
X106912302Y-101549127D01*
X106851964Y-101694798D01*
X106851961Y-101694810D01*
X106821200Y-101849453D01*
X93866908Y-101849453D01*
X93747949Y-101758171D01*
X93525954Y-101630003D01*
X93525939Y-101629996D01*
X93289124Y-101531905D01*
X93041514Y-101465558D01*
X92787380Y-101432101D01*
X92787375Y-101432100D01*
X92787370Y-101432100D01*
X92531030Y-101432100D01*
X92531024Y-101432100D01*
X92531019Y-101432101D01*
X92276885Y-101465558D01*
X92029275Y-101531905D01*
X91792460Y-101629996D01*
X91792445Y-101630003D01*
X91570450Y-101758171D01*
X91367082Y-101914223D01*
X91185823Y-102095482D01*
X91029771Y-102298850D01*
X90901603Y-102520845D01*
X90901596Y-102520860D01*
X90803505Y-102757675D01*
X90737158Y-103005285D01*
X90703701Y-103259419D01*
X90703700Y-103259436D01*
X87738700Y-103259436D01*
X87738700Y-100886153D01*
X117944500Y-100886153D01*
X117944500Y-101043846D01*
X117975261Y-101198489D01*
X117975264Y-101198501D01*
X118035602Y-101344172D01*
X118035609Y-101344185D01*
X118123210Y-101475288D01*
X118123213Y-101475292D01*
X118234707Y-101586786D01*
X118234711Y-101586789D01*
X118365814Y-101674390D01*
X118365827Y-101674397D01*
X118497220Y-101728821D01*
X118511503Y-101734737D01*
X118629313Y-101758171D01*
X118666153Y-101765499D01*
X118666156Y-101765500D01*
X118666158Y-101765500D01*
X118823844Y-101765500D01*
X118823845Y-101765499D01*
X118978497Y-101734737D01*
X119124179Y-101674394D01*
X119255289Y-101586789D01*
X119255292Y-101586786D01*
X119292319Y-101549760D01*
X119353642Y-101516275D01*
X119423334Y-101521259D01*
X119467681Y-101549760D01*
X119504707Y-101586786D01*
X119504711Y-101586789D01*
X119635814Y-101674390D01*
X119635827Y-101674397D01*
X119767220Y-101728821D01*
X119781503Y-101734737D01*
X119899313Y-101758171D01*
X119936153Y-101765499D01*
X119936156Y-101765500D01*
X119936158Y-101765500D01*
X120093844Y-101765500D01*
X120093845Y-101765499D01*
X120248497Y-101734737D01*
X120394179Y-101674394D01*
X120525289Y-101586789D01*
X120636789Y-101475289D01*
X120724394Y-101344179D01*
X120784737Y-101198497D01*
X120815500Y-101043842D01*
X120815500Y-100886158D01*
X120815500Y-100886155D01*
X120815499Y-100886153D01*
X120793839Y-100777257D01*
X120790238Y-100759153D01*
X129247500Y-100759153D01*
X129247500Y-100916846D01*
X129278261Y-101071489D01*
X129278264Y-101071501D01*
X129338602Y-101217172D01*
X129338609Y-101217185D01*
X129426210Y-101348288D01*
X129426213Y-101348292D01*
X129463240Y-101385319D01*
X129496725Y-101446642D01*
X129491741Y-101516334D01*
X129463240Y-101560681D01*
X129426213Y-101597707D01*
X129426210Y-101597711D01*
X129338609Y-101728814D01*
X129338602Y-101728827D01*
X129278264Y-101874498D01*
X129278261Y-101874510D01*
X129247500Y-102029153D01*
X129247500Y-102186846D01*
X129278261Y-102341489D01*
X129278264Y-102341501D01*
X129338602Y-102487171D01*
X129338609Y-102487184D01*
X129378650Y-102547109D01*
X129399528Y-102613787D01*
X129381043Y-102681167D01*
X129378650Y-102684891D01*
X129338609Y-102744815D01*
X129338602Y-102744828D01*
X129278264Y-102890498D01*
X129278261Y-102890510D01*
X129247500Y-103045153D01*
X129247500Y-103202846D01*
X129278261Y-103357489D01*
X129278264Y-103357501D01*
X129338602Y-103503172D01*
X129338609Y-103503185D01*
X129426210Y-103634288D01*
X129426213Y-103634292D01*
X129463240Y-103671319D01*
X129496725Y-103732642D01*
X129491741Y-103802334D01*
X129463240Y-103846681D01*
X129426213Y-103883707D01*
X129426210Y-103883711D01*
X129338609Y-104014814D01*
X129338602Y-104014827D01*
X129278264Y-104160498D01*
X129278261Y-104160510D01*
X129247500Y-104315153D01*
X129247500Y-104472846D01*
X129278261Y-104627489D01*
X129278264Y-104627501D01*
X129338602Y-104773172D01*
X129338609Y-104773185D01*
X129426210Y-104904288D01*
X129426213Y-104904292D01*
X129537707Y-105015786D01*
X129537711Y-105015789D01*
X129668814Y-105103390D01*
X129668827Y-105103397D01*
X129791454Y-105154190D01*
X129814503Y-105163737D01*
X129969153Y-105194499D01*
X129969156Y-105194500D01*
X129969158Y-105194500D01*
X130126844Y-105194500D01*
X130126845Y-105194499D01*
X130281497Y-105163737D01*
X130427179Y-105103394D01*
X130558289Y-105015789D01*
X130558292Y-105015786D01*
X130595319Y-104978760D01*
X130656642Y-104945275D01*
X130726334Y-104950259D01*
X130770681Y-104978760D01*
X130807707Y-105015786D01*
X130807711Y-105015789D01*
X130938814Y-105103390D01*
X130938827Y-105103397D01*
X131061454Y-105154190D01*
X131084503Y-105163737D01*
X131239153Y-105194499D01*
X131239156Y-105194500D01*
X131239158Y-105194500D01*
X131396844Y-105194500D01*
X131396845Y-105194499D01*
X131551497Y-105163737D01*
X131697179Y-105103394D01*
X131828289Y-105015789D01*
X131828292Y-105015786D01*
X131865319Y-104978760D01*
X131926642Y-104945275D01*
X131996334Y-104950259D01*
X132040681Y-104978760D01*
X132077707Y-105015786D01*
X132077711Y-105015789D01*
X132208814Y-105103390D01*
X132208827Y-105103397D01*
X132331454Y-105154190D01*
X132354503Y-105163737D01*
X132509153Y-105194499D01*
X132509156Y-105194500D01*
X132509158Y-105194500D01*
X132666844Y-105194500D01*
X132666845Y-105194499D01*
X132821497Y-105163737D01*
X132967179Y-105103394D01*
X133098289Y-105015789D01*
X133098292Y-105015786D01*
X133135319Y-104978760D01*
X133196642Y-104945275D01*
X133266334Y-104950259D01*
X133310681Y-104978760D01*
X133347707Y-105015786D01*
X133347711Y-105015789D01*
X133478814Y-105103390D01*
X133478827Y-105103397D01*
X133601454Y-105154190D01*
X133624503Y-105163737D01*
X133779153Y-105194499D01*
X133779156Y-105194500D01*
X133779158Y-105194500D01*
X133936844Y-105194500D01*
X133936845Y-105194499D01*
X134091497Y-105163737D01*
X134237179Y-105103394D01*
X134368289Y-105015789D01*
X134479789Y-104904289D01*
X134567394Y-104773179D01*
X134627737Y-104627497D01*
X134658500Y-104472842D01*
X134658500Y-104315158D01*
X134658500Y-104315155D01*
X134658499Y-104315153D01*
X134646405Y-104254354D01*
X134627737Y-104160503D01*
X134603719Y-104102518D01*
X134567397Y-104014827D01*
X134567390Y-104014814D01*
X134479789Y-103883711D01*
X134479786Y-103883707D01*
X134442760Y-103846681D01*
X134409275Y-103785358D01*
X134414259Y-103715666D01*
X134442760Y-103671319D01*
X134479786Y-103634292D01*
X134479789Y-103634289D01*
X134567394Y-103503179D01*
X134579340Y-103474338D01*
X179304816Y-103474338D01*
X179319178Y-103617545D01*
X179373301Y-103750898D01*
X179373306Y-103750906D01*
X179462805Y-103863607D01*
X179462806Y-103863608D01*
X179580437Y-103946533D01*
X179716666Y-103992958D01*
X179751019Y-103996156D01*
X179754701Y-103996499D01*
X179754703Y-103996499D01*
X179754713Y-103996500D01*
X179754723Y-103996500D01*
X183465287Y-103996500D01*
X183465294Y-103996500D01*
X183503334Y-103992958D01*
X183639563Y-103946533D01*
X183757194Y-103863607D01*
X183846697Y-103750901D01*
X183900821Y-103617544D01*
X183915183Y-103474340D01*
X183910016Y-103436488D01*
X183866318Y-103248586D01*
X183870306Y-103178832D01*
X183911373Y-103122306D01*
X183976481Y-103096955D01*
X183987095Y-103096500D01*
X186662727Y-103096500D01*
X186662734Y-103096500D01*
X186863771Y-103070032D01*
X186863772Y-103070032D01*
X186890229Y-103066550D01*
X186890234Y-103066548D01*
X186890239Y-103066548D01*
X187111887Y-103007158D01*
X187283927Y-102935896D01*
X187323879Y-102919348D01*
X187323880Y-102919346D01*
X187323888Y-102919344D01*
X187373842Y-102890503D01*
X187522612Y-102804611D01*
X187600533Y-102744820D01*
X187646784Y-102709331D01*
X187646784Y-102709329D01*
X187683487Y-102681167D01*
X187704655Y-102664925D01*
X187704666Y-102664915D01*
X187922915Y-102446666D01*
X187922920Y-102446661D01*
X188062610Y-102264612D01*
X188177344Y-102065888D01*
X188265158Y-101853887D01*
X188324549Y-101632239D01*
X188354499Y-101404734D01*
X188354499Y-101175266D01*
X188324549Y-100947761D01*
X188265158Y-100726113D01*
X188177344Y-100514112D01*
X188062610Y-100315388D01*
X188062605Y-100315382D01*
X188062603Y-100315378D01*
X187922921Y-100133340D01*
X187922915Y-100133333D01*
X187760666Y-99971084D01*
X187760659Y-99971078D01*
X187578621Y-99831396D01*
X187578615Y-99831392D01*
X187578612Y-99831390D01*
X187379888Y-99716656D01*
X187379884Y-99716654D01*
X187167887Y-99628842D01*
X187027686Y-99591275D01*
X186946239Y-99569451D01*
X186946236Y-99569450D01*
X186946233Y-99569450D01*
X186718735Y-99539501D01*
X186718734Y-99539501D01*
X186489266Y-99539501D01*
X186489265Y-99539501D01*
X186261766Y-99569450D01*
X186261757Y-99569452D01*
X186180313Y-99591275D01*
X186148220Y-99595500D01*
X183115235Y-99595500D01*
X183048196Y-99575815D01*
X183002441Y-99523011D01*
X182994458Y-99499588D01*
X182970000Y-99394419D01*
X182887932Y-99041528D01*
X182860533Y-98966437D01*
X182777608Y-98848806D01*
X182777607Y-98848805D01*
X182664906Y-98759306D01*
X182664898Y-98759301D01*
X182592008Y-98729718D01*
X182531549Y-98705179D01*
X182531541Y-98705177D01*
X182486697Y-98699708D01*
X182452198Y-98695500D01*
X180767803Y-98695500D01*
X180720194Y-98701307D01*
X180688452Y-98705179D01*
X180555103Y-98759300D01*
X180555093Y-98759306D01*
X180442393Y-98848805D01*
X180442392Y-98848807D01*
X180419608Y-98881127D01*
X180359467Y-98966437D01*
X180332067Y-99041530D01*
X180250000Y-99394418D01*
X179309984Y-103436481D01*
X179304816Y-103474338D01*
X134579340Y-103474338D01*
X134595021Y-103436481D01*
X134596884Y-103431984D01*
X134596884Y-103431983D01*
X134627737Y-103357497D01*
X134658500Y-103202842D01*
X134658500Y-103045158D01*
X134658500Y-103045155D01*
X134658499Y-103045153D01*
X134650568Y-103005282D01*
X134627737Y-102890503D01*
X134572719Y-102757676D01*
X134567397Y-102744827D01*
X134567393Y-102744820D01*
X134543680Y-102709331D01*
X134527349Y-102684890D01*
X134506472Y-102618214D01*
X134524956Y-102550834D01*
X134527338Y-102547125D01*
X134567394Y-102487179D01*
X134627737Y-102341497D01*
X134658500Y-102186842D01*
X134658500Y-102029158D01*
X134658500Y-102029155D01*
X134658499Y-102029153D01*
X134627737Y-101874503D01*
X134582587Y-101765500D01*
X134567397Y-101728827D01*
X134567390Y-101728814D01*
X134479789Y-101597711D01*
X134479786Y-101597707D01*
X134442760Y-101560681D01*
X134409275Y-101499358D01*
X134414259Y-101429666D01*
X134442760Y-101385319D01*
X134479786Y-101348292D01*
X134479789Y-101348289D01*
X134567394Y-101217179D01*
X134627737Y-101071497D01*
X134658500Y-100916842D01*
X134658500Y-100759158D01*
X134658500Y-100759155D01*
X134658499Y-100759153D01*
X134636468Y-100648397D01*
X134627737Y-100604503D01*
X134604350Y-100548041D01*
X134567397Y-100458827D01*
X134567390Y-100458814D01*
X134479789Y-100327711D01*
X134479786Y-100327707D01*
X134368292Y-100216213D01*
X134368288Y-100216210D01*
X134237185Y-100128609D01*
X134237172Y-100128602D01*
X134091501Y-100068264D01*
X134091489Y-100068261D01*
X133936845Y-100037500D01*
X133936842Y-100037500D01*
X133779158Y-100037500D01*
X133779155Y-100037500D01*
X133624510Y-100068261D01*
X133624498Y-100068264D01*
X133478827Y-100128602D01*
X133478814Y-100128609D01*
X133347711Y-100216210D01*
X133347707Y-100216213D01*
X133236213Y-100327707D01*
X133236210Y-100327711D01*
X133148609Y-100458814D01*
X133148602Y-100458827D01*
X133088264Y-100604498D01*
X133088261Y-100604510D01*
X133057500Y-100759153D01*
X133057500Y-100916846D01*
X133088261Y-101071489D01*
X133088264Y-101071501D01*
X133148602Y-101217172D01*
X133148609Y-101217185D01*
X133236210Y-101348288D01*
X133236213Y-101348292D01*
X133273240Y-101385319D01*
X133306725Y-101446642D01*
X133301741Y-101516334D01*
X133273240Y-101560681D01*
X133236213Y-101597707D01*
X133236210Y-101597711D01*
X133148609Y-101728814D01*
X133148602Y-101728827D01*
X133088264Y-101874498D01*
X133088261Y-101874510D01*
X133057500Y-102029153D01*
X133057500Y-102186846D01*
X133088261Y-102341489D01*
X133088264Y-102341501D01*
X133148602Y-102487171D01*
X133148609Y-102487184D01*
X133188650Y-102547109D01*
X133209528Y-102613787D01*
X133191043Y-102681167D01*
X133188650Y-102684891D01*
X133148609Y-102744815D01*
X133148602Y-102744828D01*
X133088264Y-102890498D01*
X133088261Y-102890510D01*
X133057500Y-103045153D01*
X133057500Y-103202846D01*
X133088261Y-103357489D01*
X133088264Y-103357501D01*
X133148602Y-103503172D01*
X133148609Y-103503185D01*
X133167601Y-103531608D01*
X133188479Y-103598286D01*
X133169994Y-103665666D01*
X133118016Y-103712356D01*
X133049046Y-103723532D01*
X132995608Y-103703601D01*
X132967185Y-103684609D01*
X132967172Y-103684602D01*
X132821501Y-103624264D01*
X132821489Y-103624261D01*
X132666845Y-103593500D01*
X132666842Y-103593500D01*
X132509158Y-103593500D01*
X132509155Y-103593500D01*
X132354510Y-103624261D01*
X132354498Y-103624264D01*
X132208827Y-103684602D01*
X132208814Y-103684609D01*
X132077711Y-103772210D01*
X132077707Y-103772213D01*
X132040681Y-103809240D01*
X131979358Y-103842725D01*
X131909666Y-103837741D01*
X131865319Y-103809240D01*
X131828292Y-103772213D01*
X131828288Y-103772210D01*
X131697185Y-103684609D01*
X131697172Y-103684602D01*
X131551501Y-103624264D01*
X131551489Y-103624261D01*
X131396845Y-103593500D01*
X131396842Y-103593500D01*
X131239158Y-103593500D01*
X131239155Y-103593500D01*
X131084510Y-103624261D01*
X131084498Y-103624264D01*
X130938827Y-103684602D01*
X130938811Y-103684611D01*
X130910389Y-103703602D01*
X130843712Y-103724479D01*
X130776332Y-103705994D01*
X130729642Y-103654014D01*
X130718467Y-103585044D01*
X130738398Y-103531608D01*
X130757394Y-103503179D01*
X130817737Y-103357497D01*
X130848500Y-103202842D01*
X130848500Y-103045158D01*
X130848500Y-103045155D01*
X130848499Y-103045153D01*
X130840568Y-103005282D01*
X130817737Y-102890503D01*
X130762719Y-102757676D01*
X130757397Y-102744827D01*
X130757393Y-102744820D01*
X130733680Y-102709331D01*
X130717349Y-102684890D01*
X130696472Y-102618214D01*
X130714956Y-102550834D01*
X130717338Y-102547125D01*
X130757394Y-102487179D01*
X130817737Y-102341497D01*
X130848500Y-102186842D01*
X130848500Y-102029158D01*
X130848500Y-102029155D01*
X130848499Y-102029153D01*
X130817737Y-101874503D01*
X130772587Y-101765500D01*
X130757397Y-101728827D01*
X130757390Y-101728814D01*
X130669789Y-101597711D01*
X130669786Y-101597707D01*
X130632760Y-101560681D01*
X130599275Y-101499358D01*
X130604259Y-101429666D01*
X130632760Y-101385319D01*
X130669786Y-101348292D01*
X130669789Y-101348289D01*
X130757394Y-101217179D01*
X130817737Y-101071497D01*
X130848500Y-100916842D01*
X130848500Y-100759158D01*
X130848500Y-100759155D01*
X130848499Y-100759153D01*
X130826468Y-100648397D01*
X130817737Y-100604503D01*
X130794350Y-100548041D01*
X130757397Y-100458827D01*
X130757390Y-100458814D01*
X130669789Y-100327711D01*
X130669786Y-100327707D01*
X130558292Y-100216213D01*
X130558288Y-100216210D01*
X130427185Y-100128609D01*
X130427172Y-100128602D01*
X130281501Y-100068264D01*
X130281489Y-100068261D01*
X130126845Y-100037500D01*
X130126842Y-100037500D01*
X129969158Y-100037500D01*
X129969155Y-100037500D01*
X129814510Y-100068261D01*
X129814498Y-100068264D01*
X129668827Y-100128602D01*
X129668814Y-100128609D01*
X129537711Y-100216210D01*
X129537707Y-100216213D01*
X129426213Y-100327707D01*
X129426210Y-100327711D01*
X129338609Y-100458814D01*
X129338602Y-100458827D01*
X129278264Y-100604498D01*
X129278261Y-100604510D01*
X129247500Y-100759153D01*
X120790238Y-100759153D01*
X120784738Y-100731508D01*
X120784737Y-100731507D01*
X120784737Y-100731503D01*
X120750314Y-100648397D01*
X120724397Y-100585827D01*
X120724390Y-100585814D01*
X120636789Y-100454711D01*
X120636786Y-100454707D01*
X120525292Y-100343213D01*
X120525288Y-100343210D01*
X120394185Y-100255609D01*
X120394172Y-100255602D01*
X120248501Y-100195264D01*
X120248489Y-100195261D01*
X120093845Y-100164500D01*
X120093842Y-100164500D01*
X119936158Y-100164500D01*
X119936155Y-100164500D01*
X119781510Y-100195261D01*
X119781498Y-100195264D01*
X119635827Y-100255602D01*
X119635814Y-100255609D01*
X119504711Y-100343210D01*
X119504707Y-100343213D01*
X119467681Y-100380240D01*
X119406358Y-100413725D01*
X119336666Y-100408741D01*
X119292319Y-100380240D01*
X119255292Y-100343213D01*
X119255288Y-100343210D01*
X119124185Y-100255609D01*
X119124172Y-100255602D01*
X118978501Y-100195264D01*
X118978489Y-100195261D01*
X118823845Y-100164500D01*
X118823842Y-100164500D01*
X118666158Y-100164500D01*
X118666155Y-100164500D01*
X118511510Y-100195261D01*
X118511498Y-100195264D01*
X118365827Y-100255602D01*
X118365814Y-100255609D01*
X118234711Y-100343210D01*
X118234707Y-100343213D01*
X118123213Y-100454707D01*
X118123210Y-100454711D01*
X118035609Y-100585814D01*
X118035602Y-100585827D01*
X117975264Y-100731498D01*
X117975261Y-100731510D01*
X117944500Y-100886153D01*
X87738700Y-100886153D01*
X87738700Y-96486477D01*
X111201200Y-96486477D01*
X111201200Y-97683322D01*
X111231990Y-97877726D01*
X111292817Y-98064929D01*
X111382175Y-98240303D01*
X111382176Y-98240305D01*
X111497872Y-98399546D01*
X111637054Y-98538728D01*
X111796295Y-98654424D01*
X111876912Y-98695500D01*
X111971670Y-98743782D01*
X111971672Y-98743782D01*
X111971675Y-98743784D01*
X112019447Y-98759306D01*
X112158873Y-98804609D01*
X112353278Y-98835400D01*
X112353283Y-98835400D01*
X112550122Y-98835400D01*
X112744526Y-98804609D01*
X112931725Y-98743784D01*
X113107105Y-98654424D01*
X113266346Y-98538728D01*
X113405528Y-98399546D01*
X113521224Y-98240305D01*
X113610584Y-98064925D01*
X113611215Y-98063687D01*
X113659189Y-98012890D01*
X113727010Y-97996095D01*
X113793145Y-98018632D01*
X113832185Y-98063687D01*
X113922174Y-98240303D01*
X113956934Y-98288146D01*
X114037872Y-98399546D01*
X114177054Y-98538728D01*
X114336295Y-98654424D01*
X114416912Y-98695500D01*
X114511670Y-98743782D01*
X114511672Y-98743782D01*
X114511675Y-98743784D01*
X114559447Y-98759306D01*
X114698873Y-98804609D01*
X114893278Y-98835400D01*
X114893283Y-98835400D01*
X115090122Y-98835400D01*
X115284526Y-98804609D01*
X115471725Y-98743784D01*
X115647105Y-98654424D01*
X115696038Y-98618872D01*
X201263500Y-98618872D01*
X201263500Y-98881127D01*
X201284619Y-99041529D01*
X201297730Y-99141116D01*
X201365602Y-99394418D01*
X201365605Y-99394428D01*
X201465953Y-99636690D01*
X201465958Y-99636700D01*
X201597075Y-99863803D01*
X201756718Y-100071851D01*
X201756726Y-100071860D01*
X201942140Y-100257274D01*
X201942148Y-100257281D01*
X202150196Y-100416924D01*
X202377299Y-100548041D01*
X202377309Y-100548046D01*
X202619571Y-100648394D01*
X202619581Y-100648398D01*
X202872884Y-100716270D01*
X203132880Y-100750500D01*
X203132887Y-100750500D01*
X203395113Y-100750500D01*
X203395120Y-100750500D01*
X203655116Y-100716270D01*
X203908419Y-100648398D01*
X204150697Y-100548043D01*
X204377803Y-100416924D01*
X204585851Y-100257282D01*
X204585855Y-100257277D01*
X204585860Y-100257274D01*
X204771274Y-100071860D01*
X204771277Y-100071855D01*
X204771282Y-100071851D01*
X204930924Y-99863803D01*
X205062043Y-99636697D01*
X205162398Y-99394419D01*
X205230270Y-99141116D01*
X205264500Y-98881120D01*
X205264500Y-98618880D01*
X205230270Y-98358884D01*
X205162398Y-98105581D01*
X205162394Y-98105571D01*
X205062046Y-97863309D01*
X205062041Y-97863299D01*
X204930924Y-97636196D01*
X204771281Y-97428148D01*
X204771274Y-97428140D01*
X204585860Y-97242726D01*
X204585851Y-97242718D01*
X204377803Y-97083075D01*
X204150700Y-96951958D01*
X204150690Y-96951953D01*
X203908428Y-96851605D01*
X203908421Y-96851603D01*
X203908419Y-96851602D01*
X203655116Y-96783730D01*
X203597339Y-96776123D01*
X203395127Y-96749500D01*
X203395120Y-96749500D01*
X203132880Y-96749500D01*
X203132872Y-96749500D01*
X202901772Y-96779926D01*
X202872884Y-96783730D01*
X202619581Y-96851602D01*
X202619571Y-96851605D01*
X202377309Y-96951953D01*
X202377299Y-96951958D01*
X202150196Y-97083075D01*
X201942148Y-97242718D01*
X201756718Y-97428148D01*
X201597075Y-97636196D01*
X201465958Y-97863299D01*
X201465953Y-97863309D01*
X201365605Y-98105571D01*
X201365602Y-98105581D01*
X201297730Y-98358885D01*
X201263500Y-98618872D01*
X115696038Y-98618872D01*
X115806346Y-98538728D01*
X115945528Y-98399546D01*
X116061224Y-98240305D01*
X116150584Y-98064925D01*
X116211409Y-97877726D01*
X116213694Y-97863299D01*
X116242200Y-97683322D01*
X116242200Y-96486477D01*
X116211409Y-96292073D01*
X116150582Y-96104870D01*
X116061223Y-95929494D01*
X115945528Y-95770254D01*
X115806346Y-95631072D01*
X115647105Y-95515376D01*
X115471729Y-95426017D01*
X115284526Y-95365190D01*
X115090122Y-95334400D01*
X115090117Y-95334400D01*
X114893283Y-95334400D01*
X114893278Y-95334400D01*
X114698873Y-95365190D01*
X114511670Y-95426017D01*
X114336294Y-95515376D01*
X114245441Y-95581385D01*
X114177054Y-95631072D01*
X114177052Y-95631074D01*
X114177051Y-95631074D01*
X114037874Y-95770251D01*
X114037874Y-95770252D01*
X114037872Y-95770254D01*
X113988185Y-95838641D01*
X113922176Y-95929494D01*
X113832185Y-96106113D01*
X113784211Y-96156909D01*
X113716390Y-96173704D01*
X113650255Y-96151167D01*
X113611215Y-96106113D01*
X113521223Y-95929494D01*
X113405528Y-95770254D01*
X113266346Y-95631072D01*
X113107105Y-95515376D01*
X112931729Y-95426017D01*
X112744526Y-95365190D01*
X112550122Y-95334400D01*
X112550117Y-95334400D01*
X112353283Y-95334400D01*
X112353278Y-95334400D01*
X112158873Y-95365190D01*
X111971670Y-95426017D01*
X111796294Y-95515376D01*
X111705441Y-95581385D01*
X111637054Y-95631072D01*
X111637052Y-95631074D01*
X111637051Y-95631074D01*
X111497874Y-95770251D01*
X111497874Y-95770252D01*
X111497872Y-95770254D01*
X111448185Y-95838641D01*
X111382176Y-95929494D01*
X111292817Y-96104870D01*
X111231990Y-96292073D01*
X111201200Y-96486477D01*
X87738700Y-96486477D01*
X87738700Y-95209635D01*
X185103500Y-95209635D01*
X185103500Y-97210370D01*
X185103501Y-97210376D01*
X185109908Y-97269983D01*
X185160202Y-97404828D01*
X185160206Y-97404835D01*
X185246452Y-97520044D01*
X185246455Y-97520047D01*
X185361664Y-97606293D01*
X185361671Y-97606297D01*
X185496517Y-97656591D01*
X185496516Y-97656591D01*
X185503444Y-97657335D01*
X185556127Y-97663000D01*
X187651872Y-97662999D01*
X187711483Y-97656591D01*
X187846331Y-97606296D01*
X187961546Y-97520046D01*
X188047796Y-97404831D01*
X188098091Y-97269983D01*
X188104500Y-97210373D01*
X188104499Y-95209628D01*
X188098091Y-95150017D01*
X188047796Y-95015169D01*
X188047795Y-95015168D01*
X188047793Y-95015164D01*
X187961547Y-94899955D01*
X187961544Y-94899952D01*
X187846335Y-94813706D01*
X187846328Y-94813702D01*
X187711482Y-94763408D01*
X187711483Y-94763408D01*
X187651883Y-94757001D01*
X187651881Y-94757000D01*
X187651873Y-94757000D01*
X187651864Y-94757000D01*
X185556129Y-94757000D01*
X185556123Y-94757001D01*
X185496516Y-94763408D01*
X185361671Y-94813702D01*
X185361664Y-94813706D01*
X185246455Y-94899952D01*
X185246452Y-94899955D01*
X185160206Y-95015164D01*
X185160202Y-95015171D01*
X185109908Y-95150017D01*
X185103501Y-95209616D01*
X185103501Y-95209623D01*
X185103500Y-95209635D01*
X87738700Y-95209635D01*
X87738700Y-90055646D01*
X185128900Y-90055646D01*
X185128900Y-90284353D01*
X185164678Y-90510246D01*
X185164678Y-90510249D01*
X185235350Y-90727755D01*
X185281440Y-90818211D01*
X185339183Y-90931538D01*
X185473614Y-91116566D01*
X185635334Y-91278286D01*
X185820362Y-91412717D01*
X186024142Y-91516548D01*
X186024144Y-91516549D01*
X186241651Y-91587221D01*
X186241652Y-91587221D01*
X186241655Y-91587222D01*
X186467546Y-91623000D01*
X186467547Y-91623000D01*
X186791253Y-91623000D01*
X186791254Y-91623000D01*
X187017145Y-91587222D01*
X187017148Y-91587221D01*
X187017149Y-91587221D01*
X187234655Y-91516549D01*
X187234655Y-91516548D01*
X187234658Y-91516548D01*
X187438438Y-91412717D01*
X187509410Y-91361153D01*
X193255500Y-91361153D01*
X193255500Y-91518846D01*
X193286261Y-91673489D01*
X193286264Y-91673501D01*
X193346602Y-91819172D01*
X193346609Y-91819185D01*
X193434210Y-91950288D01*
X193434213Y-91950292D01*
X193471240Y-91987319D01*
X193504725Y-92048642D01*
X193499741Y-92118334D01*
X193471240Y-92162681D01*
X193434213Y-92199707D01*
X193434210Y-92199711D01*
X193346609Y-92330814D01*
X193346602Y-92330827D01*
X193286264Y-92476498D01*
X193286261Y-92476510D01*
X193255500Y-92631153D01*
X193255500Y-92788846D01*
X193286261Y-92943489D01*
X193286264Y-92943501D01*
X193346602Y-93089172D01*
X193346609Y-93089185D01*
X193434210Y-93220288D01*
X193434213Y-93220292D01*
X193471240Y-93257319D01*
X193504725Y-93318642D01*
X193499741Y-93388334D01*
X193471240Y-93432681D01*
X193434213Y-93469707D01*
X193434210Y-93469711D01*
X193346609Y-93600814D01*
X193346602Y-93600827D01*
X193286264Y-93746498D01*
X193286261Y-93746510D01*
X193255500Y-93901153D01*
X193255500Y-94058846D01*
X193286261Y-94213489D01*
X193286264Y-94213501D01*
X193346602Y-94359172D01*
X193346609Y-94359185D01*
X193434210Y-94490288D01*
X193434213Y-94490292D01*
X193545707Y-94601786D01*
X193545711Y-94601789D01*
X193676814Y-94689390D01*
X193676827Y-94689397D01*
X193822498Y-94749735D01*
X193822503Y-94749737D01*
X193977153Y-94780499D01*
X193977156Y-94780500D01*
X193977158Y-94780500D01*
X194134844Y-94780500D01*
X194134845Y-94780499D01*
X194289497Y-94749737D01*
X194435179Y-94689394D01*
X194566289Y-94601789D01*
X194677789Y-94490289D01*
X194765394Y-94359179D01*
X194825737Y-94213497D01*
X194856500Y-94058842D01*
X194856500Y-93901158D01*
X194856500Y-93901155D01*
X194856499Y-93901153D01*
X194825738Y-93746510D01*
X194825737Y-93746503D01*
X194818192Y-93728288D01*
X194765397Y-93600827D01*
X194765390Y-93600814D01*
X194677789Y-93469711D01*
X194677786Y-93469707D01*
X194640760Y-93432681D01*
X194607275Y-93371358D01*
X194612259Y-93301666D01*
X194640760Y-93257319D01*
X194677786Y-93220292D01*
X194677789Y-93220289D01*
X194765394Y-93089179D01*
X194825737Y-92943497D01*
X194856500Y-92788842D01*
X194856500Y-92631158D01*
X194856500Y-92631155D01*
X194856499Y-92631153D01*
X194849549Y-92596213D01*
X194825737Y-92476503D01*
X194812130Y-92443652D01*
X194765397Y-92330827D01*
X194765390Y-92330814D01*
X194677789Y-92199711D01*
X194677786Y-92199707D01*
X194640760Y-92162681D01*
X194607275Y-92101358D01*
X194612259Y-92031666D01*
X194640760Y-91987319D01*
X194677786Y-91950292D01*
X194677789Y-91950289D01*
X194765394Y-91819179D01*
X194825737Y-91673497D01*
X194856500Y-91518842D01*
X194856500Y-91361158D01*
X194856500Y-91361155D01*
X194856499Y-91361153D01*
X199553600Y-91361153D01*
X199553600Y-91518846D01*
X199584361Y-91673489D01*
X199584364Y-91673501D01*
X199644702Y-91819172D01*
X199644709Y-91819185D01*
X199732310Y-91950288D01*
X199732313Y-91950292D01*
X199843807Y-92061786D01*
X199843811Y-92061789D01*
X199974914Y-92149390D01*
X199974927Y-92149397D01*
X200096388Y-92199707D01*
X200120603Y-92209737D01*
X200143778Y-92214347D01*
X200205689Y-92246730D01*
X200240264Y-92307445D01*
X200236525Y-92377215D01*
X200195660Y-92433888D01*
X200167041Y-92450525D01*
X200026823Y-92508604D01*
X200026814Y-92508609D01*
X199895711Y-92596210D01*
X199895707Y-92596213D01*
X199784213Y-92707707D01*
X199784210Y-92707711D01*
X199696609Y-92838814D01*
X199696602Y-92838827D01*
X199636264Y-92984498D01*
X199636261Y-92984510D01*
X199605500Y-93139153D01*
X199605500Y-93296846D01*
X199636261Y-93451489D01*
X199636264Y-93451501D01*
X199696602Y-93597172D01*
X199696609Y-93597185D01*
X199784210Y-93728288D01*
X199784213Y-93728292D01*
X199895707Y-93839786D01*
X199895711Y-93839789D01*
X200026814Y-93927390D01*
X200026827Y-93927397D01*
X200172498Y-93987735D01*
X200172503Y-93987737D01*
X200327153Y-94018499D01*
X200327156Y-94018500D01*
X200327158Y-94018500D01*
X200484844Y-94018500D01*
X200484845Y-94018499D01*
X200639497Y-93987737D01*
X200785179Y-93927394D01*
X200916289Y-93839789D01*
X201027789Y-93728289D01*
X201115394Y-93597179D01*
X201175737Y-93451497D01*
X201206500Y-93296842D01*
X201206500Y-93139158D01*
X201206500Y-93139155D01*
X201206499Y-93139153D01*
X201175738Y-92984510D01*
X201175737Y-92984503D01*
X201158749Y-92943489D01*
X201115397Y-92838827D01*
X201115390Y-92838814D01*
X201027789Y-92707711D01*
X201027786Y-92707707D01*
X200916292Y-92596213D01*
X200916288Y-92596210D01*
X200785185Y-92508609D01*
X200785172Y-92508602D01*
X200639501Y-92448264D01*
X200639491Y-92448261D01*
X200616319Y-92443652D01*
X200554408Y-92411266D01*
X200519834Y-92350550D01*
X200523575Y-92280781D01*
X200564442Y-92224109D01*
X200593049Y-92207478D01*
X200733279Y-92149394D01*
X200864389Y-92061789D01*
X200975889Y-91950289D01*
X201063494Y-91819179D01*
X201123837Y-91673497D01*
X201154600Y-91518842D01*
X201154600Y-91361158D01*
X201154600Y-91361155D01*
X201154599Y-91361153D01*
X201123837Y-91206503D01*
X201086585Y-91116567D01*
X201063497Y-91060827D01*
X201063490Y-91060814D01*
X200975889Y-90929711D01*
X200975886Y-90929707D01*
X200864392Y-90818213D01*
X200864388Y-90818210D01*
X200733285Y-90730609D01*
X200733272Y-90730602D01*
X200587601Y-90670264D01*
X200587589Y-90670261D01*
X200432945Y-90639500D01*
X200432942Y-90639500D01*
X200275258Y-90639500D01*
X200275255Y-90639500D01*
X200120610Y-90670261D01*
X200120598Y-90670264D01*
X199974927Y-90730602D01*
X199974914Y-90730609D01*
X199843811Y-90818210D01*
X199843807Y-90818213D01*
X199732313Y-90929707D01*
X199732310Y-90929711D01*
X199644709Y-91060814D01*
X199644702Y-91060827D01*
X199584364Y-91206498D01*
X199584361Y-91206510D01*
X199553600Y-91361153D01*
X194856499Y-91361153D01*
X194825737Y-91206503D01*
X194788485Y-91116567D01*
X194765397Y-91060827D01*
X194765390Y-91060814D01*
X194677789Y-90929711D01*
X194677786Y-90929707D01*
X194566292Y-90818213D01*
X194566288Y-90818210D01*
X194435185Y-90730609D01*
X194435172Y-90730602D01*
X194289501Y-90670264D01*
X194289489Y-90670261D01*
X194134845Y-90639500D01*
X194134842Y-90639500D01*
X193977158Y-90639500D01*
X193977155Y-90639500D01*
X193822510Y-90670261D01*
X193822498Y-90670264D01*
X193676827Y-90730602D01*
X193676814Y-90730609D01*
X193545711Y-90818210D01*
X193545707Y-90818213D01*
X193434213Y-90929707D01*
X193434210Y-90929711D01*
X193346609Y-91060814D01*
X193346602Y-91060827D01*
X193286264Y-91206498D01*
X193286261Y-91206510D01*
X193255500Y-91361153D01*
X187509410Y-91361153D01*
X187623466Y-91278286D01*
X187785186Y-91116566D01*
X187919617Y-90931538D01*
X188023448Y-90727758D01*
X188094122Y-90510245D01*
X188129900Y-90284354D01*
X188129900Y-90055646D01*
X188094122Y-89829755D01*
X188094121Y-89829751D01*
X188094121Y-89829750D01*
X188023449Y-89612244D01*
X187980725Y-89528394D01*
X187919617Y-89408462D01*
X187785186Y-89223434D01*
X187623466Y-89061714D01*
X187438438Y-88927283D01*
X187234655Y-88823450D01*
X187017148Y-88752778D01*
X186847726Y-88725944D01*
X186791254Y-88717000D01*
X186467546Y-88717000D01*
X186392249Y-88728926D01*
X186241653Y-88752778D01*
X186241650Y-88752778D01*
X186024144Y-88823450D01*
X185820361Y-88927283D01*
X185714796Y-89003980D01*
X185635334Y-89061714D01*
X185635332Y-89061716D01*
X185635331Y-89061716D01*
X185473616Y-89223431D01*
X185473616Y-89223432D01*
X185473614Y-89223434D01*
X185420220Y-89296924D01*
X185339183Y-89408461D01*
X185235350Y-89612244D01*
X185164678Y-89829750D01*
X185164678Y-89829753D01*
X185128900Y-90055646D01*
X87738700Y-90055646D01*
X87738700Y-87498872D01*
X201288900Y-87498872D01*
X201288900Y-87761127D01*
X201315523Y-87963339D01*
X201323130Y-88021116D01*
X201391002Y-88274418D01*
X201391005Y-88274428D01*
X201491353Y-88516690D01*
X201491358Y-88516700D01*
X201622475Y-88743803D01*
X201782118Y-88951851D01*
X201782126Y-88951860D01*
X201967540Y-89137274D01*
X201967548Y-89137281D01*
X202175596Y-89296924D01*
X202402699Y-89428041D01*
X202402709Y-89428046D01*
X202644971Y-89528394D01*
X202644981Y-89528398D01*
X202898284Y-89596270D01*
X203158280Y-89630500D01*
X203158287Y-89630500D01*
X203420513Y-89630500D01*
X203420520Y-89630500D01*
X203680516Y-89596270D01*
X203933819Y-89528398D01*
X204176097Y-89428043D01*
X204403203Y-89296924D01*
X204611251Y-89137282D01*
X204611255Y-89137277D01*
X204611260Y-89137274D01*
X204796674Y-88951860D01*
X204796677Y-88951855D01*
X204796682Y-88951851D01*
X204956324Y-88743803D01*
X205087443Y-88516697D01*
X205187798Y-88274419D01*
X205255670Y-88021116D01*
X205289900Y-87761120D01*
X205289900Y-87498880D01*
X205255670Y-87238884D01*
X205187798Y-86985581D01*
X205187794Y-86985571D01*
X205087446Y-86743309D01*
X205087441Y-86743299D01*
X204956324Y-86516196D01*
X204796681Y-86308148D01*
X204796674Y-86308140D01*
X204611260Y-86122726D01*
X204611251Y-86122718D01*
X204403203Y-85963075D01*
X204176100Y-85831958D01*
X204176090Y-85831953D01*
X203933828Y-85731605D01*
X203933821Y-85731603D01*
X203933819Y-85731602D01*
X203680516Y-85663730D01*
X203622739Y-85656123D01*
X203420527Y-85629500D01*
X203420520Y-85629500D01*
X203158280Y-85629500D01*
X203158272Y-85629500D01*
X202927172Y-85659926D01*
X202898284Y-85663730D01*
X202644981Y-85731602D01*
X202644971Y-85731605D01*
X202402709Y-85831953D01*
X202402699Y-85831958D01*
X202175596Y-85963075D01*
X201967548Y-86122718D01*
X201782118Y-86308148D01*
X201622475Y-86516196D01*
X201491358Y-86743299D01*
X201491353Y-86743309D01*
X201391005Y-86985571D01*
X201391002Y-86985581D01*
X201323130Y-87238885D01*
X201288900Y-87498872D01*
X87738700Y-87498872D01*
X87738700Y-84089635D01*
X185128900Y-84089635D01*
X185128900Y-86090370D01*
X185128901Y-86090376D01*
X185135308Y-86149983D01*
X185185602Y-86284828D01*
X185185606Y-86284835D01*
X185271852Y-86400044D01*
X185271855Y-86400047D01*
X185387064Y-86486293D01*
X185387071Y-86486297D01*
X185521917Y-86536591D01*
X185521916Y-86536591D01*
X185528844Y-86537335D01*
X185581527Y-86543000D01*
X187677272Y-86542999D01*
X187736883Y-86536591D01*
X187871731Y-86486296D01*
X187986946Y-86400046D01*
X188073196Y-86284831D01*
X188123491Y-86149983D01*
X188129900Y-86090373D01*
X188129899Y-84089628D01*
X188123491Y-84030017D01*
X188073196Y-83895169D01*
X188073195Y-83895168D01*
X188073193Y-83895164D01*
X187986947Y-83779955D01*
X187986944Y-83779952D01*
X187871735Y-83693706D01*
X187871728Y-83693702D01*
X187736882Y-83643408D01*
X187736883Y-83643408D01*
X187677283Y-83637001D01*
X187677281Y-83637000D01*
X187677273Y-83637000D01*
X187677264Y-83637000D01*
X185581529Y-83637000D01*
X185581523Y-83637001D01*
X185521916Y-83643408D01*
X185387071Y-83693702D01*
X185387064Y-83693706D01*
X185271855Y-83779952D01*
X185271852Y-83779955D01*
X185185606Y-83895164D01*
X185185602Y-83895171D01*
X185135308Y-84030017D01*
X185128901Y-84089616D01*
X185128901Y-84089623D01*
X185128900Y-84089635D01*
X87738700Y-84089635D01*
X87738700Y-77072511D01*
X90038500Y-77072511D01*
X90038500Y-77315088D01*
X90070161Y-77555585D01*
X90132947Y-77789904D01*
X90225773Y-78014005D01*
X90225776Y-78014012D01*
X90347064Y-78224089D01*
X90347066Y-78224092D01*
X90347067Y-78224093D01*
X90494733Y-78416536D01*
X90494739Y-78416543D01*
X90666256Y-78588060D01*
X90666262Y-78588065D01*
X90858711Y-78735736D01*
X91068788Y-78857024D01*
X91292900Y-78949854D01*
X91527211Y-79012638D01*
X91707586Y-79036384D01*
X91767711Y-79044300D01*
X91767712Y-79044300D01*
X92010289Y-79044300D01*
X92058388Y-79037967D01*
X92250789Y-79012638D01*
X92485100Y-78949854D01*
X92709212Y-78857024D01*
X92919289Y-78735736D01*
X93111738Y-78588065D01*
X93283265Y-78416538D01*
X93430936Y-78224089D01*
X93552224Y-78014012D01*
X93645054Y-77789900D01*
X93707838Y-77555589D01*
X93739500Y-77315088D01*
X93739500Y-77072512D01*
X93739500Y-77072511D01*
X222736300Y-77072511D01*
X222736300Y-77315088D01*
X222767961Y-77555585D01*
X222830747Y-77789904D01*
X222923573Y-78014005D01*
X222923576Y-78014012D01*
X223044864Y-78224089D01*
X223044866Y-78224092D01*
X223044867Y-78224093D01*
X223192533Y-78416536D01*
X223192539Y-78416543D01*
X223364056Y-78588060D01*
X223364062Y-78588065D01*
X223556511Y-78735736D01*
X223766588Y-78857024D01*
X223990700Y-78949854D01*
X224225011Y-79012638D01*
X224405386Y-79036384D01*
X224465511Y-79044300D01*
X224465512Y-79044300D01*
X224708089Y-79044300D01*
X224756188Y-79037967D01*
X224948589Y-79012638D01*
X225182900Y-78949854D01*
X225407012Y-78857024D01*
X225617089Y-78735736D01*
X225809538Y-78588065D01*
X225981065Y-78416538D01*
X226128736Y-78224089D01*
X226250024Y-78014012D01*
X226342854Y-77789900D01*
X226405638Y-77555589D01*
X226437300Y-77315088D01*
X226437300Y-77072512D01*
X226405638Y-76832011D01*
X226342854Y-76597700D01*
X226250024Y-76373588D01*
X226128736Y-76163511D01*
X225981065Y-75971062D01*
X225981060Y-75971056D01*
X225809543Y-75799539D01*
X225809536Y-75799533D01*
X225617093Y-75651867D01*
X225617092Y-75651866D01*
X225617089Y-75651864D01*
X225407012Y-75530576D01*
X225407005Y-75530573D01*
X225182904Y-75437747D01*
X224948585Y-75374961D01*
X224708089Y-75343300D01*
X224708088Y-75343300D01*
X224465512Y-75343300D01*
X224465511Y-75343300D01*
X224225014Y-75374961D01*
X223990695Y-75437747D01*
X223766594Y-75530573D01*
X223766585Y-75530577D01*
X223556506Y-75651867D01*
X223364063Y-75799533D01*
X223364056Y-75799539D01*
X223192539Y-75971056D01*
X223192533Y-75971063D01*
X223044867Y-76163506D01*
X222923577Y-76373585D01*
X222923573Y-76373594D01*
X222830747Y-76597695D01*
X222767961Y-76832014D01*
X222736300Y-77072511D01*
X93739500Y-77072511D01*
X93707838Y-76832011D01*
X93645054Y-76597700D01*
X93552224Y-76373588D01*
X93430936Y-76163511D01*
X93283265Y-75971062D01*
X93283260Y-75971056D01*
X93111743Y-75799539D01*
X93111736Y-75799533D01*
X92919293Y-75651867D01*
X92919292Y-75651866D01*
X92919289Y-75651864D01*
X92709212Y-75530576D01*
X92709205Y-75530573D01*
X92485104Y-75437747D01*
X92250785Y-75374961D01*
X92010289Y-75343300D01*
X92010288Y-75343300D01*
X91767712Y-75343300D01*
X91767711Y-75343300D01*
X91527214Y-75374961D01*
X91292895Y-75437747D01*
X91068794Y-75530573D01*
X91068785Y-75530577D01*
X90858706Y-75651867D01*
X90666263Y-75799533D01*
X90666256Y-75799539D01*
X90494739Y-75971056D01*
X90494733Y-75971063D01*
X90347067Y-76163506D01*
X90225777Y-76373585D01*
X90225773Y-76373594D01*
X90132947Y-76597695D01*
X90070161Y-76832014D01*
X90038500Y-77072511D01*
X87738700Y-77072511D01*
X87738700Y-73929300D01*
X87758385Y-73862261D01*
X87811189Y-73816506D01*
X87862700Y-73805300D01*
X228613700Y-73805300D01*
X228680739Y-73824985D01*
G37*
%TD.AperFunction*%
%TD*%
%TA.AperFunction,Conductor*%
%TO.N,Motor_Out-*%
G36*
X228680739Y-110255685D02*
G01*
X228726494Y-110308489D01*
X228737700Y-110360000D01*
X228737700Y-145680300D01*
X228718015Y-145747339D01*
X228665211Y-145793094D01*
X228613700Y-145804300D01*
X186716081Y-145804300D01*
X186649042Y-145784615D01*
X186603287Y-145731811D01*
X186592085Y-145679321D01*
X186618802Y-142294424D01*
X222736300Y-142294424D01*
X222736300Y-142537001D01*
X222767961Y-142777498D01*
X222830747Y-143011817D01*
X222923573Y-143235918D01*
X222923576Y-143235925D01*
X223044864Y-143446002D01*
X223044866Y-143446005D01*
X223044867Y-143446006D01*
X223192533Y-143638449D01*
X223192539Y-143638456D01*
X223364056Y-143809973D01*
X223364062Y-143809978D01*
X223556511Y-143957649D01*
X223766588Y-144078937D01*
X223990700Y-144171767D01*
X224225011Y-144234551D01*
X224405386Y-144258297D01*
X224465511Y-144266213D01*
X224465512Y-144266213D01*
X224708089Y-144266213D01*
X224756188Y-144259880D01*
X224948589Y-144234551D01*
X225182900Y-144171767D01*
X225407012Y-144078937D01*
X225617089Y-143957649D01*
X225809538Y-143809978D01*
X225981065Y-143638451D01*
X226128736Y-143446002D01*
X226250024Y-143235925D01*
X226342854Y-143011813D01*
X226405638Y-142777502D01*
X226437300Y-142537001D01*
X226437300Y-142294425D01*
X226405638Y-142053924D01*
X226342854Y-141819613D01*
X226250024Y-141595501D01*
X226128736Y-141385424D01*
X225981065Y-141192975D01*
X225981060Y-141192969D01*
X225809543Y-141021452D01*
X225809536Y-141021446D01*
X225617093Y-140873780D01*
X225617092Y-140873779D01*
X225617089Y-140873777D01*
X225407012Y-140752489D01*
X225407005Y-140752486D01*
X225182904Y-140659660D01*
X224948585Y-140596874D01*
X224708089Y-140565213D01*
X224708088Y-140565213D01*
X224465512Y-140565213D01*
X224465511Y-140565213D01*
X224225014Y-140596874D01*
X223990695Y-140659660D01*
X223766594Y-140752486D01*
X223766585Y-140752490D01*
X223556506Y-140873780D01*
X223364063Y-141021446D01*
X223364056Y-141021452D01*
X223192539Y-141192969D01*
X223192533Y-141192976D01*
X223044867Y-141385419D01*
X222923577Y-141595498D01*
X222923573Y-141595507D01*
X222830747Y-141819608D01*
X222767961Y-142053927D01*
X222736300Y-142294424D01*
X186618802Y-142294424D01*
X186618842Y-142289387D01*
X186659582Y-137128021D01*
X186679795Y-137061139D01*
X186732958Y-137015803D01*
X186783578Y-137005000D01*
X186873499Y-137005000D01*
X186873506Y-137005000D01*
X187127329Y-136971583D01*
X187374618Y-136905322D01*
X187611143Y-136807350D01*
X187832857Y-136679344D01*
X188035965Y-136523493D01*
X188216993Y-136342465D01*
X188372844Y-136139357D01*
X188500850Y-135917643D01*
X188598822Y-135681118D01*
X188665083Y-135433829D01*
X188698500Y-135180006D01*
X188698500Y-134923994D01*
X188665083Y-134670171D01*
X188598822Y-134422882D01*
X188500850Y-134186357D01*
X188404390Y-134019282D01*
X188372847Y-133964647D01*
X188216988Y-133761529D01*
X188035970Y-133580511D01*
X187832852Y-133424652D01*
X187611146Y-133296651D01*
X187611131Y-133296644D01*
X187374616Y-133198677D01*
X187259849Y-133167925D01*
X187127329Y-133132417D01*
X187070923Y-133124991D01*
X186873513Y-133099000D01*
X186873506Y-133099000D01*
X186816365Y-133099000D01*
X186749326Y-133079315D01*
X186703571Y-133026511D01*
X186692369Y-132974024D01*
X186697051Y-132380872D01*
X201357500Y-132380872D01*
X201357500Y-132643127D01*
X201384123Y-132845339D01*
X201391730Y-132903116D01*
X201438942Y-133079315D01*
X201459602Y-133156418D01*
X201459605Y-133156428D01*
X201559953Y-133398690D01*
X201559958Y-133398700D01*
X201691075Y-133625803D01*
X201850718Y-133833851D01*
X201850726Y-133833860D01*
X202036140Y-134019274D01*
X202036148Y-134019281D01*
X202244196Y-134178924D01*
X202471299Y-134310041D01*
X202471309Y-134310046D01*
X202713571Y-134410394D01*
X202713581Y-134410398D01*
X202966884Y-134478270D01*
X203226880Y-134512500D01*
X203226887Y-134512500D01*
X203489113Y-134512500D01*
X203489120Y-134512500D01*
X203749116Y-134478270D01*
X204002419Y-134410398D01*
X204244697Y-134310043D01*
X204471803Y-134178924D01*
X204679851Y-134019282D01*
X204679855Y-134019277D01*
X204679860Y-134019274D01*
X204865274Y-133833860D01*
X204865277Y-133833855D01*
X204865282Y-133833851D01*
X205024924Y-133625803D01*
X205156043Y-133398697D01*
X205256398Y-133156419D01*
X205324270Y-132903116D01*
X205358500Y-132643120D01*
X205358500Y-132380880D01*
X205324270Y-132120884D01*
X205256398Y-131867581D01*
X205252599Y-131858409D01*
X205156046Y-131625309D01*
X205156041Y-131625299D01*
X205024924Y-131398196D01*
X204865281Y-131190148D01*
X204865274Y-131190140D01*
X204679860Y-131004726D01*
X204679851Y-131004718D01*
X204471803Y-130845075D01*
X204244700Y-130713958D01*
X204244690Y-130713953D01*
X204002428Y-130613605D01*
X204002421Y-130613603D01*
X204002419Y-130613602D01*
X203749116Y-130545730D01*
X203691339Y-130538123D01*
X203489127Y-130511500D01*
X203489120Y-130511500D01*
X203226880Y-130511500D01*
X203226872Y-130511500D01*
X202995772Y-130541926D01*
X202966884Y-130545730D01*
X202713581Y-130613602D01*
X202713571Y-130613605D01*
X202471309Y-130713953D01*
X202471299Y-130713958D01*
X202244196Y-130845075D01*
X202036148Y-131004718D01*
X201850718Y-131190148D01*
X201691075Y-131398196D01*
X201559958Y-131625299D01*
X201559953Y-131625309D01*
X201459605Y-131867571D01*
X201459602Y-131867581D01*
X201391730Y-132120885D01*
X201357500Y-132380872D01*
X186697051Y-132380872D01*
X186699678Y-132048017D01*
X186719891Y-131981138D01*
X186773055Y-131935802D01*
X186823671Y-131924999D01*
X187756036Y-131924999D01*
X187875418Y-131914386D01*
X188071049Y-131858409D01*
X188251407Y-131764198D01*
X188409109Y-131635609D01*
X188537698Y-131477907D01*
X188631909Y-131297549D01*
X188687886Y-131101918D01*
X188698500Y-130982537D01*
X188698499Y-128961464D01*
X188687886Y-128842082D01*
X188631909Y-128646451D01*
X188537698Y-128466093D01*
X188485684Y-128402303D01*
X188409109Y-128308390D01*
X188251409Y-128179804D01*
X188251410Y-128179804D01*
X188251407Y-128179802D01*
X188071049Y-128085591D01*
X188071048Y-128085590D01*
X188071045Y-128085589D01*
X187953829Y-128052050D01*
X187875418Y-128029614D01*
X187875415Y-128029613D01*
X187875413Y-128029613D01*
X187802631Y-128023142D01*
X187756037Y-128019000D01*
X187756033Y-128019000D01*
X186856463Y-128019000D01*
X186843685Y-128015248D01*
X199257900Y-128015248D01*
X199257900Y-128219951D01*
X199289922Y-128422134D01*
X199353181Y-128616823D01*
X199446115Y-128799213D01*
X199566428Y-128964813D01*
X199711186Y-129109571D01*
X199866149Y-129222156D01*
X199876790Y-129229887D01*
X199993007Y-129289103D01*
X200059176Y-129322818D01*
X200059178Y-129322818D01*
X200059181Y-129322820D01*
X200163537Y-129356727D01*
X200253865Y-129386077D01*
X200354957Y-129402088D01*
X200456048Y-129418100D01*
X200456049Y-129418100D01*
X200660751Y-129418100D01*
X200660752Y-129418100D01*
X200862934Y-129386077D01*
X201057619Y-129322820D01*
X201240010Y-129229887D01*
X201332990Y-129162332D01*
X201405613Y-129109571D01*
X201405615Y-129109568D01*
X201405619Y-129109566D01*
X201550366Y-128964819D01*
X201550368Y-128964815D01*
X201550371Y-128964813D01*
X201639537Y-128842084D01*
X201670687Y-128799210D01*
X201763620Y-128616819D01*
X201826877Y-128422134D01*
X201858900Y-128219952D01*
X201858900Y-128015248D01*
X201826877Y-127813066D01*
X201795410Y-127716224D01*
X201793416Y-127646384D01*
X201802857Y-127621612D01*
X201865218Y-127499223D01*
X201865218Y-127499222D01*
X201865220Y-127499219D01*
X201928477Y-127304534D01*
X201960500Y-127102352D01*
X201960500Y-126897648D01*
X201928477Y-126695466D01*
X201865220Y-126500781D01*
X201865218Y-126500778D01*
X201865218Y-126500776D01*
X201831503Y-126434607D01*
X201772287Y-126318390D01*
X201764556Y-126307749D01*
X201651971Y-126152786D01*
X201507213Y-126008028D01*
X201341613Y-125887715D01*
X201341612Y-125887714D01*
X201341610Y-125887713D01*
X201260101Y-125846182D01*
X201159223Y-125794781D01*
X200964534Y-125731522D01*
X200789995Y-125703878D01*
X200762352Y-125699500D01*
X200557648Y-125699500D01*
X200533329Y-125703351D01*
X200355465Y-125731522D01*
X200160776Y-125794781D01*
X199978386Y-125887715D01*
X199812786Y-126008028D01*
X199668028Y-126152786D01*
X199547715Y-126318386D01*
X199454781Y-126500776D01*
X199391522Y-126695465D01*
X199359500Y-126897648D01*
X199359500Y-127102351D01*
X199391522Y-127304534D01*
X199422988Y-127401373D01*
X199424983Y-127471215D01*
X199415542Y-127495986D01*
X199353179Y-127618380D01*
X199353179Y-127618381D01*
X199289923Y-127813061D01*
X199289923Y-127813064D01*
X199257900Y-128015248D01*
X186843685Y-128015248D01*
X186789424Y-127999315D01*
X186743669Y-127946511D01*
X186732467Y-127894021D01*
X186747396Y-126002621D01*
X186767609Y-125935739D01*
X186820772Y-125890403D01*
X186871392Y-125879600D01*
X186931899Y-125879600D01*
X186931906Y-125879600D01*
X187185729Y-125846183D01*
X187433018Y-125779922D01*
X187669543Y-125681950D01*
X187825381Y-125591976D01*
X187891252Y-125553947D01*
X187891252Y-125553946D01*
X187891257Y-125553944D01*
X188094365Y-125398093D01*
X188275393Y-125217065D01*
X188431244Y-125013957D01*
X188559250Y-124792243D01*
X188657222Y-124555718D01*
X188723483Y-124308429D01*
X188750443Y-124103648D01*
X191104500Y-124103648D01*
X191104500Y-124308351D01*
X191136522Y-124510534D01*
X191199781Y-124705223D01*
X191292715Y-124887613D01*
X191413028Y-125053213D01*
X191557786Y-125197971D01*
X191712749Y-125310556D01*
X191723390Y-125318287D01*
X191839607Y-125377503D01*
X191905776Y-125411218D01*
X191905778Y-125411218D01*
X191905781Y-125411220D01*
X192010137Y-125445127D01*
X192100465Y-125474477D01*
X192201557Y-125490488D01*
X192302648Y-125506500D01*
X192302649Y-125506500D01*
X192507351Y-125506500D01*
X192507352Y-125506500D01*
X192709534Y-125474477D01*
X192709539Y-125474475D01*
X192709541Y-125474475D01*
X192755478Y-125459549D01*
X192825319Y-125457552D01*
X192885153Y-125493632D01*
X192915982Y-125556332D01*
X192908018Y-125625747D01*
X192904283Y-125633773D01*
X192850782Y-125738773D01*
X192787522Y-125933465D01*
X192755500Y-126135648D01*
X192755500Y-126340351D01*
X192787522Y-126542534D01*
X192850781Y-126737223D01*
X192943715Y-126919613D01*
X193064028Y-127085213D01*
X193208786Y-127229971D01*
X193359148Y-127339213D01*
X193374390Y-127350287D01*
X193474652Y-127401373D01*
X193556776Y-127443218D01*
X193556778Y-127443218D01*
X193556781Y-127443220D01*
X193661137Y-127477127D01*
X193751465Y-127506477D01*
X193852557Y-127522488D01*
X193953648Y-127538500D01*
X193953649Y-127538500D01*
X194158351Y-127538500D01*
X194158352Y-127538500D01*
X194360534Y-127506477D01*
X194403558Y-127492496D01*
X194473399Y-127490500D01*
X194514763Y-127510109D01*
X194553841Y-127538500D01*
X194644390Y-127604287D01*
X194727010Y-127646384D01*
X194826776Y-127697218D01*
X194826778Y-127697218D01*
X194826781Y-127697220D01*
X194931137Y-127731127D01*
X195021465Y-127760477D01*
X195122557Y-127776488D01*
X195223648Y-127792500D01*
X195223649Y-127792500D01*
X195428351Y-127792500D01*
X195428352Y-127792500D01*
X195630534Y-127760477D01*
X195825219Y-127697220D01*
X196007610Y-127604287D01*
X196137236Y-127510109D01*
X196173213Y-127483971D01*
X196173215Y-127483968D01*
X196173219Y-127483966D01*
X196317966Y-127339219D01*
X196317968Y-127339215D01*
X196317971Y-127339213D01*
X196370732Y-127266590D01*
X196438287Y-127173610D01*
X196531220Y-126991219D01*
X196594477Y-126796534D01*
X196626500Y-126594352D01*
X196626500Y-126389648D01*
X196594477Y-126187466D01*
X196531220Y-125992781D01*
X196531218Y-125992778D01*
X196531218Y-125992776D01*
X196497503Y-125926607D01*
X196438287Y-125810390D01*
X196430556Y-125799749D01*
X196317971Y-125644786D01*
X196173219Y-125500034D01*
X196164407Y-125493632D01*
X196116125Y-125458553D01*
X196073460Y-125403224D01*
X196067481Y-125333610D01*
X196071077Y-125319929D01*
X196086477Y-125272534D01*
X196118500Y-125070352D01*
X196118500Y-124865648D01*
X196086477Y-124663466D01*
X196023220Y-124468781D01*
X196023218Y-124468778D01*
X196023218Y-124468776D01*
X195941515Y-124308427D01*
X195930287Y-124286390D01*
X195922556Y-124275749D01*
X195809971Y-124120786D01*
X195665213Y-123976028D01*
X195499613Y-123855715D01*
X195499612Y-123855714D01*
X195499610Y-123855713D01*
X195387520Y-123798600D01*
X195317223Y-123762781D01*
X195122534Y-123699522D01*
X194947995Y-123671878D01*
X194920352Y-123667500D01*
X194715648Y-123667500D01*
X194691329Y-123671351D01*
X194513465Y-123699522D01*
X194318776Y-123762781D01*
X194136386Y-123855715D01*
X193970788Y-123976027D01*
X193896406Y-124050409D01*
X193835082Y-124083893D01*
X193765391Y-124078908D01*
X193709457Y-124037037D01*
X193686252Y-123982124D01*
X193685287Y-123976034D01*
X193673477Y-123901466D01*
X193610220Y-123706781D01*
X193610218Y-123706778D01*
X193610218Y-123706776D01*
X193576503Y-123640607D01*
X193517287Y-123524390D01*
X193509556Y-123513749D01*
X193396971Y-123358786D01*
X193252213Y-123214028D01*
X193086613Y-123093715D01*
X193086612Y-123093714D01*
X193086610Y-123093713D01*
X193029653Y-123064691D01*
X192904223Y-123000781D01*
X192709534Y-122937522D01*
X192534995Y-122909878D01*
X192507352Y-122905500D01*
X192302648Y-122905500D01*
X192278329Y-122909351D01*
X192100465Y-122937522D01*
X191905776Y-123000781D01*
X191723386Y-123093715D01*
X191557786Y-123214028D01*
X191413028Y-123358786D01*
X191292715Y-123524386D01*
X191199781Y-123706776D01*
X191136522Y-123901465D01*
X191104500Y-124103648D01*
X188750443Y-124103648D01*
X188756900Y-124054606D01*
X188756900Y-123798594D01*
X188723483Y-123544771D01*
X188657222Y-123297482D01*
X188559250Y-123060957D01*
X188487986Y-122937523D01*
X188431247Y-122839247D01*
X188275388Y-122636129D01*
X188094370Y-122455111D01*
X187891252Y-122299252D01*
X187669546Y-122171251D01*
X187669531Y-122171244D01*
X187433016Y-122073277D01*
X187318249Y-122042525D01*
X187185729Y-122007017D01*
X187129323Y-121999591D01*
X186931913Y-121973600D01*
X186931906Y-121973600D01*
X186904180Y-121973600D01*
X186837141Y-121953915D01*
X186791386Y-121901111D01*
X186780184Y-121848621D01*
X186782796Y-121517713D01*
X186784866Y-121255472D01*
X201415900Y-121255472D01*
X201415900Y-121517727D01*
X201442523Y-121719939D01*
X201450130Y-121777716D01*
X201497342Y-121953915D01*
X201518002Y-122031018D01*
X201518005Y-122031028D01*
X201618353Y-122273290D01*
X201618358Y-122273300D01*
X201749475Y-122500403D01*
X201909118Y-122708451D01*
X201909126Y-122708460D01*
X202094540Y-122893874D01*
X202094548Y-122893881D01*
X202302596Y-123053524D01*
X202529699Y-123184641D01*
X202529709Y-123184646D01*
X202771971Y-123284994D01*
X202771981Y-123284998D01*
X203025284Y-123352870D01*
X203285280Y-123387100D01*
X203285287Y-123387100D01*
X203547513Y-123387100D01*
X203547520Y-123387100D01*
X203807516Y-123352870D01*
X204060819Y-123284998D01*
X204303097Y-123184643D01*
X204530203Y-123053524D01*
X204738251Y-122893882D01*
X204738255Y-122893877D01*
X204738260Y-122893874D01*
X204923674Y-122708460D01*
X204923677Y-122708455D01*
X204923682Y-122708451D01*
X205083324Y-122500403D01*
X205214443Y-122273297D01*
X205314798Y-122031019D01*
X205382670Y-121777716D01*
X205416900Y-121517720D01*
X205416900Y-121255480D01*
X205382670Y-120995484D01*
X205314798Y-120742181D01*
X205310999Y-120733009D01*
X205214446Y-120499909D01*
X205214441Y-120499899D01*
X205083324Y-120272796D01*
X204923681Y-120064748D01*
X204923674Y-120064740D01*
X204738260Y-119879326D01*
X204738251Y-119879318D01*
X204530203Y-119719675D01*
X204303100Y-119588558D01*
X204303090Y-119588553D01*
X204060828Y-119488205D01*
X204060821Y-119488203D01*
X204060819Y-119488202D01*
X203807516Y-119420330D01*
X203749739Y-119412723D01*
X203547527Y-119386100D01*
X203547520Y-119386100D01*
X203285280Y-119386100D01*
X203285272Y-119386100D01*
X203054172Y-119416526D01*
X203025284Y-119420330D01*
X202771981Y-119488202D01*
X202771971Y-119488205D01*
X202529709Y-119588553D01*
X202529699Y-119588558D01*
X202302596Y-119719675D01*
X202094548Y-119879318D01*
X201909118Y-120064748D01*
X201749475Y-120272796D01*
X201618358Y-120499899D01*
X201618353Y-120499909D01*
X201518005Y-120742171D01*
X201518002Y-120742181D01*
X201450130Y-120995485D01*
X201415900Y-121255472D01*
X186784866Y-121255472D01*
X186787493Y-120922619D01*
X186807706Y-120855738D01*
X186860870Y-120810402D01*
X186911487Y-120799599D01*
X187814436Y-120799599D01*
X187933818Y-120788986D01*
X188129449Y-120733009D01*
X188309807Y-120638798D01*
X188467509Y-120510209D01*
X188596098Y-120352507D01*
X188690309Y-120172149D01*
X188746286Y-119976518D01*
X188756900Y-119857137D01*
X188756899Y-117836064D01*
X188746286Y-117716682D01*
X188690309Y-117521051D01*
X188596098Y-117340693D01*
X188544084Y-117276903D01*
X188467509Y-117182990D01*
X188309809Y-117054404D01*
X188309810Y-117054404D01*
X188309807Y-117054402D01*
X188129449Y-116960191D01*
X188129448Y-116960190D01*
X188129445Y-116960189D01*
X188012229Y-116926650D01*
X187933818Y-116904214D01*
X187933815Y-116904213D01*
X187933813Y-116904213D01*
X187861031Y-116897742D01*
X187814437Y-116893600D01*
X187814433Y-116893600D01*
X186944276Y-116893600D01*
X186877237Y-116873915D01*
X186831482Y-116821111D01*
X186820281Y-116768626D01*
X186870873Y-110359021D01*
X186891086Y-110292139D01*
X186944249Y-110246803D01*
X186994869Y-110236000D01*
X228613700Y-110236000D01*
X228680739Y-110255685D01*
G37*
%TD.AperFunction*%
%TD*%
M02*
