%TF.GenerationSoftware,KiCad,Pcbnew,9.0.3*%
%TF.CreationDate,2025-09-25T14:59:41+01:00*%
%TF.ProjectId,MC,4d432e6b-6963-4616-945f-706362585858,rev?*%
%TF.SameCoordinates,Original*%
%TF.FileFunction,Soldermask,Bot*%
%TF.FilePolarity,Negative*%
%FSLAX46Y46*%
G04 Gerber Fmt 4.6, Leading zero omitted, Abs format (unit mm)*
G04 Created by KiCad (PCBNEW 9.0.3) date 2025-09-25 14:59:41*
%MOMM*%
%LPD*%
G01*
G04 APERTURE LIST*
G04 Aperture macros list*
%AMRoundRect*
0 Rectangle with rounded corners*
0 $1 Rounding radius*
0 $2 $3 $4 $5 $6 $7 $8 $9 X,Y pos of 4 corners*
0 Add a 4 corners polygon primitive as box body*
4,1,4,$2,$3,$4,$5,$6,$7,$8,$9,$2,$3,0*
0 Add four circle primitives for the rounded corners*
1,1,$1+$1,$2,$3*
1,1,$1+$1,$4,$5*
1,1,$1+$1,$6,$7*
1,1,$1+$1,$8,$9*
0 Add four rect primitives between the rounded corners*
20,1,$1+$1,$2,$3,$4,$5,0*
20,1,$1+$1,$4,$5,$6,$7,0*
20,1,$1+$1,$6,$7,$8,$9,0*
20,1,$1+$1,$8,$9,$2,$3,0*%
%AMOutline4P*
0 Free polygon, 4 corners , with rotation*
0 The origin of the aperture is its center*
0 number of corners: always 4*
0 $1 to $8 corner X, Y*
0 $9 Rotation angle, in degrees counterclockwise*
0 create outline with 4 corners*
4,1,4,$1,$2,$3,$4,$5,$6,$7,$8,$1,$2,$9*%
G04 Aperture macros list end*
%ADD10R,1.500000X2.500000*%
%ADD11O,1.500000X2.500000*%
%ADD12C,3.200000*%
%ADD13C,2.910000*%
%ADD14C,2.300000*%
%ADD15Outline4P,-2.150000X-1.800000X2.150000X-0.800000X2.150000X0.800000X-2.150000X1.800000X90.000000*%
%ADD16Outline4P,-2.150000X-1.800000X2.150000X-0.800000X2.150000X0.800000X-2.150000X1.800000X270.000000*%
%ADD17C,3.500000*%
%ADD18R,2.000000X1.905000*%
%ADD19O,2.000000X1.905000*%
%ADD20RoundRect,0.237500X0.237500X-0.250000X0.237500X0.250000X-0.237500X0.250000X-0.237500X-0.250000X0*%
G04 APERTURE END LIST*
D10*
%TO.C,U5*%
X109911700Y-97084900D03*
D11*
X112451700Y-97084900D03*
X114991700Y-97084900D03*
%TD*%
D12*
%TO.C,REF\u002A\u002A*%
X224586800Y-142415713D03*
%TD*%
D13*
%TO.C,J1*%
X92659200Y-116687600D03*
X92659200Y-103387600D03*
%TD*%
D12*
%TO.C,REF\u002A\u002A*%
X91889000Y-77193800D03*
%TD*%
D14*
%TO.C,J4*%
X213868000Y-87884000D03*
X213868000Y-90424000D03*
X213868000Y-92964000D03*
X213868000Y-95504000D03*
X213868000Y-98044000D03*
X216408000Y-87884000D03*
X216408000Y-90424000D03*
X216408000Y-92964000D03*
X216408000Y-95504000D03*
X216408000Y-98044000D03*
X218948000Y-87884000D03*
X218948000Y-90424000D03*
X218948000Y-92964000D03*
X218948000Y-95504000D03*
X218948000Y-98044000D03*
X221488000Y-87884000D03*
X221488000Y-90424000D03*
X221488000Y-92964000D03*
X221488000Y-95504000D03*
X221488000Y-98044000D03*
X224028000Y-87884000D03*
X224028000Y-90424000D03*
X224028000Y-92964000D03*
X224028000Y-95504000D03*
X224028000Y-98044000D03*
%TD*%
%TO.C,J2*%
X92964000Y-126111000D03*
X92964000Y-128651000D03*
X92964000Y-131191000D03*
X92964000Y-133731000D03*
X92964000Y-136271000D03*
X95504000Y-126111000D03*
X95504000Y-128651000D03*
X95504000Y-131191000D03*
X95504000Y-133731000D03*
X95504000Y-136271000D03*
X98044000Y-126111000D03*
X98044000Y-128651000D03*
X98044000Y-131191000D03*
X98044000Y-133731000D03*
X98044000Y-136271000D03*
X100584000Y-126111000D03*
X100584000Y-128651000D03*
X100584000Y-131191000D03*
X100584000Y-133731000D03*
X100584000Y-136271000D03*
X103124000Y-126111000D03*
X103124000Y-128651000D03*
X103124000Y-131191000D03*
X103124000Y-133731000D03*
X103124000Y-136271000D03*
%TD*%
D12*
%TO.C,REF\u002A\u002A*%
X224586800Y-77193800D03*
%TD*%
%TO.C,REF\u002A\u002A*%
X91889000Y-142415713D03*
%TD*%
D14*
%TO.C,J3*%
X213868000Y-121920000D03*
X213868000Y-124460000D03*
X213868000Y-127000000D03*
X213868000Y-129540000D03*
X213868000Y-132080000D03*
X216408000Y-121920000D03*
X216408000Y-124460000D03*
X216408000Y-127000000D03*
X216408000Y-129540000D03*
X216408000Y-132080000D03*
X218948000Y-121920000D03*
X218948000Y-124460000D03*
X218948000Y-127000000D03*
X218948000Y-129540000D03*
X218948000Y-132080000D03*
X221488000Y-121920000D03*
X221488000Y-124460000D03*
X221488000Y-127000000D03*
X221488000Y-129540000D03*
X221488000Y-132080000D03*
X224028000Y-121920000D03*
X224028000Y-124460000D03*
X224028000Y-127000000D03*
X224028000Y-129540000D03*
X224028000Y-132080000D03*
%TD*%
%TO.C,J5*%
X93000000Y-83185000D03*
X93000000Y-85725000D03*
X93000000Y-88265000D03*
X93000000Y-90805000D03*
X93000000Y-93345000D03*
X95540000Y-83185000D03*
X95540000Y-85725000D03*
X95540000Y-88265000D03*
X95540000Y-90805000D03*
X95540000Y-93345000D03*
X98080000Y-83185000D03*
X98080000Y-85725000D03*
X98080000Y-88265000D03*
X98080000Y-90805000D03*
X98080000Y-93345000D03*
X100620000Y-83185000D03*
X100620000Y-85725000D03*
X100620000Y-88265000D03*
X100620000Y-90805000D03*
X100620000Y-93345000D03*
X103160000Y-83185000D03*
X103160000Y-85725000D03*
X103160000Y-88265000D03*
X103160000Y-90805000D03*
X103160000Y-93345000D03*
%TD*%
D15*
%TO.C,D7*%
X180848000Y-121158000D03*
D16*
X180848000Y-114758000D03*
%TD*%
D17*
%TO.C,Q1*%
X203289400Y-87630000D03*
D18*
X186629400Y-85090000D03*
D19*
X186629400Y-87630000D03*
X186629400Y-90170000D03*
%TD*%
D20*
%TO.C,R27*%
X115028400Y-131178100D03*
X115028400Y-129353100D03*
%TD*%
%TO.C,R34*%
X122504200Y-131216300D03*
X122504200Y-129391300D03*
%TD*%
%TO.C,R33*%
X120599200Y-131165600D03*
X120599200Y-129340600D03*
%TD*%
D17*
%TO.C,Q4*%
X203416400Y-121386600D03*
D18*
X186756400Y-118846600D03*
D19*
X186756400Y-121386600D03*
X186756400Y-123926600D03*
%TD*%
D16*
%TO.C,D6*%
X181610000Y-94946000D03*
D15*
X181610000Y-101346000D03*
%TD*%
D17*
%TO.C,Q3*%
X203264000Y-98750000D03*
D18*
X186604000Y-96210000D03*
D19*
X186604000Y-98750000D03*
X186604000Y-101290000D03*
%TD*%
D20*
%TO.C,R26*%
X113080800Y-131161800D03*
X113080800Y-129336800D03*
%TD*%
D17*
%TO.C,Q2*%
X203358000Y-132512000D03*
D18*
X186698000Y-129972000D03*
D19*
X186698000Y-132512000D03*
X186698000Y-135052000D03*
%TD*%
D20*
%TO.C,R29*%
X118830600Y-131199700D03*
X118830600Y-129374700D03*
%TD*%
%TO.C,R25*%
X111159800Y-131178100D03*
X111159800Y-129353100D03*
%TD*%
%TO.C,R28*%
X116883400Y-131165300D03*
X116883400Y-129340300D03*
%TD*%
M02*
