M48
; DRILL file {KiCad 9.0.3} date 2025-09-25T14:59:43+0100
; FORMAT={-:-/ absolute / metric / decimal}
; #@! TF.CreationDate,2025-09-25T14:59:43+01:00
; #@! TF.GenerationSoftware,Kicad,Pcbnew,9.0.3
; #@! TF.FileFunction,Plated,1,4,PTH
FMAT,2
METRIC
; #@! TA.AperFunction,Plated,PTH,ViaDrill
T1C0.300
; #@! TA.AperFunction,Plated,PTH,ViaDrill
T2C0.500
; #@! TA.AperFunction,Plated,PTH,ViaDrill
T3C0.600
; #@! TA.AperFunction,Plated,PTH,ComponentDrill
T4C1.000
; #@! TA.AperFunction,Plated,PTH,ComponentDrill
T5C1.100
; #@! TA.AperFunction,Plated,PTH,ComponentDrill
T6C1.600
; #@! TA.AperFunction,Plated,PTH,ComponentDrill
T7C2.410
%
G90
G05
T1
X88.9Y-110.49
X88.9Y-114.3
X88.9Y-119.38
X88.9Y-121.92
X88.9Y-124.46
X88.9Y-129.54
X88.9Y-134.62
X88.9Y-139.7
X88.9Y-142.24
X88.9Y-144.78
X89.027Y-83.185
X89.027Y-85.725
X89.027Y-88.265
X89.027Y-90.805
X89.027Y-93.345
X90.17Y-125.095
X90.17Y-127.635
X90.17Y-130.175
X90.17Y-132.715
X90.17Y-135.255
X90.805Y-126.365
X90.805Y-128.905
X90.805Y-131.445
X90.805Y-133.985
X90.805Y-136.525
X91.44Y-96.52
X91.44Y-99.06
X91.44Y-110.49
X91.44Y-114.3
X91.44Y-138.43
X91.567Y-121.793
X92.71Y-80.645
X92.71Y-95.885
X92.71Y-98.425
X92.71Y-137.795
X92.71Y-140.335
X93.98Y-80.01
X93.98Y-96.52
X93.98Y-99.06
X93.98Y-138.43
X93.98Y-140.97
X93.98Y-144.78
X95.25Y-78.105
X95.25Y-80.645
X95.25Y-95.885
X95.25Y-98.425
X95.25Y-137.795
X95.25Y-140.335
X95.885Y-107.315
X96.52Y-77.47
X96.52Y-80.01
X96.52Y-96.52
X96.52Y-99.06
X96.52Y-115.57
X96.52Y-138.43
X96.52Y-140.97
X97.155Y-121.92
X97.79Y-78.105
X97.79Y-80.645
X97.79Y-95.885
X97.79Y-98.425
X97.79Y-107.315
X97.79Y-115.57
X97.79Y-137.795
X97.79Y-140.335
X99.06Y-77.47
X99.06Y-80.01
X99.06Y-96.52
X99.06Y-99.06
X99.06Y-138.43
X99.06Y-140.97
X99.695Y-107.315
X100.33Y-78.105
X100.33Y-80.645
X100.33Y-95.885
X100.33Y-98.425
X100.33Y-137.795
X100.33Y-140.335
X101.6Y-77.47
X101.6Y-80.01
X101.6Y-96.52
X101.6Y-99.06
X101.6Y-138.43
X101.6Y-140.97
X102.87Y-78.105
X102.87Y-80.645
X102.87Y-95.885
X102.87Y-98.425
X102.87Y-121.666
X102.87Y-137.795
X102.87Y-140.335
X104.14Y-77.47
X104.14Y-80.01
X104.14Y-96.52
X104.14Y-99.06
X104.14Y-116.84
X104.14Y-118.745
X104.14Y-138.43
X104.14Y-140.97
X104.14Y-144.78
X105.41Y-83.185
X105.41Y-85.725
X105.41Y-88.265
X105.41Y-90.805
X105.41Y-93.345
X105.41Y-110.49
X105.41Y-113.03
X105.41Y-115.57
X105.41Y-127.635
X105.41Y-130.175
X105.41Y-132.715
X105.41Y-135.255
X106.045Y-81.915
X106.045Y-84.455
X106.045Y-86.995
X106.045Y-89.535
X106.045Y-92.075
X106.045Y-94.615
X106.045Y-126.365
X106.045Y-128.905
X106.045Y-131.445
X106.045Y-133.985
X106.045Y-136.525
X106.68Y-76.2
X106.68Y-99.06
X106.68Y-104.445
X106.68Y-127.635
X106.68Y-130.175
X107.622Y-101.928
X107.95Y-83.185
X107.95Y-85.725
X107.95Y-88.265
X107.95Y-90.805
X107.95Y-93.345
X107.95Y-132.715
X107.95Y-135.255
X108.585Y-81.915
X108.585Y-84.455
X108.585Y-86.995
X108.585Y-89.535
X108.585Y-92.075
X108.585Y-94.615
X108.585Y-133.985
X109.068Y-144.932
X109.22Y-114.3
X109.22Y-116.84
X109.22Y-118.745
X111.15Y-133.604
X111.76Y-76.2
X111.76Y-83.82
X111.76Y-88.9
X111.76Y-93.98
X112.141Y-124.46
X112.624Y-127.09
X112.928Y-128.118
X113.03Y-111.76
X113.03Y-114.3
X113.03Y-116.84
X113.081Y-133.604
X115.062Y-133.604
X116.789Y-117.754
X116.84Y-76.2
X116.84Y-83.82
X116.84Y-88.9
X116.84Y-93.98
X116.84Y-111.76
X116.84Y-114.3
X116.84Y-116.205
X116.84Y-142.24
X116.84Y-144.78
X116.883Y-133.604
X117.475Y-104.14
X118.745Y-100.965
X118.831Y-133.604
X118.872Y-104.14
X119.888Y-128.22
X120.015Y-100.965
X120.015Y-111.76
X121.285Y-104.14
X121.92Y-76.2
X121.92Y-83.82
X121.92Y-88.9
X121.92Y-93.98
X121.92Y-142.24
X121.92Y-144.78
X123.19Y-111.76
X124.104Y-138.125
X124.155Y-139.344
X125.095Y-111.76
X125.095Y-114.3
X125.73Y-128.27
X126.644Y-111.455
X126.731Y-124.46
X127.0Y-76.2
X127.0Y-83.82
X127.0Y-88.9
X127.0Y-110.236
X127.0Y-122.432
X127.0Y-142.24
X127.0Y-144.78
X127.254Y-128.016
X127.61Y-111.404
X127.864Y-136.906
X127.914Y-135.382
X128.905Y-118.11
X128.905Y-126.877
X130.048Y-100.838
X130.048Y-102.108
X130.048Y-103.124
X130.048Y-104.394
X130.175Y-107.315
X130.175Y-110.236
X130.175Y-120.65
X130.175Y-123.825
X130.556Y-128.524
X130.556Y-129.54
X130.556Y-130.556
X130.556Y-131.572
X130.556Y-132.588
X131.318Y-104.394
X131.445Y-111.76
X131.445Y-113.284
X132.08Y-76.2
X132.08Y-83.82
X132.08Y-93.98
X132.08Y-121.92
X132.08Y-142.24
X132.08Y-144.78
X132.588Y-104.394
X133.858Y-100.838
X133.858Y-102.108
X133.858Y-103.124
X133.858Y-104.394
X134.62Y-134.62
X136.652Y-120.806
X136.652Y-121.666
X136.652Y-122.682
X136.652Y-123.698
X137.16Y-76.2
X137.16Y-83.82
X137.16Y-93.98
X137.16Y-99.06
X137.16Y-142.24
X137.16Y-144.78
X138.176Y-123.698
X138.43Y-127.0
X139.7Y-101.6
X139.7Y-123.698
X139.7Y-134.62
X141.224Y-122.682
X141.224Y-123.698
X142.24Y-76.2
X142.24Y-83.82
X142.24Y-93.98
X142.24Y-99.06
X142.24Y-142.24
X142.24Y-144.78
X143.256Y-120.65
X143.256Y-121.666
X143.51Y-128.778
X144.272Y-120.65
X144.272Y-122.682
X144.78Y-101.6
X144.78Y-125.73
X144.78Y-134.62
X145.288Y-120.65
X145.288Y-123.698
X146.812Y-120.65
X146.812Y-123.698
X147.32Y-76.2
X147.32Y-88.9
X147.32Y-93.98
X147.32Y-99.06
X147.32Y-119.38
X147.32Y-125.73
X147.32Y-128.27
X147.32Y-142.24
X147.32Y-144.78
X147.828Y-120.65
X147.828Y-121.666
X147.828Y-122.682
X147.828Y-123.698
X147.828Y-132.08
X149.098Y-116.84
X149.098Y-119.38
X149.098Y-125.73
X149.098Y-128.27
X149.86Y-116.84
X149.86Y-119.38
X149.86Y-125.73
X149.86Y-128.27
X149.86Y-134.62
X151.638Y-111.76
X151.638Y-114.3
X151.638Y-116.84
X152.4Y-76.2
X152.4Y-83.82
X152.4Y-88.9
X152.4Y-142.24
X152.4Y-144.78
X154.178Y-132.08
X154.94Y-134.62
X157.48Y-76.2
X157.48Y-83.82
X157.48Y-88.9
X157.48Y-142.24
X157.48Y-144.78
X159.258Y-105.41
X159.258Y-107.95
X159.258Y-111.76
X159.258Y-114.3
X159.258Y-116.84
X160.02Y-134.62
X160.528Y-125.73
X160.528Y-128.27
X161.798Y-92.71
X161.798Y-95.25
X161.798Y-97.79
X161.798Y-100.33
X161.798Y-102.87
X161.798Y-105.41
X161.798Y-114.3
X161.798Y-116.84
X161.798Y-132.08
X162.56Y-76.2
X162.56Y-83.82
X162.56Y-88.9
X162.56Y-142.24
X162.56Y-144.78
X163.068Y-125.73
X163.068Y-128.27
X164.338Y-105.41
X164.338Y-107.95
X164.338Y-111.76
X164.338Y-114.3
X164.338Y-116.84
X165.1Y-134.62
X167.64Y-76.2
X167.64Y-83.82
X167.64Y-88.9
X167.64Y-142.24
X167.64Y-144.78
X169.418Y-132.08
X170.18Y-134.62
X172.72Y-76.2
X172.72Y-83.82
X172.72Y-88.9
X172.72Y-142.24
X172.72Y-144.78
X176.53Y-111.76
X177.8Y-76.2
X177.8Y-132.08
X177.8Y-133.35
X177.8Y-142.24
X177.8Y-144.78
X181.61Y-111.76
X182.88Y-76.2
X182.88Y-142.24
X182.88Y-144.78
X185.42Y-111.76
X187.96Y-76.2
X187.96Y-140.335
X187.96Y-142.24
X187.96Y-144.78
X189.23Y-85.09
X189.23Y-87.63
X189.23Y-90.17
X189.23Y-91.44
X189.23Y-93.98
X189.23Y-96.52
X189.23Y-99.06
X189.23Y-101.6
X189.23Y-104.14
X189.23Y-106.68
X189.23Y-111.76
X189.23Y-114.3
X189.23Y-116.84
X189.23Y-119.38
X189.23Y-123.19
X189.23Y-125.73
X189.23Y-128.27
X189.23Y-130.81
X189.23Y-134.62
X191.77Y-85.09
X191.77Y-87.63
X191.77Y-97.79
X191.77Y-100.33
X191.77Y-102.87
X191.77Y-105.41
X191.77Y-107.95
X191.77Y-111.76
X191.77Y-114.3
X191.77Y-116.84
X191.77Y-119.38
X192.405Y-124.206
X193.04Y-76.2
X193.04Y-142.24
X193.04Y-144.78
X194.056Y-91.44
X194.056Y-92.71
X194.056Y-93.98
X194.056Y-126.238
X194.31Y-85.09
X194.31Y-87.63
X194.818Y-111.76
X194.818Y-114.3
X194.818Y-116.84
X194.818Y-119.38
X194.818Y-121.92
X194.818Y-124.968
X195.326Y-126.492
X195.58Y-139.7
X196.85Y-85.09
X196.85Y-87.63
X198.12Y-76.2
X198.12Y-81.28
X198.12Y-132.08
X198.12Y-137.16
X198.12Y-142.24
X198.12Y-144.78
X199.39Y-111.76
X199.39Y-114.3
X199.39Y-116.84
X199.39Y-119.38
X199.39Y-121.92
X199.898Y-105.41
X199.898Y-107.95
X200.025Y-97.79
X200.025Y-100.33
X200.025Y-102.87
X200.354Y-91.44
X200.406Y-93.218
X200.558Y-128.118
X200.66Y-127.0
X200.66Y-134.62
X200.66Y-139.7
X202.438Y-107.95
X202.603Y-111.783
X203.2Y-76.2
X203.2Y-81.28
X203.2Y-137.16
X203.2Y-142.24
X203.2Y-144.78
X204.978Y-107.95
X204.978Y-111.76
X205.74Y-134.62
X205.74Y-139.7
X207.518Y-107.95
X207.518Y-111.76
X208.28Y-76.2
X208.28Y-81.28
X208.28Y-86.36
X208.28Y-88.9
X208.28Y-91.44
X208.28Y-93.98
X208.28Y-96.52
X208.28Y-99.06
X208.28Y-120.65
X208.28Y-123.19
X208.28Y-125.73
X208.28Y-128.27
X208.28Y-130.81
X208.28Y-133.35
X208.28Y-137.16
X208.28Y-142.24
X208.28Y-144.78
X208.915Y-87.63
X208.915Y-90.17
X208.915Y-92.71
X208.915Y-95.25
X208.915Y-97.79
X208.915Y-121.92
X208.915Y-124.46
X208.915Y-127.0
X208.915Y-129.54
X208.915Y-132.08
X210.058Y-107.95
X210.058Y-111.76
X210.82Y-86.36
X210.82Y-88.9
X210.82Y-91.44
X210.82Y-93.98
X210.82Y-96.52
X210.82Y-99.06
X210.82Y-120.65
X210.82Y-123.19
X210.82Y-125.73
X210.82Y-128.27
X210.82Y-130.81
X210.82Y-133.35
X210.82Y-139.7
X211.455Y-87.63
X211.455Y-90.17
X211.455Y-92.71
X211.455Y-95.25
X211.455Y-97.79
X211.455Y-121.92
X211.455Y-124.46
X211.455Y-127.0
X211.455Y-129.54
X211.455Y-132.08
X212.598Y-107.95
X212.598Y-111.76
X212.725Y-81.915
X212.725Y-84.455
X212.725Y-100.965
X212.725Y-103.505
X212.725Y-116.205
X212.725Y-118.745
X212.725Y-135.255
X212.725Y-137.795
X213.36Y-76.2
X213.36Y-142.24
X213.36Y-144.78
X213.995Y-82.55
X213.995Y-85.09
X213.995Y-100.33
X213.995Y-102.87
X213.995Y-116.84
X213.995Y-119.38
X213.995Y-134.62
X213.995Y-137.16
X215.138Y-107.95
X215.265Y-81.915
X215.265Y-84.455
X215.265Y-100.965
X215.265Y-103.505
X215.265Y-116.205
X215.265Y-118.745
X215.265Y-135.255
X215.265Y-137.795
X215.303Y-111.783
X215.9Y-139.7
X216.535Y-82.55
X216.535Y-85.09
X216.535Y-100.33
X216.535Y-102.87
X216.535Y-116.84
X216.535Y-119.38
X216.535Y-134.62
X216.535Y-137.16
X217.678Y-107.95
X217.678Y-111.76
X217.805Y-81.915
X217.805Y-84.455
X217.805Y-100.965
X217.805Y-103.505
X217.805Y-116.205
X217.805Y-118.745
X217.805Y-135.255
X217.805Y-137.795
X218.44Y-76.2
X218.44Y-142.24
X218.44Y-144.78
X219.075Y-82.55
X219.075Y-85.09
X219.075Y-100.33
X219.075Y-102.87
X219.075Y-116.84
X219.075Y-119.38
X219.075Y-134.62
X219.075Y-137.16
X220.218Y-107.95
X220.218Y-111.76
X220.345Y-81.915
X220.345Y-84.455
X220.345Y-100.965
X220.345Y-103.505
X220.345Y-116.205
X220.345Y-118.745
X220.345Y-135.255
X220.345Y-137.795
X220.98Y-139.7
X221.615Y-82.55
X221.615Y-85.09
X221.615Y-100.33
X221.615Y-102.87
X221.615Y-116.84
X221.615Y-119.38
X221.615Y-134.62
X221.615Y-137.16
X222.758Y-107.95
X222.758Y-111.76
X222.885Y-81.915
X222.885Y-84.455
X222.885Y-100.965
X222.885Y-103.505
X222.885Y-116.205
X222.885Y-118.745
X222.885Y-135.255
X222.885Y-137.795
X224.155Y-82.55
X224.155Y-85.09
X224.155Y-100.33
X224.155Y-102.87
X224.155Y-116.84
X224.155Y-119.38
X224.155Y-134.62
X224.155Y-137.16
X225.298Y-107.95
X225.298Y-111.76
X225.425Y-81.915
X225.425Y-84.455
X225.425Y-100.965
X225.425Y-103.505
X225.425Y-116.205
X225.425Y-118.745
X225.425Y-135.255
X225.425Y-137.795
X227.838Y-87.63
X227.838Y-90.17
X227.838Y-92.71
X227.838Y-95.25
X227.838Y-97.79
X227.838Y-105.41
X227.838Y-107.95
X227.838Y-114.3
X227.838Y-121.92
X227.838Y-124.46
X227.838Y-127.0
X227.838Y-129.54
X227.838Y-132.08
X228.003Y-111.783
T2
X90.17Y-80.645
X90.17Y-95.885
X90.17Y-98.425
X105.41Y-78.105
X105.41Y-80.645
X105.41Y-95.885
X105.41Y-98.425
X107.95Y-80.645
X107.95Y-95.885
X208.915Y-85.09
X208.915Y-100.33
X208.915Y-119.38
X208.915Y-134.62
X211.455Y-82.55
X211.455Y-85.09
X211.455Y-100.33
X211.455Y-102.87
X211.455Y-116.84
X211.455Y-119.38
X211.455Y-134.62
X211.455Y-137.16
X226.695Y-82.55
X226.695Y-85.09
X226.695Y-100.33
X226.695Y-102.87
X226.695Y-116.84
X226.695Y-119.38
X226.695Y-134.62
X226.695Y-137.16
T3
X90.17Y-137.795
X90.17Y-140.335
X90.805Y-123.825
X105.41Y-125.095
X105.41Y-137.795
X105.41Y-140.335
X107.95Y-137.795
X138.43Y-121.92
X146.05Y-121.92
T4
X109.912Y-97.085
X112.452Y-97.085
X114.992Y-97.085
T5
X186.604Y-96.21
X186.604Y-98.75
X186.604Y-101.29
X186.629Y-85.09
X186.629Y-87.63
X186.629Y-90.17
X186.698Y-129.972
X186.698Y-132.512
X186.698Y-135.052
X186.756Y-118.847
X186.756Y-121.387
X186.756Y-123.927
T6
X92.964Y-126.111
X92.964Y-128.651
X92.964Y-131.191
X92.964Y-133.731
X92.964Y-136.271
X93.0Y-83.185
X93.0Y-85.725
X93.0Y-88.265
X93.0Y-90.805
X93.0Y-93.345
X95.504Y-126.111
X95.504Y-128.651
X95.504Y-131.191
X95.504Y-133.731
X95.504Y-136.271
X95.54Y-83.185
X95.54Y-85.725
X95.54Y-88.265
X95.54Y-90.805
X95.54Y-93.345
X98.044Y-126.111
X98.044Y-128.651
X98.044Y-131.191
X98.044Y-133.731
X98.044Y-136.271
X98.08Y-83.185
X98.08Y-85.725
X98.08Y-88.265
X98.08Y-90.805
X98.08Y-93.345
X100.584Y-126.111
X100.584Y-128.651
X100.584Y-131.191
X100.584Y-133.731
X100.584Y-136.271
X100.62Y-83.185
X100.62Y-85.725
X100.62Y-88.265
X100.62Y-90.805
X100.62Y-93.345
X103.124Y-126.111
X103.124Y-128.651
X103.124Y-131.191
X103.124Y-133.731
X103.124Y-136.271
X103.16Y-83.185
X103.16Y-85.725
X103.16Y-88.265
X103.16Y-90.805
X103.16Y-93.345
X213.868Y-87.884
X213.868Y-90.424
X213.868Y-92.964
X213.868Y-95.504
X213.868Y-98.044
X213.868Y-121.92
X213.868Y-124.46
X213.868Y-127.0
X213.868Y-129.54
X213.868Y-132.08
X216.408Y-87.884
X216.408Y-90.424
X216.408Y-92.964
X216.408Y-95.504
X216.408Y-98.044
X216.408Y-121.92
X216.408Y-124.46
X216.408Y-127.0
X216.408Y-129.54
X216.408Y-132.08
X218.948Y-87.884
X218.948Y-90.424
X218.948Y-92.964
X218.948Y-95.504
X218.948Y-98.044
X218.948Y-121.92
X218.948Y-124.46
X218.948Y-127.0
X218.948Y-129.54
X218.948Y-132.08
X221.488Y-87.884
X221.488Y-90.424
X221.488Y-92.964
X221.488Y-95.504
X221.488Y-98.044
X221.488Y-121.92
X221.488Y-124.46
X221.488Y-127.0
X221.488Y-129.54
X221.488Y-132.08
X224.028Y-87.884
X224.028Y-90.424
X224.028Y-92.964
X224.028Y-95.504
X224.028Y-98.044
X224.028Y-121.92
X224.028Y-124.46
X224.028Y-127.0
X224.028Y-129.54
X224.028Y-132.08
T7
X92.659Y-103.388
X92.659Y-116.688
M30
